{
.appVersion = "3337";
.formatVersion = 3;
DisplayStrings = (
"க",
"த",
"ா",
"ழ",
"ற",
"ெ",
"ி",
"மைழ ெமதுவாக  விழுகிறது
மைழமவதுவகவழகறத
",
"",
"ை",
"வ",
"ு"
);
axes = (
{
name = Weight;
tag = wght;
},
{
name = Width;
tag = wdth;
}
);
classes = (
{
code = "aavowelsigntamil ivowelsigntamil iivowelsigntamil uvowelsigntamil uuvowelsigntamil viramatamil aulengthmarktamil ivowelsign3tamil ivowelsign2tamil ivowelsign1tamil uvowelsignalttamil uuvowelsignalttamil";
name = markAttachmentSet1;
},
{
code = "aatamil aitamil atamil autamil catamil cauuvowelsigntamil cauvowelsigntamil eetamil etamil haiivowelsigntamil iitamil katamil kauuvowelsigntamil kauvowelsigntamil laiivowelsigntamil laivowelsigntamil lauuvowelsigntamil lauvowelsigntamil llaiivowelsigntamil llauuvowelsigntamil llauvowelsigntamil lllatamil lllauuvowelsigntamil lllauvowelsigntamil matamil mauuvowelsigntamil mauvowelsigntamil natamil nauuvowelsigntamil nauvowelsigntamil ngaiivowelsigntamil ngauuvowelsigntamil ngauvowelsigntamil nnaiivowelsigntamil nnauuvowelsigntamil nnauvowelsigntamil nnnaiivowelsigntamil nnnauuvowelsigntamil nnnauvowelsigntamil nyaiivowelsigntamil nyauuvowelsigntamil nyauvowelsigntamil ootamil otamil patamil pauuvowelsigntamil pauvowelsigntamil ratamil rauuvowelsigntamil rauvowelsigntamil rratamil rrauuvowelsigntamil rrauvowelsigntamil saiivowelsigntamil saivowelsigntamil shritamil ssaiivowelsigntamil tatamil tauuvowelsigntamil tauvowelsigntamil tchaiivowelsigntamil ttaiivowelsigntamil ttaivowelsigntamil ttatamil utamil uutamil vaiivowelsigntamil vauuvowelsigntamil vauvowelsigntamil yatamil yauuvowelsigntamil yauvowelsigntamil";
name = class1;
},
{
code = "hatamil jatamil latamil llatamil ngatamil nnatamil nnnatamil nyatamil satamil shatamil ssatamil tchatamil vatamil";
name = class2;
},
{
code = "aavowelsigntamil aulengthmarktamil uuvowelsignalttamil uuvowelsigntamil uvowelsignalttamil uvowelsigntamil";
name = class4;
}
);
customParameters = (
{
name = openTypeOS2VendorID;
value = GOOG;
},

glyphs = (
{
glyphname = .notdef;
lastChange = "2020-03-17 13:07:53 +0000";
layers = (
{
layerId = "DB7E4487-AAA8-4905-9B27-B72FA6056893";
shapes = (
{
closed = 1;
nodes = (
(505,0,l),
(505,714,l),
(94,714,l),
(94,0,l)
);
},
{
closed = 1;
nodes = (
(145,663,l),
(454,663,l),
(454,51,l),
(145,51,l)
);
}
);
width = 600;
}
);
},
{
category = Mark;
glyphname = anusvaratamil;
lastChange = "2022-02-22 17:34:07 +0000";
layers = (
{
anchors = (
{
name = _Anchor8;
pos = (160,-29);
}
);
layerId = "DB7E4487-AAA8-4905-9B27-B72FA6056893";
shapes = (
{
closed = 1;
nodes = (
(36,633,o),
(79,584,o),
(158,584,cs),
(238,584,o),
(283,632,o),
(283,716,cs),
(283,801,o),
(238,851,o),
(158,851,cs),
(79,851,o),
(36,801,o),
(36,716,cs)
);
},
{
closed = 1;
nodes = (
(129,753,o),
(140,772,o),
(158,772,cs),
(180,772,o),
(189,753,o),
(189,716,cs),
(189,681,o),
(180,663,o),
(158,663,cs),
(140,663,o),
(129,682,o),
(129,716,cs)
);
}
);
width = 319;
}
);
subCategory = "Spacing Combining";
unicode = 2946;
},
{
glyphname = visargatamil;
lastChange = "2020-03-17 13:07:53 +0000";
layers = (
{
layerId = "DB7E4487-AAA8-4905-9B27-B72FA6056893";
shapes = (
{
closed = 1;
nodes = (
(318,-12,o),
(387,56,o),
(387,186,cs),
(387,316,o),
(318,384,o),
(208,384,cs),
(97,384,o),
(29,316,o),
(29,186,cs),
(29,55,o),
(99,-12,o),
(207,-12,cs)
);
},
{
closed = 1;
nodes = (
(186,105,o),
(170,126,o),
(170,186,cs),
(170,246,o),
(184,267,o),
(208,267,cs),
(231,267,o),
(246,246,o),
(246,186,cs),
(246,126,o),
(230,105,o),
(208,105,cs)
);
},
{
closed = 1;
nodes = (
(707,-12,o),
(776,56,o),
(776,186,cs),
(776,316,o),
(707,384,o),
(596,384,cs),
(486,384,o),
(418,316,o),
(418,186,cs),
(418,55,o),
(488,-12,o),
(595,-12,cs)
);
},
{
closed = 1;
nodes = (
(575,105,o),
(559,126,o),
(559,186,cs),
(559,248,o),
(574,267,o),
(597,267,cs),
(620,267,o),
(635,246,o),
(635,186,cs),
(635,126,o),
(619,105,o),
(596,105,cs)
);
},
{
closed = 1;
nodes = (
(512,455,o),
(581,523,o),
(581,653,cs),
(581,783,o),
(512,851,o),
(401,851,cs),
(291,851,o),
(223,783,o),
(223,653,cs),
(223,522,o),
(293,455,o),
(401,455,cs)
);
},
{
closed = 1;
nodes = (
(380,572,o),
(364,593,o),
(364,653,cs),
(364,713,o),
(379,734,o),
(402,734,cs),
(425,734,o),
(440,713,o),
(440,653,cs),
(440,593,o),
(424,572,o),
(401,572,cs)
);
}
);
width = 805;
}
);
unicode = 2947;
},
{
glyphname = atamil;
lastChange = "2020-03-17 13:07:53 +0000";
layers = (
{
anchors = (
{
name = Anchor10;
pos = (493,-29);
},
{
name = Anchor8;
pos = (493,-29);
}
);
layerId = "DB7E4487-AAA8-4905-9B27-B72FA6056893";
shapes = (
{
closed = 1;
nodes = (
(323,-146,ls),
(538,-146,o),
(661,-49,o),
(706,109,c),
(715,164,l),
(718,188,o),
(720,215,o),
(720,242,cs),
(720,433,o),
(629,581,o),
(426,581,cs),
(299,581,o),
(204,520,o),
(204,395,cs),
(204,282,o),
(273,229,o),
(374,229,cs),
(497,229,o),
(530,295,o),
(530,377,cs),
(530,445,o),
(487,525,o),
(446,568,c),
(356,529,l),
(397,494,o),
(417,446,o),
(417,400,cs),
(417,360,o),
(404,346,o),
(380,346,cs),
(357,346,o),
(344,363,o),
(344,398,cs),
(344,449,o),
(380,468,o),
(420,468,cs),
(439,468,o),
(452,467,o),
(462,465,c),
(545,446,o),
(570,349,o),
(570,237,cs),
(570,213,o),
(569,190,o),
(566,168,c),
(557,119,l),
(526,35,o),
(456,-22,o),
(315,-22,cs),
(311,-22,ls),
(222,-22,o),
(179,6,o),
(179,48,cs),
(179,58,o),
(183,66,o),
(190,71,cs),
(198,77,o),
(207,78,o),
(235,78,cs),
(793,78,l),
(798,200,l),
(229,200,ls),
(157,200,o),
(116,195,o),
(81,175,cs),
(44,154,o),
(23,119,o),
(23,67,cs),
(23,-56,o),
(120,-146,o),
(314,-146,cs)
);
},
{
closed = 1;
nodes = (
(934,-154,l),
(934,569,l),
(773,569,l),
(773,-154,l)
);
}
);
width = 987;
}
);
unicode = 2949;
},
{
glyphname = aatamil;
lastChange = "2020-03-17 13:07:53 +0000";
layers = (
{
anchors = (
{
name = Anchor10;
pos = (588,-29);
},
{
name = Anchor8;
pos = (588,-29);
}
);
layerId = "DB7E4487-AAA8-4905-9B27-B72FA6056893";
shapes = (
{
closed = 1;
nodes = (
(323,-146,ls),
(533,-146,o),
(658,-35,o),
(706,109,c),
(715,164,l),
(718,188,o),
(720,215,o),
(720,242,cs),
(720,433,o),
(629,581,o),
(426,581,cs),
(299,581,o),
(204,520,o),
(204,395,cs),
(204,282,o),
(273,229,o),
(374,229,cs),
(497,229,o),
(530,295,o),
(530,377,cs),
(530,445,o),
(487,525,o),
(446,568,c),
(356,529,l),
(397,494,o),
(417,446,o),
(417,400,cs),
(417,360,o),
(404,346,o),
(380,346,cs),
(357,346,o),
(344,363,o),
(344,398,cs),
(344,449,o),
(380,468,o),
(420,468,cs),
(439,468,o),
(452,467,o),
(462,465,cs),
(545,446,o),
(570,349,o),
(570,237,cs),
(570,213,o),
(569,190,o),
(566,168,c),
(557,119,l),
(526,35,o),
(456,-22,o),
(315,-22,cs),
(311,-22,ls),
(222,-22,o),
(179,6,o),
(179,48,cs),
(179,58,o),
(183,66,o),
(190,71,cs),
(198,77,o),
(207,78,o),
(235,78,cs),
(790,78,l),
(795,200,l),
(229,200,ls),
(157,200,o),
(116,195,o),
(81,175,cs),
(44,154,o),
(23,119,o),
(23,67,cs),
(23,-56,o),
(120,-146,o),
(314,-146,cs)
);
},
{
closed = 1;
nodes = (
(808,-321,ls),
(1047,-321,o),
(1175,-216,o),
(1175,-51,cs),
(1175,72,o),
(1106,130,o),
(998,130,cs),
(950,130,o),
(910,114,o),
(877,93,c),
(897,-19,l),
(921,0,o),
(949,10,o),
(965,10,cs),
(1004,10,o),
(1023,-12,o),
(1023,-57,cs),
(1023,-147,o),
(936,-201,o),
(813,-201,cs),
(806,-201,ls),
(701,-201,o),
(693,-178,o),
(693,-159,cs),
(693,-145,o),
(703,-137,o),
(722,-137,cs),
(730,-137,o),
(741,-138,o),
(747,-139,c),
(761,-33,l),
(745,-29,o),
(726,-27,o),
(708,-27,cs),
(619,-27,o),
(560,-78,o),
(560,-154,cs),
(560,-256,o),
(629,-321,o),
(799,-321,cs)
);
},
{
closed = 1;
nodes = (
(934,-124,l),
(934,569,l),
(773,569,l),
(773,-124,l)
);
}
);
width = 1176;
}
);
unicode = 2950;
},
{
glyphname = itamil;
lastChange = "2020-03-17 13:07:53 +0000";
layers = (
{
anchors = (
{
name = Anchor10;
pos = (489,-29);
}
);
layerId = "DB7E4487-AAA8-4905-9B27-B72FA6056893";
shapes = (
{
closed = 1;
nodes = (
(334,-321,o),
(394,-294,o),
(461,-250,c),
(561,-188,o),
(621,-102,o),
(667,14,c),
(703,91,o),
(717,173,o),
(717,250,cs),
(717,439,o),
(627,581,o),
(439,581,cs),
(319,581,o),
(224,519,o),
(224,395,cs),
(224,282,o),
(294,229,o),
(399,229,cs),
(491,229,o),
(542,276,o),
(542,377,cs),
(542,431,o),
(506,518,o),
(474,547,c),
(376,529,l),
(417,494,o),
(436,447,o),
(436,400,cs),
(436,360,o),
(423,346,o),
(399,346,cs),
(377,346,o),
(363,363,o),
(363,398,cs),
(363,449,o),
(399,468,o),
(431,468,cs),
(436,468,o),
(445,467,o),
(451,466,c),
(462,467,l),
(553,445,o),
(570,347,o),
(570,254,cs),
(570,204,o),
(565,148,o),
(548,92,c),
(514,-22,o),
(441,-132,o),
(340,-177,c),
(310,-190,o),
(277,-200,o),
(242,-200,cs),
(180,-200,o),
(149,-158,o),
(149,-112,cs),
(149,-71,o),
(169,-38,o),
(197,-12,c),
(248,38,o),
(313,55,o),
(400,55,cs),
(466,55,o),
(524,42,o),
(573,7,c),
(617,-21,o),
(649,-60,o),
(649,-111,cs),
(649,-162,o),
(616,-200,o),
(548,-200,cs),
(508,-200,o),
(471,-183,o),
(438,-165,c),
(350,-117,o),
(285,-12,o),
(251,96,c),
(215,193,o),
(194,287,o),
(194,384,cs),
(194,600,o),
(310,724,o),
(486,724,cs),
(564,724,o),
(624,701,o),
(667,661,cs),
(747,586,o),
(766,454,o),
(766,276,cs),
(766,0,l),
(927,0,l),
(927,347,ls),
(927,568,o),
(870,690,o),
(766,769,cs),
(694,824,o),
(599,851,o),
(489,851,cs),
(175,851,o),
(40,632,o),
(40,393,cs),
(40,249,o),
(67,137,o),
(133,14,c),
(180,-99,o),
(242,-188,o),
(338,-248,c),
(406,-294,o),
(475,-321,o),
(571,-321,cs),
(705,-321,o),
(787,-245,o),
(787,-110,cs),
(787,7,o),
(718,82,o),
(626,126,c),
(549,166,o),
(474,178,o),
(400,178,cs),
(310,178,o),
(217,157,o),
(144,110,c),
(65,63,o),
(12,-6,o),
(12,-110,cs),
(12,-227,o),
(69,-321,o),
(228,-321,cs)
);
}
);
width = 978;
}
);
unicode = 2951;
},
{
glyphname = iitamil;
lastChange = "2020-03-17 13:07:53 +0000";
layers = (
{
anchors = (
{
name = Anchor10;
pos = (363,-29);
},
{
name = Anchor8;
pos = (363,-29);
}
);
layerId = "DB7E4487-AAA8-4905-9B27-B72FA6056893";
shapes = (
{
closed = 1;
nodes = (
(213,0,l),
(213,445,l),
(377,445,l),
(377,0,l),
(538,0,l),
(538,445,l),
(707,445,l),
(707,569,l),
(52,569,l),
(52,0,l)
);
},
{
closed = 1;
nodes = (
(335,198,o),
(361,223,o),
(361,272,cs),
(361,320,o),
(335,345,o),
(295,345,cs),
(255,345,o),
(229,320,o),
(229,272,cs),
(229,223,o),
(255,198,o),
(295,198,cs)
);
},
{
closed = 1;
nodes = (
(660,198,o),
(686,223,o),
(686,272,cs),
(686,320,o),
(660,345,o),
(620,345,cs),
(580,345,o),
(554,320,o),
(554,272,cs),
(554,223,o),
(580,198,o),
(620,198,cs)
);
}
);
width = 726;
}
);
unicode = 2952;
},
{
glyphname = utamil;
lastChange = "2020-03-17 13:07:53 +0000";
layers = (
{
anchors = (
{
name = Anchor10;
pos = (410,-29);
},
{
name = Anchor8;
pos = (410,-29);
}
);
layerId = "DB7E4487-AAA8-4905-9B27-B72FA6056893";
shapes = (
{
closed = 1;
nodes = (
(120,581,o),
(29,519,o),
(29,414,cs),
(29,303,o),
(105,265,o),
(193,265,cs),
(297,265,o),
(355,311,o),
(355,408,cs),
(355,460,o),
(326,511,o),
(301,542,c),
(200,523,l),
(232,487,o),
(242,457,o),
(242,417,cs),
(242,380,o),
(225,369,o),
(205,369,cs),
(183,369,o),
(169,383,o),
(169,413,cs),
(169,444,o),
(185,463,o),
(221,463,cs),
(229,463,o),
(245,463,o),
(257,461,c),
(280,464,l),
(337,464,o),
(389,435,o),
(389,371,cs),
(389,309,o),
(349,279,o),
(247,267,cs),
(172,258,ls),
(63,245,o),
(27,189,o),
(27,130,cs),
(27,64,o),
(58,0,o),
(209,0,cs),
(805,0,l),
(805,124,l),
(203,124,ls),
(183,124,o),
(180,130,o),
(180,138,cs),
(180,146,o),
(186,150,o),
(209,153,cs),
(278,161,ls),
(401,175,o),
(547,216,o),
(547,374,cs),
(547,496,o),
(454,581,o),
(256,581,cs)
);
}
);
width = 821;
}
);
unicode = 2953;
},
{
glyphname = uutamil;
lastChange = "2020-03-17 13:07:53 +0000";
layers = (
{
anchors = (
{
name = Anchor10;
pos = (661,-29);
},
{
name = Anchor8;
pos = (661,-29);
}
);
layerId = "DB7E4487-AAA8-4905-9B27-B72FA6056893";
shapes = (
{
closed = 1;
nodes = (
(120,581,o),
(29,519,o),
(29,414,cs),
(29,303,o),
(105,265,o),
(193,265,cs),
(297,265,o),
(355,311,o),
(355,408,cs),
(355,460,o),
(326,511,o),
(301,542,c),
(200,523,l),
(232,487,o),
(242,457,o),
(242,417,cs),
(242,380,o),
(225,369,o),
(205,369,cs),
(183,369,o),
(169,383,o),
(169,413,cs),
(169,444,o),
(185,463,o),
(221,463,cs),
(229,463,o),
(245,463,o),
(257,461,c),
(280,464,l),
(337,464,o),
(389,435,o),
(389,371,cs),
(389,309,o),
(349,279,o),
(247,267,cs),
(172,258,ls),
(63,245,o),
(27,189,o),
(27,130,cs),
(27,64,o),
(58,0,o),
(209,0,cs),
(1303,0,l),
(1303,124,l),
(203,124,ls),
(183,124,o),
(180,130,o),
(180,138,cs),
(180,146,o),
(186,150,o),
(209,153,cs),
(278,161,ls),
(401,175,o),
(547,216,o),
(547,374,cs),
(547,496,o),
(454,581,o),
(256,581,cs)
);
},
{
closed = 1;
nodes = (
(833,155,o),
(881,207,o),
(881,295,cs),
(881,382,o),
(831,424,o),
(766,424,cs),
(708,424,o),
(675,395,o),
(636,361,c),
(658,285,l),
(688,317,o),
(704,331,o),
(727,331,cs),
(749,331,o),
(758,314,o),
(758,291,cs),
(758,264,o),
(750,250,o),
(729,250,cs),
(701,250,o),
(689,285,o),
(691,330,cs),
(693,372,l),
(701,440,o),
(749,469,o),
(796,469,cs),
(856,469,o),
(893,440,o),
(926,405,c),
(962,516,l),
(908,557,o),
(864,581,o),
(799,581,cs),
(661,581,o),
(576,480,o),
(576,344,cs),
(576,209,o),
(641,155,o),
(734,155,cs)
);
},
{
closed = 1;
nodes = (
(1042,162,l),
(1042,457,l),
(1091,457,l),
(1091,162,l),
(1227,162,l),
(1227,457,l),
(1290,457,l),
(1290,569,l),
(922,569,l),
(922,510,l),
(906,494,l),
(906,162,l)
);
}
);
width = 1332;
}
);
unicode = 2954;
},
{
glyphname = etamil;
lastChange = "2020-03-17 13:07:53 +0000";
layers = (
{
anchors = (
{
name = Anchor10;
pos = (359,-29);
},
{
name = Anchor12;
pos = (359,-78);
},
{
name = Anchor8;
pos = (359,-29);
}
);
layerId = "DB7E4487-AAA8-4905-9B27-B72FA6056893";
shapes = (
{
closed = 1;
nodes = (
(352,-12,o),
(407,60,o),
(407,175,cs),
(407,290,o),
(351,352,o),
(253,352,cs),
(192,352,o),
(151,319,o),
(106,272,c),
(132,179,l),
(163,218,o),
(189,237,o),
(212,237,cs),
(239,237,o),
(258,221,o),
(258,172,cs),
(258,124,o),
(246,107,o),
(219,107,cs),
(187,107,o),
(172,142,o),
(172,216,cs),
(172,320,o),
(200,373,o),
(249,408,cs),
(284,433,o),
(330,445,o),
(412,445,cs),
(441,445,l),
(462,569,l),
(446,569,ls),
(278,569,o),
(197,540,o),
(134,488,cs),
(69,434,o),
(30,355,o),
(30,245,cs),
(30,77,o),
(99,-12,o),
(223,-12,cs)
);
},
{
closed = 1;
nodes = (
(612,0,l),
(612,445,l),
(703,445,l),
(703,569,l),
(453,569,l),
(425,445,l),
(451,445,l),
(451,0,l)
);
}
);
width = 719;
}
);
unicode = 2958;
},
{
glyphname = eetamil;
lastChange = "2020-03-17 13:07:53 +0000";
layers = (
{
anchors = (
{
name = Anchor10;
pos = (359,-29);
},
{
name = Anchor8;
pos = (359,-29);
}
);
layerId = "DB7E4487-AAA8-4905-9B27-B72FA6056893";
shapes = (
{
closed = 1;
nodes = (
(612,0,l),
(612,445,l),
(703,445,l),
(703,569,l),
(453,569,l),
(425,445,l),
(451,445,l),
(451,40,l),
(317,-118,l),
(437,-214,l)
);
},
{
closed = 1;
nodes = (
(352,-12,o),
(407,60,o),
(407,175,cs),
(407,290,o),
(351,352,o),
(253,352,cs),
(192,352,o),
(151,319,o),
(106,272,c),
(132,179,l),
(163,218,o),
(189,237,o),
(212,237,cs),
(239,237,o),
(258,221,o),
(258,172,cs),
(258,124,o),
(246,107,o),
(219,107,cs),
(187,107,o),
(172,142,o),
(172,216,cs),
(172,320,o),
(200,373,o),
(249,408,cs),
(284,433,o),
(330,445,o),
(412,445,cs),
(441,445,l),
(462,569,l),
(446,569,ls),
(278,569,o),
(197,540,o),
(134,488,cs),
(69,434,o),
(30,355,o),
(30,245,cs),
(30,77,o),
(99,-12,o),
(223,-12,cs)
);
}
);
width = 719;
}
);
unicode = 2959;
},
{
glyphname = aitamil;
lastChange = "2020-03-17 13:07:53 +0000";
layers = (
{
anchors = (
{
name = Anchor10;
pos = (440,-29);
},
{
name = Anchor8;
pos = (440,-29);
}
);
layerId = "DB7E4487-AAA8-4905-9B27-B72FA6056893";
shapes = (
{
closed = 1;
nodes = (
(393,-321,o),
(459,-262,o),
(501,-191,c),
(439,-177,l),
(481,-281,o),
(544,-321,o),
(647,-321,cs),
(798,-321,o),
(846,-222,o),
(846,-98,cs),
(846,-38,o),
(833,14,o),
(816,57,c),
(664,18,l),
(675,-14,o),
(685,-54,o),
(685,-95,cs),
(685,-148,o),
(673,-195,o),
(622,-195,cs),
(596,-195,o),
(580,-185,o),
(569,-168,cs),
(555,-145,o),
(551,-112,o),
(551,-49,cs),
(551,-12,l),
(394,-12,l),
(394,-48,ls),
(394,-95,o),
(388,-133,o),
(368,-160,cs),
(352,-181,o),
(326,-195,o),
(288,-195,cs),
(218,-195,o),
(192,-151,o),
(192,-90,cs),
(192,-44,o),
(206,-12,o),
(235,8,cs),
(264,28,o),
(298,37,o),
(387,37,cs),
(511,37,ls),
(626,37,o),
(697,54,o),
(761,108,c),
(815,155,o),
(846,220,o),
(846,329,cs),
(846,458,o),
(781,581,o),
(632,581,cs),
(534,581,o),
(472,525,o),
(438,438,c),
(501,433,l),
(460,522,o),
(392,581,o),
(264,581,cs),
(121,581,o),
(31,490,o),
(31,357,cs),
(31,249,o),
(74,164,o),
(199,164,cs),
(309,164,o),
(359,228,o),
(359,325,cs),
(359,412,o),
(316,464,o),
(262,486,c),
(146,435,l),
(211,420,o),
(235,376,o),
(235,331,cs),
(235,295,o),
(221,278,o),
(199,278,cs),
(171,278,o),
(159,304,o),
(159,343,cs),
(159,383,o),
(169,414,o),
(192,444,c),
(216,454,l),
(240,462,o),
(257,466,o),
(281,466,cs),
(358,466,o),
(394,420,o),
(394,314,cs),
(394,204,l),
(552,204,l),
(552,334,ls),
(552,390,o),
(559,418,o),
(575,437,cs),
(585,449,o),
(599,455,o),
(617,455,cs),
(659,455,o),
(685,413,o),
(685,340,cs),
(685,276,o),
(674,231,o),
(644,203,cs),
(611,171,o),
(572,160,o),
(472,160,cs),
(397,160,ls),
(266,160,o),
(196,145,o),
(137,112,cs),
(69,74,o),
(31,10,o),
(31,-84,cs),
(31,-241,o),
(118,-321,o),
(263,-321,cs)
);
}
);
width = 877;
}
);
unicode = 2960;
},
{
glyphname = otamil;
lastChange = "2020-03-17 13:07:53 +0000";
layers = (
{
anchors = (
{
name = Anchor10;
pos = (469,-29);
},
{
name = Anchor8;
pos = (469,-29);
}
);
layerId = "DB7E4487-AAA8-4905-9B27-B72FA6056893";
shapes = (
{
closed = 1;
nodes = (
(846,37,o),
(909,124,o),
(909,242,cs),
(909,350,o),
(865,430,o),
(797,485,cs),
(715,551,o),
(599,581,o),
(468,581,cs),
(331,581,o),
(233,556,o),
(151,499,cs),
(79,448,o),
(29,373,o),
(29,265,cs),
(29,133,o),
(90,48,o),
(209,48,cs),
(310,48,o),
(377,97,o),
(377,230,cs),
(377,337,o),
(313,393,o),
(243,393,cs),
(207,393,o),
(167,383,o),
(120,351,c),
(133,251,l),
(160,282,o),
(179,294,o),
(205,294,cs),
(231,294,o),
(246,273,o),
(246,228,cs),
(246,183,o),
(234,166,o),
(207,166,cs),
(172,166,o),
(161,208,o),
(161,254,cs),
(161,283,o),
(164,298,o),
(168,313,c),
(175,343,l),
(252,428,o),
(360,452,o),
(467,452,cs),
(656,452,o),
(750,365,o),
(750,231,cs),
(750,167,o),
(732,156,o),
(711,156,cs),
(682,156,o),
(670,183,o),
(670,233,cs),
(670,262,o),
(675,291,o),
(686,326,c),
(556,394,l),
(456,336,o),
(385,257,o),
(385,130,cs),
(385,28,o),
(437,-66,o),
(563,-107,c),
(596,-119,o),
(645,-135,o),
(748,-135,cs),
(831,-135,l),
(831,-12,l),
(754,-12,ls),
(659,-12,o),
(615,1,o),
(579,24,cs),
(537,52,o),
(518,94,o),
(518,147,cs),
(518,192,o),
(530,233,o),
(571,274,c),
(566,277,l),
(554,247,o),
(548,224,o),
(548,190,cs),
(548,107,o),
(589,37,o),
(725,37,cs)
);
},
{
closed = 1;
nodes = (
(510,-321,o),
(590,-282,o),
(668,-154,cs),
(683,-129,o),
(702,-106,o),
(718,-88,c),
(563,-53,l),
(546,-69,o),
(526,-94,o),
(510,-118,cs),
(471,-177,o),
(442,-197,o),
(400,-197,cs),
(356,-197,o),
(330,-172,o),
(330,-126,cs),
(330,-97,o),
(340,-69,o),
(359,-41,c),
(223,29,l),
(190,-21,o),
(174,-69,o),
(174,-125,cs),
(174,-259,o),
(273,-321,o),
(391,-321,cs)
);
}
);
width = 938;
}
);
unicode = 2962;
},
{
glyphname = ootamil;
lastChange = "2020-03-17 13:07:53 +0000";
layers = (
{
anchors = (
{
name = Anchor10;
pos = (469,-29);
},
{
name = Anchor8;
pos = (469,-29);
}
);
layerId = "DB7E4487-AAA8-4905-9B27-B72FA6056893";
shapes = (
{
closed = 1;
nodes = (
(846,37,o),
(909,124,o),
(909,242,cs),
(909,350,o),
(865,430,o),
(797,485,cs),
(715,551,o),
(599,581,o),
(468,581,cs),
(331,581,o),
(233,556,o),
(151,499,cs),
(79,448,o),
(29,373,o),
(29,265,cs),
(29,133,o),
(90,48,o),
(209,48,cs),
(310,48,o),
(377,97,o),
(377,230,cs),
(377,337,o),
(313,393,o),
(243,393,cs),
(207,393,o),
(167,383,o),
(120,351,c),
(133,251,l),
(160,282,o),
(179,294,o),
(205,294,cs),
(231,294,o),
(246,273,o),
(246,228,cs),
(246,183,o),
(234,166,o),
(207,166,cs),
(172,166,o),
(161,208,o),
(161,254,cs),
(161,283,o),
(164,298,o),
(168,313,cs),
(175,343,l),
(252,428,o),
(360,452,o),
(467,452,cs),
(656,452,o),
(750,365,o),
(750,231,cs),
(750,167,o),
(732,156,o),
(711,156,cs),
(682,156,o),
(670,183,o),
(670,233,cs),
(670,262,o),
(675,291,o),
(686,326,c),
(556,394,l),
(456,336,o),
(385,257,o),
(385,130,cs),
(385,28,o),
(437,-66,o),
(563,-107,c),
(596,-119,o),
(645,-135,o),
(748,-135,cs),
(831,-135,l),
(831,-12,l),
(754,-12,ls),
(659,-12,o),
(615,1,o),
(579,24,cs),
(537,52,o),
(518,94,o),
(518,147,cs),
(518,192,o),
(530,233,o),
(571,274,c),
(566,277,l),
(554,247,o),
(548,224,o),
(548,190,cs),
(548,107,o),
(589,37,o),
(725,37,cs)
);
},
{
closed = 1;
nodes = (
(159,33,o),
(104,-41,o),
(104,-131,cs),
(104,-205,o),
(133,-249,o),
(176,-279,cs),
(218,-308,o),
(270,-321,o),
(359,-321,cs),
(377,-321,ls),
(515,-321,o),
(592,-280,o),
(668,-154,cs),
(683,-129,o),
(702,-106,o),
(718,-88,c),
(563,-53,l),
(546,-69,o),
(526,-94,o),
(510,-118,cs),
(471,-177,o),
(441,-207,o),
(356,-207,cs),
(326,-207,ls),
(244,-207,o),
(235,-172,o),
(235,-135,cs),
(235,-103,o),
(247,-85,o),
(267,-85,cs),
(285,-85,o),
(297,-101,o),
(297,-136,cs),
(297,-165,o),
(291,-187,o),
(277,-211,c),
(380,-241,l),
(402,-213,o),
(420,-182,o),
(420,-115,cs),
(420,-41,o),
(377,33,o),
(269,33,cs)
);
}
);
width = 938;
}
);
unicode = 2963;
},
{
glyphname = katamil;
lastChange = "2025-02-12 13:55:04 +0000";
layers = (
{
anchors = (
{
name = imatra;
pos = (391,656);
},
{
name = top;
pos = (301,870);
}
);
layerId = "DB7E4487-AAA8-4905-9B27-B72FA6056893";
shapes = (
{
closed = 1;
nodes = (
(512,0,ls),
(564,0,o),
(592,28,o),
(592,80,cs),
(592,168,ls),
(592,226,o),
(560,258,o),
(502,258,cs),
(441,258,l),
(441,168,l),
(493,168,ls),
(498,168,o),
(502,164,o),
(502,159,cs),
(502,90,l),
(492,90,ls),
(479,90,o),
(472,83,o),
(472,70,cs),
(472,20,ls),
(472,7,o),
(479,0,o),
(492,0,cs)
);
},
{
closed = 1;
nodes = (
(232,278,l),
(232,485,l),
(199,496,ls),
(191,499,o),
(183,500,o),
(174,500,cs),
(162,500,ls),
(149,500,o),
(142,493,o),
(142,480,cs),
(142,278,l)
);
},
{
closed = 1;
nodes = (
(230,168,l),
(311,168,l),
(311,258,l),
(230,258,l)
);
},
{
closed = 1;
nodes = (
(142,258,l),
(90,258,ls),
(38,258,o),
(10,230,o),
(10,178,cs),
(10,80,ls),
(10,28,o),
(38,0,o),
(90,0,cs),
(341,0,ls),
(393,0,o),
(421,28,o),
(421,80,cs),
(421,327,l),
(435,322,ls),
(447,318,o),
(456,322,o),
(460,335,cs),
(476,383,ls),
(480,396,o),
(475,404,o),
(463,408,cs),
(230,486,l),
(230,391,l),
(331,357,l),
(331,90,l),
(100,90,l),
(100,168,l),
(232,168,l),
(232,258,l)
);
}
);
width = 602;
}
);
unicode = 2965;
},
{
glyphname = ngatamil;
lastChange = "2020-03-17 13:07:53 +0000";
layers = (
{
anchors = (
{
name = Anchor10;
pos = (484,-29);
},
{
name = Anchor12;
pos = (484,-78);
},
{
name = Anchor8;
pos = (484,-29);
}
);
layerId = "DB7E4487-AAA8-4905-9B27-B72FA6056893";
shapes = (
{
closed = 1;
nodes = (
(214,0,l),
(214,445,l),
(292,445,l),
(292,172,l),
(453,172,l),
(453,232,l),
(465,240,o),
(477,246,o),
(493,246,cs),
(519,246,o),
(531,227,o),
(531,203,cs),
(531,166,o),
(519,143,o),
(506,124,c),
(292,124,l),
(292,0,l),
(719,0,l),
(725,124,l),
(668,124,l),
(681,146,o),
(691,183,o),
(691,223,cs),
(691,294,o),
(646,370,o),
(537,370,cs),
(504,370,o),
(473,361,o),
(453,350,c),
(453,445,l),
(586,445,l),
(586,569,l),
(53,569,l),
(53,0,l)
);
},
{
closed = 1;
nodes = (
(916,0,l),
(916,569,l),
(755,569,l),
(755,124,l),
(716,124,l),
(703,0,l)
);
}
);
width = 969;
}
);
unicode = 2969;
},
{
glyphname = catamil;
lastChange = "2025-02-08 13:20:38 +0000";
layers = (
{
anchors = (
{
name = Anchor10;
pos = (337,-29);
},
{
name = Anchor12;
pos = (337,-78);
},
{
name = Anchor8;
pos = (337,-29);
}
);
layerId = "DB7E4487-AAA8-4905-9B27-B72FA6056893";
shapes = (
{
closed = 1;
nodes = (
(335,-12,o),
(396,10,o),
(433,52,cs),
(473,96,o),
(488,151,o),
(488,253,cs),
(488,445,l),
(630,445,l),
(630,569,l),
(95,569,l),
(95,286,l),
(240,302,l),
(240,445,l),
(331,445,l),
(331,218,ls),
(331,139,o),
(298,112,o),
(246,112,cs),
(210,112,o),
(183,129,o),
(183,170,cs),
(183,191,o),
(189,206,o),
(201,217,cs),
(217,232,o),
(240,237,o),
(291,237,cs),
(630,237,l),
(630,352,l),
(313,352,ls),
(121,352,o),
(28,278,o),
(28,167,cs),
(28,52,o),
(102,-12,o),
(248,-12,cs)
);
}
);
width = 674;
}
);
unicode = 2970;
},
{
glyphname = jatamil;
lastChange = "2020-03-17 13:07:53 +0000";
layers = (
{
anchors = (
{
name = Anchor10;
pos = (440,-29);
},
{
name = Anchor12;
pos = (438,-308);
},
{
name = Anchor8;
pos = (440,-29);
}
);
layerId = "DB7E4487-AAA8-4905-9B27-B72FA6056893";
shapes = (
{
closed = 1;
nodes = (
(121,581,o),
(31,490,o),
(31,357,cs),
(31,249,o),
(74,164,o),
(199,164,cs),
(309,164,o),
(359,228,o),
(359,325,cs),
(359,412,o),
(316,464,o),
(262,486,c),
(146,435,l),
(211,420,o),
(235,377,o),
(235,331,cs),
(235,295,o),
(221,278,o),
(199,278,cs),
(171,278,o),
(159,304,o),
(159,343,cs),
(159,383,o),
(169,414,o),
(192,444,c),
(216,454,l),
(240,462,o),
(257,466,o),
(281,466,cs),
(358,466,o),
(394,420,o),
(394,314,cs),
(394,204,l),
(552,204,l),
(552,334,ls),
(552,390,o),
(559,418,o),
(575,437,cs),
(585,449,o),
(599,455,o),
(617,455,cs),
(659,455,o),
(685,413,o),
(685,340,cs),
(685,276,o),
(674,231,o),
(644,203,cs),
(611,171,o),
(572,160,o),
(472,160,cs),
(397,160,ls),
(266,160,o),
(196,145,o),
(137,112,cs),
(69,74,o),
(31,10,o),
(31,-92,cs),
(31,-215,o),
(94,-321,o),
(255,-321,cs),
(376,-321,o),
(441,-281,o),
(504,-186,cs),
(547,-121,o),
(558,-108,o),
(589,-86,c),
(603,-77,o),
(622,-73,o),
(638,-73,cs),
(676,-73,o),
(697,-109,o),
(697,-150,cs),
(697,-181,o),
(688,-203,o),
(662,-203,cs),
(635,-203,o),
(624,-181,o),
(624,-151,cs),
(624,-114,o),
(642,-78,o),
(685,-40,c),
(563,-21,l),
(533,-58,o),
(505,-106,o),
(505,-165,cs),
(505,-229,o),
(539,-321,o),
(669,-321,cs),
(793,-321,o),
(835,-245,o),
(835,-149,cs),
(835,-50,o),
(778,43,o),
(638,43,cs),
(568,43,o),
(487,30,o),
(406,-95,cs),
(351,-178,o),
(318,-197,o),
(269,-197,cs),
(215,-197,o),
(192,-155,o),
(192,-94,cs),
(192,-44,o),
(206,-12,o),
(235,8,cs),
(264,28,o),
(298,37,o),
(387,37,cs),
(511,37,ls),
(626,37,o),
(697,54,o),
(761,108,cs),
(815,155,o),
(846,220,o),
(846,329,cs),
(846,458,o),
(781,581,o),
(632,581,cs),
(534,581,o),
(472,525,o),
(438,438,c),
(501,433,l),
(460,522,o),
(392,581,o),
(264,581,cs)
);
}
);
width = 877;
}
);
unicode = 2972;
},
{
glyphname = nyatamil;
lastChange = "2020-03-17 13:07:53 +0000";
layers = (
{
anchors = (
{
name = Anchor10;
pos = (552,-29);
},
{
name = Anchor12;
pos = (566,-33);
},
{
name = Anchor8;
pos = (552,-29);
}
);
layerId = "DB7E4487-AAA8-4905-9B27-B72FA6056893";
shapes = (
{
closed = 1;
nodes = (
(870,346,o),
(833,336,o),
(803,315,c),
(815,206,l),
(829,216,o),
(843,222,o),
(861,222,cs),
(893,222,o),
(916,190,o),
(916,96,cs),
(916,-106,o),
(788,-192,o),
(571,-192,cs),
(559,-192,ls),
(286,-192,o),
(189,-51,o),
(189,162,cs),
(189,172,ls),
(189,277,o),
(222,400,o),
(288,515,c),
(152,582,l),
(87,466,o),
(39,331,o),
(39,175,cs),
(39,165,ls),
(39,-106,o),
(176,-321,o),
(554,-321,cs),
(573,-321,ls),
(844,-321,o),
(1076,-215,o),
(1076,102,cs),
(1076,255,o),
(1015,346,o),
(907,346,cs)
);
},
{
closed = 1;
nodes = (
(577,-12,o),
(632,60,o),
(632,175,cs),
(632,290,o),
(576,352,o),
(478,352,cs),
(417,352,o),
(376,319,o),
(331,272,c),
(357,179,l),
(388,218,o),
(414,237,o),
(437,237,cs),
(464,237,o),
(483,221,o),
(483,172,cs),
(483,124,o),
(471,107,o),
(444,107,cs),
(412,107,o),
(397,142,o),
(397,216,cs),
(397,320,o),
(425,373,o),
(474,408,cs),
(509,433,o),
(555,445,o),
(637,445,cs),
(666,445,l),
(687,569,l),
(671,569,ls),
(503,569,o),
(422,540,o),
(359,488,cs),
(294,434,o),
(255,355,o),
(255,245,cs),
(255,77,o),
(324,-12,o),
(448,-12,cs)
);
},
{
closed = 1;
nodes = (
(837,0,l),
(837,445,l),
(928,445,l),
(928,569,l),
(678,569,l),
(650,445,l),
(676,445,l),
(676,0,l)
);
}
);
width = 1104;
}
);
unicode = 2974;
},
{
glyphname = ttatamil;
lastChange = "2020-03-17 13:07:53 +0000";
layers = (
{
anchors = (
{
name = Anchor10;
pos = (288,-29);
},
{
name = Anchor12;
pos = (288,-78);
},
{
name = Anchor8;
pos = (288,-29);
}
);
layerId = "DB7E4487-AAA8-4905-9B27-B72FA6056893";
shapes = (
{
closed = 1;
nodes = (
(560,0,l),
(560,124,l),
(214,124,l),
(214,569,l),
(53,569,l),
(53,0,l)
);
}
);
width = 576;
}
);
unicode = 2975;
},
{
glyphname = nnatamil;
lastChange = "2020-03-17 13:07:53 +0000";
layers = (
{
anchors = (
{
name = Anchor10;
pos = (738,-29);
},
{
name = Anchor12;
pos = (738,-78);
},
{
name = Anchor8;
pos = (738,-29);
}
);
layerId = "DB7E4487-AAA8-4905-9B27-B72FA6056893";
shapes = (
{
closed = 1;
nodes = (
(352,-12,o),
(407,60,o),
(407,175,cs),
(407,290,o),
(351,352,o),
(253,352,cs),
(192,352,o),
(151,319,o),
(106,272,c),
(132,179,l),
(163,218,o),
(189,237,o),
(212,237,cs),
(239,237,o),
(258,221,o),
(258,172,cs),
(258,124,o),
(246,107,o),
(219,107,cs),
(187,107,o),
(172,141,o),
(172,221,cs),
(172,238,o),
(173,259,o),
(175,270,c),
(188,377,o),
(267,457,o),
(380,457,cs),
(458,457,o),
(515,432,o),
(562,389,c),
(615,343,o),
(638,273,o),
(638,185,cs),
(638,124,o),
(628,108,o),
(604,108,cs),
(585,108,o),
(572,126,o),
(572,187,cs),
(572,272,o),
(593,345,o),
(636,394,c),
(677,434,o),
(717,457,o),
(786,457,cs),
(861,457,o),
(910,434,o),
(948,396,c),
(998,341,o),
(1017,281,o),
(1017,190,cs),
(1017,124,o),
(1007,108,o),
(983,108,cs),
(964,108,o),
(951,126,o),
(951,187,cs),
(951,271,o),
(971,358,o),
(1025,384,c),
(1066,422,o),
(1123,445,o),
(1204,445,cs),
(1208,445,l),
(1208,0,l),
(1369,0,l),
(1369,445,l),
(1460,445,l),
(1460,569,l),
(1257,569,ls),
(1093,569,o),
(1025,542,o),
(962,498,c),
(926,457,l),
(849,386,o),
(808,311,o),
(808,197,cs),
(808,58,o),
(879,-12,o),
(981,-12,cs),
(1097,-12,o),
(1158,49,o),
(1158,191,cs),
(1158,307,o),
(1121,393,o),
(1050,467,c),
(1019,500,l),
(952,559,o),
(880,581,o),
(791,581,cs),
(704,581,o),
(626,560,o),
(564,507,c),
(527,462,l),
(467,391,o),
(429,311,o),
(429,197,cs),
(429,58,o),
(500,-12,o),
(602,-12,cs),
(714,-12,o),
(779,49,o),
(779,191,cs),
(779,303,o),
(739,393,o),
(661,458,c),
(630,502,l),
(543,563,o),
(481,581,o),
(383,581,cs),
(167,581,o),
(30,451,o),
(30,249,cs),
(30,77,o),
(99,-12,o),
(223,-12,cs)
);
}
);
width = 1476;
}
);
unicode = 2979;
},
{
glyphname = tatamil;
lastChange = "2025-02-12 13:59:41 +0000";
layers = (
{
layerId = "DB7E4487-AAA8-4905-9B27-B72FA6056893";
shapes = (
{
closed = 1;
nodes = (
(502,0,l),
(592,0,l),
(592,167,ls),
(592,225,o),
(560,257,o),
(502,257,cs),
(441,257,l),
(441,167,l),
(493,167,ls),
(498,167,o),
(502,163,o),
(502,158,cs)
);
},
{
closed = 1;
nodes = (
(42,-171,l),
(510,-171,ls),
(562,-171,o),
(591,-143,o),
(591,-91,cs),
(591,-81,l),
(122,-81,ls),
(70,-81,o),
(42,-109,o),
(42,-161,cs)
);
},
{
closed = 1;
nodes = (
(592,5,l),
(502,5,l),
(501,-100,l),
(591,-100,l)
);
},
{
closed = 1;
nodes = (
(132,-167,l),
(42,-167,l),
(42,-200,ls),
(42,-213,o),
(49,-220,o),
(62,-220,cs),
(111,-220,ls),
(125,-220,o),
(132,-213,o),
(132,-200,cs)
);
},
{
closed = 1;
nodes = (
(142,257,l),
(90,257,ls),
(38,257,o),
(10,229,o),
(10,177,cs),
(10,80,ls),
(10,28,o),
(38,0,o),
(90,0,cs),
(341,0,ls),
(393,0,o),
(421,28,o),
(421,80,cs),
(421,327,l),
(435,322,ls),
(447,318,o),
(456,322,o),
(460,335,cs),
(476,383,ls),
(480,396,o),
(475,404,o),
(463,408,cs),
(199,496,ls),
(191,499,o),
(183,500,o),
(174,500,cs),
(162,500,ls),
(149,500,o),
(142,493,o),
(142,480,cs),
(142,277,l),
(232,277,l),
(232,390,l),
(331,357,l),
(331,90,l),
(100,90,l),
(100,167,l),
(311,167,l),
(311,257,l),
(232,257,l)
);
}
);
width = 612;
}
);
unicode = 2980;
},
{
glyphname = natamil;
lastChange = "2020-03-17 13:07:53 +0000";
layers = (
{
anchors = (
{
name = Anchor10;
pos = (365,-29);
},
{
name = Anchor12;
pos = (365,-217);
},
{
name = Anchor8;
pos = (365,-29);
}
);
layerId = "DB7E4487-AAA8-4905-9B27-B72FA6056893";
shapes = (
{
closed = 1;
nodes = (
(494,370,o),
(456,361,o),
(419,338,c),
(434,227,l),
(450,238,o),
(467,246,o),
(483,246,cs),
(520,246,o),
(543,213,o),
(543,127,cs),
(543,56,o),
(533,9,o),
(506,-18,cs),
(483,-40,o),
(455,-50,o),
(377,-50,cs),
(287,-50,ls),
(181,-50,o),
(134,-61,o),
(96,-85,cs),
(51,-114,o),
(29,-161,o),
(29,-233,cs),
(29,-262,o),
(32,-291,o),
(36,-322,c),
(194,-313,l),
(192,-300,o),
(190,-279,o),
(190,-264,cs),
(190,-231,o),
(199,-208,o),
(217,-194,cs),
(235,-180,o),
(254,-174,o),
(316,-174,cs),
(360,-174,ls),
(494,-174,o),
(558,-162,o),
(615,-114,cs),
(671,-67,o),
(701,10,o),
(701,133,cs),
(701,261,o),
(650,370,o),
(531,370,cs)
);
},
{
closed = 1;
nodes = (
(214,0,l),
(214,445,l),
(293,445,l),
(293,0,l),
(454,0,l),
(454,445,l),
(544,445,l),
(544,569,l),
(53,569,l),
(53,0,l)
);
}
);
width = 731;
}
);
unicode = 2984;
},
{
glyphname = nnnatamil;
lastChange = "2020-03-17 13:07:53 +0000";
layers = (
{
anchors = (
{
name = Anchor10;
pos = (548,-29);
},
{
name = Anchor12;
pos = (548,-78);
},
{
name = Anchor8;
pos = (548,-29);
}
);
layerId = "DB7E4487-AAA8-4905-9B27-B72FA6056893";
shapes = (
{
closed = 1;
nodes = (
(352,-12,o),
(407,60,o),
(407,175,cs),
(407,290,o),
(351,352,o),
(253,352,cs),
(192,352,o),
(151,319,o),
(106,272,c),
(132,179,l),
(163,218,o),
(189,237,o),
(212,237,cs),
(239,237,o),
(258,221,o),
(258,172,cs),
(258,124,o),
(246,107,o),
(219,107,cs),
(187,107,o),
(172,141,o),
(172,221,cs),
(172,238,o),
(173,259,o),
(175,270,c),
(188,377,o),
(267,457,o),
(380,457,cs),
(458,457,o),
(515,432,o),
(562,389,c),
(615,343,o),
(638,273,o),
(638,190,cs),
(638,124,o),
(628,108,o),
(604,108,cs),
(585,108,o),
(572,126,o),
(572,187,cs),
(572,271,o),
(592,358,o),
(646,384,c),
(687,422,o),
(744,445,o),
(825,445,cs),
(829,445,l),
(829,0,l),
(990,0,l),
(990,445,l),
(1081,445,l),
(1081,569,l),
(878,569,ls),
(714,569,o),
(646,542,o),
(583,498,c),
(547,457,l),
(470,386,o),
(429,309,o),
(429,197,cs),
(429,58,o),
(500,-12,o),
(602,-12,cs),
(714,-12,o),
(779,49,o),
(779,191,cs),
(779,303,o),
(739,393,o),
(661,458,c),
(630,502,l),
(543,563,o),
(483,581,o),
(383,581,cs),
(167,581,o),
(30,451,o),
(30,249,cs),
(30,77,o),
(99,-12,o),
(223,-12,cs)
);
}
);
width = 1097;
}
);
unicode = 2985;
},
{
glyphname = patamil;
lastChange = "2020-03-17 13:07:53 +0000";
layers = (
{
anchors = (
{
name = Anchor10;
pos = (329,-29);
},
{
name = Anchor12;
pos = (329,-78);
},
{
name = Anchor8;
pos = (329,-29);
}
);
layerId = "DB7E4487-AAA8-4905-9B27-B72FA6056893";
shapes = (
{
closed = 1;
nodes = (
(605,0,l),
(605,569,l),
(444,569,l),
(444,124,l),
(214,124,l),
(214,569,l),
(53,569,l),
(53,0,l)
);
}
);
width = 658;
}
);
unicode = 2986;
},
{
glyphname = matamil;
lastChange = "2025-02-12 13:33:07 +0000";
layers = (
{
anchors = (
{
name = Anchor10;
pos = (278,-29);
},
{
name = Anchor8;
pos = (320,-29);
}
);
background = {
shapes = (
{
closed = 1;
nodes = (
(346,0,l),
(347,485,l),
(302,500,l),
(257,500,l),
(256,0,l)
);
},
{
closed = 1;
nodes = (
(502,0,ls),
(560,0,o),
(592,31,o),
(592,90,cs),
(593,345,ls),
(593,387,o),
(574,412,o),
(535,425,cs),
(302,500,l),
(275,414,l),
(497,343,ls),
(501,342,o),
(503,340,o),
(503,335,cs),
(502,0,l)
);
}
);
};
layerId = "DB7E4487-AAA8-4905-9B27-B72FA6056893";
shapes = (
{
closed = 1;
nodes = (
(353,90,l),
(108,90,l),
(108,0,l),
(353,0,l)
);
},
{
closed = 1;
nodes = (
(110,0,l),
(110,90,l),
(20,90,l),
(74,46,l),
(108,0,l)
);
},
{
closed = 1;
nodes = (
(110,0,l),
(111,480,ls),
(111,493,o),
(104,500,o),
(91,500,cs),
(41,500,ls),
(28,500,o),
(21,493,o),
(21,480,cs),
(20,80,ls),
(20,28,o),
(48,0,o),
(100,0,cs)
);
},
{
closed = 1;
nodes = (
(353,110,l),
(353,485,l),
(321,496,ls),
(313,499,o),
(306,500,o),
(297,500,cs),
(283,500,ls),
(270,500,o),
(263,493,o),
(263,480,cs),
(263,110,l)
);
},
{
closed = 1;
nodes = (
(350,0,l),
(512,0,ls),
(564,0,o),
(592,28,o),
(592,80,cs),
(593,345,ls),
(593,387,o),
(574,412,o),
(535,425,cs),
(348,487,l),
(348,394,l),
(503,341,l),
(502,90,l),
(350,90,l)
);
}
);
width = 613;
}
);
unicode = 2990;
},
{
glyphname = yatamil;
lastChange = "2020-03-17 13:07:53 +0000";
layers = (
{
anchors = (
{
name = Anchor10;
pos = (416,-29);
},
{
name = Anchor12;
pos = (416,-78);
},
{
name = Anchor8;
pos = (416,-29);
}
);
layerId = "DB7E4487-AAA8-4905-9B27-B72FA6056893";
shapes = (
{
closed = 1;
nodes = (
(779,0,l),
(779,569,l),
(618,569,l),
(618,124,l),
(454,124,l),
(454,569,l),
(293,569,l),
(293,0,l)
);
},
{
closed = 1;
nodes = (
(264,-12,o),
(296,14,o),
(324,48,c),
(315,152,l),
(299,127,o),
(282,111,o),
(256,111,cs),
(243,111,o),
(235,114,o),
(228,120,cs),
(216,131,o),
(213,151,o),
(213,189,cs),
(213,569,l),
(52,569,l),
(52,215,ls),
(52,119,o),
(64,70,o),
(94,33,cs),
(117,5,o),
(151,-12,o),
(199,-12,cs)
);
}
);
width = 832;
}
);
unicode = 2991;
},
{
glyphname = ratamil;
lastChange = "2020-03-17 13:07:53 +0000";
layers = (
{
anchors = (
{
name = Anchor10;
pos = (283,-29);
},
{
name = Anchor12;
pos = (280,-225);
},
{
name = Anchor8;
pos = (283,-29);
}
);
layerId = "DB7E4487-AAA8-4905-9B27-B72FA6056893";
shapes = (
{
closed = 1;
nodes = (
(459,0,l),
(459,445,l),
(551,445,l),
(551,569,l),
(53,569,l),
(53,0,l),
(214,0,l),
(214,445,l),
(298,445,l),
(298,40,l),
(164,-118,l),
(284,-214,l)
);
}
);
width = 567;
}
);
unicode = 2992;
},
{
glyphname = rratamil;
lastChange = "2025-02-12 13:58:26 +0000";
layers = (
{
anchors = (
{
name = Anchor10;
pos = (262,-29);
},
{
name = Anchor12;
pos = (262,-217);
},
{
name = Anchor8;
pos = (262,-29);
}
);
guides = (
{
angle = 269.8754;
pos = (21,250);
},
{
angle = 89.8613;
pos = (547,103);
},
{
pos = (430,-81);
},
{
angle = 180;
pos = (266,-81);
}
);
layerId = "DB7E4487-AAA8-4905-9B27-B72FA6056893";
shapes = (
{
closed = 1;
nodes = (
(111,481,l),
(78,495,ls),
(70,498,o),
(62,500,o),
(53,500,cs),
(41,500,ls),
(28,500,o),
(21,493,o),
(21,480,cs),
(20,20,ls),
(20,7,o),
(27,0,o),
(40,0,cs),
(90,0,ls),
(103,0,o),
(110,7,o),
(110,20,cs),
(111,384,l)
);
},
{
closed = 1;
nodes = (
(197,443,l),
(105,484,l),
(105,387,l),
(197,347,l)
);
},
{
closed = 1;
nodes = (
(297,389,l),
(431,323,l),
(430,-81,l),
(130,-81,ls),
(78,-81,o),
(50,-109,o),
(50,-161,cs),
(50,-200,ls),
(50,-213,o),
(57,-220,o),
(70,-220,cs),
(119,-220,ls),
(132,-220,o),
(140,-213,o),
(140,-200,cs),
(140,-171,l),
(440,-171,ls),
(492,-171,o),
(520,-144,o),
(520,-92,cs),
(521,316,ls),
(521,355,o),
(504,379,o),
(468,397,cs),
(297,482,l)
);
},
{
closed = 1;
nodes = (
(217,340,l),
(217,339,l),
(216,20,ls),
(216,7,o),
(223,0,o),
(236,0,cs),
(286,0,ls),
(299,0,o),
(306,7,o),
(306,20,cs),
(307,384,l),
(307,477,l),
(272,495,ls),
(264,499,o),
(256,500,o),
(247,500,cs),
(237,500,ls),
(224,500,o),
(217,493,o),
(217,480,cs),
(217,435,l),
(217,436,l)
);
}
);
width = 541;
}
);
unicode = 2993;
},
{
glyphname = latamil;
lastChange = "2020-03-17 13:07:53 +0000";
layers = (
{
anchors = (
{
name = Anchor10;
pos = (457,-29);
},
{
name = Anchor12;
pos = (457,-78);
},
{
name = Anchor8;
pos = (457,-29);
}
);
layerId = "DB7E4487-AAA8-4905-9B27-B72FA6056893";
shapes = (
{
closed = 1;
nodes = (
(352,-12,o),
(407,60,o),
(407,175,cs),
(407,290,o),
(351,352,o),
(253,352,cs),
(192,352,o),
(151,318,o),
(106,272,c),
(132,179,l),
(163,218,o),
(189,237,o),
(212,237,cs),
(239,237,o),
(258,221,o),
(258,172,cs),
(258,124,o),
(246,107,o),
(219,107,cs),
(187,107,o),
(172,142,o),
(172,222,cs),
(172,377,o),
(233,457,o),
(327,457,cs),
(365,457,o),
(391,445,o),
(409,419,cs),
(432,385,o),
(444,311,o),
(448,234,cs),
(453,131,o),
(471,76,o),
(515,35,cs),
(550,3,o),
(592,-12,o),
(664,-12,cs),
(824,-12,o),
(882,101,o),
(882,263,cs),
(882,389,o),
(852,501,o),
(779,615,c),
(636,540,l),
(689,453,o),
(721,342,o),
(721,236,cs),
(721,144,o),
(707,112,o),
(666,112,cs),
(650,112,o),
(638,117,o),
(630,128,cs),
(615,147,o),
(610,175,o),
(608,255,cs),
(604,396,o),
(578,485,o),
(501,539,cs),
(463,566,o),
(411,581,o),
(345,581,cs),
(160,581,o),
(30,464,o),
(30,249,cs),
(30,77,o),
(99,-12,o),
(223,-12,cs)
);
}
);
width = 914;
}
);
unicode = 2994;
},
{
glyphname = llatamil;
lastChange = "2020-03-17 13:07:53 +0000";
layers = (
{
anchors = (
{
name = Anchor10;
pos = (479,-29);
},
{
name = Anchor12;
pos = (479,-78);
},
{
name = Anchor8;
pos = (479,-29);
}
);
layerId = "DB7E4487-AAA8-4905-9B27-B72FA6056893";
shapes = (
{
closed = 1;
nodes = (
(352,-12,o),
(407,60,o),
(407,175,cs),
(407,290,o),
(351,352,o),
(253,352,cs),
(192,352,o),
(151,319,o),
(106,272,c),
(132,179,l),
(163,218,o),
(189,237,o),
(212,237,cs),
(239,237,o),
(258,221,o),
(258,172,cs),
(258,124,o),
(246,107,o),
(219,107,cs),
(187,107,o),
(172,141,o),
(172,224,cs),
(172,385,o),
(227,457,o),
(319,457,cs),
(386,457,o),
(436,411,o),
(479,358,c),
(532,473,l),
(452,549,o),
(398,581,o),
(313,581,cs),
(168,581,o),
(30,479,o),
(30,249,cs),
(30,77,o),
(99,-12,o),
(223,-12,cs)
);
},
{
closed = 1;
nodes = (
(612,0,l),
(612,445,l),
(691,445,l),
(691,0,l),
(852,0,l),
(852,445,l),
(942,445,l),
(942,569,l),
(461,569,l),
(460,469,l),
(451,478,l),
(451,0,l)
);
}
);
width = 958;
}
);
unicode = 2995;
},
{
glyphname = lllatamil;
lastChange = "2025-02-12 13:56:23 +0000";
layers = (
{
guides = (
{
angle = 89.7838;
pos = (581,213);
},
{
pos = (290,-294);
}
);
layerId = "DB7E4487-AAA8-4905-9B27-B72FA6056893";
shapes = (
{
closed = 1;
nodes = (
(110,0,l),
(111,480,ls),
(111,493,o),
(104,500,o),
(91,500,cs),
(41,500,ls),
(28,500,o),
(21,493,o),
(21,480,cs),
(20,80,ls),
(20,28,o),
(48,0,o),
(100,0,cs)
);
},
{
closed = 1;
nodes = (
(353,485,l),
(321,496,ls),
(313,499,o),
(306,500,o),
(297,500,cs),
(283,500,ls),
(270,500,o),
(263,493,o),
(263,480,cs),
(263,110,l),
(353,110,l),
(353,391,l)
);
},
{
closed = 1;
nodes = (
(263,-71,ls),
(263,-123,o),
(291,-151,o),
(343,-151,cs),
(572,-151,ls),
(585,-151,o),
(592,-144,o),
(592,-131,cs),
(592,-81,ls),
(592,-68,o),
(585,-61,o),
(572,-61,cs),
(263,-61,l)
);
},
{
closed = 1;
nodes = (
(353,-20,l),
(263,-20,l),
(263,-64,l),
(353,-64,l)
);
},
{
closed = 1;
nodes = (
(85,-214,ls),
(85,-266,o),
(113,-294,o),
(165,-294,cs),
(414,-294,ls),
(466,-294,o),
(494,-266,o),
(494,-214,cs),
(494,-204,l),
(85,-204,l)
);
},
{
closed = 1;
nodes = (
(494,-171,l),
(405,-171,l),
(405,-209,l),
(494,-209,l)
);
},
{
closed = 1;
nodes = (
(174,-163,ls),
(174,-150,o),
(167,-143,o),
(154,-143,cs),
(105,-143,ls),
(92,-143,o),
(85,-150,o),
(85,-163,cs),
(85,-210,l),
(174,-210,l)
);
},
{
closed = 1;
nodes = (
(110,90,l),
(20,90,l),
(74,46,l),
(108,0,l),
(110,0,l)
);
},
{
closed = 1;
nodes = (
(265,90,l),
(107,90,l),
(107,0,l),
(265,0,l)
);
},
{
closed = 1;
nodes = (
(351,0,l),
(503,0,l),
(559,33,l),
(592,90,l),
(351,90,l)
);
},
{
closed = 1;
nodes = (
(345,394,l),
(503,341,l),
(502,0,l),
(512,0,ls),
(564,0,o),
(592,28,o),
(592,80,cs),
(593,345,ls),
(593,387,o),
(574,412,o),
(535,425,cs),
(345,488,l)
);
},
{
closed = 1;
nodes = (
(263,0,l),
(353,0,l),
(353,90,l),
(263,90,l)
);
}
);
width = 613;
}
);
unicode = 2996;
},
{
glyphname = vatamil;
lastChange = "2025-02-12 14:09:19 +0000";
layers = (
{
anchors = (
{
name = Anchor10;
pos = (299,-29);
},
{
name = Anchor12;
pos = (299,-78);
},
{
name = Anchor8;
pos = (299,-29);
}
);
guides = (
{
angle = 269.8854;
pos = (-23,250);
},
{
angle = 180;
pos = (180,90);
},
{
angle = 269.8495;
pos = (98,279);
},
{
angle = 180;
pos = (86,258);
},
{
angle = 180;
pos = (586,500);
}
);
hints = (
{
name = _corner.right;
origin = (5,5);
type = Corner;
}
);
layerId = "DB7E4487-AAA8-4905-9B27-B72FA6056893";
shapes = (
{
closed = 1;
nodes = (
(110,480,l),
(77,495,ls),
(69,499,o),
(61,500,o),
(52,500,cs),
(41,500,ls),
(28,500,o),
(21,493,o),
(21,480,cs),
(20,90,l),
(20,62,ls),
(20,18,o),
(52,0,o),
(80,0,cs),
(109,0,l),
(109,90,l),
(110,383,l)
);
},
{
closed = 1;
nodes = (
(549,90,l),
(326,90,ls),
(313,90,o),
(306,83,o),
(306,70,cs),
(306,20,ls),
(306,7,o),
(313,0,o),
(326,0,cs),
(549,0,l)
);
},
{
closed = 1;
nodes = (
(190,0,ls),
(241,0,o),
(270,29,o),
(270,80,cs),
(271,178,ls),
(271,230,o),
(243,258,o),
(191,258,cs),
(180,258,l),
(180,0,l)
);
},
{
closed = 1;
nodes = (
(130,168,l),
(191,168,l),
(191,258,l),
(130,258,l)
);
},
{
closed = 1;
nodes = (
(105,0,l),
(188,0,l),
(188,90,l),
(105,90,l)
);
},
{
closed = 1;
nodes = (
(540,0,l),
(550,0,ls),
(602,0,o),
(630,28,o),
(630,80,cs),
(631,480,ls),
(631,493,o),
(624,500,o),
(611,500,cs),
(561,500,l),
(541,500,l),
(540,90,l)
);
},
{
closed = 1;
nodes = (
(103,387,l),
(359,278,l),
(358,110,l),
(448,110,l),
(449,276,ls),
(449,315,o),
(414,341,o),
(377,358,cs),
(103,483,l)
);
}
);
width = 651;
}
);
unicode = 2997;
},
{
glyphname = shatamil;
lastChange = "2020-03-17 13:07:53 +0000";
layers = (
{
anchors = (
{
name = Anchor10;
pos = (511,-29);
},
{
name = Anchor12;
pos = (511,-78);
},
{
name = Anchor8;
pos = (511,-29);
}
);
layerId = "DB7E4487-AAA8-4905-9B27-B72FA6056893";
shapes = (
{
closed = 1;
nodes = (
(331,-12,o),
(378,2,o),
(411,28,cs),
(461,68,o),
(481,130,o),
(481,244,cs),
(481,445,l),
(537,445,l),
(537,247,ls),
(537,142,o),
(555,79,o),
(603,36,cs),
(637,5,o),
(688,-12,o),
(756,-12,cs),
(822,-12,o),
(870,2,o),
(904,30,cs),
(953,70,o),
(972,133,o),
(972,244,cs),
(972,569,l),
(320,569,l),
(320,241,ls),
(320,187,o),
(318,146,o),
(298,127,cs),
(290,119,o),
(280,115,o),
(266,115,cs),
(251,115,o),
(240,119,o),
(232,127,cs),
(211,147,o),
(211,189,o),
(211,238,cs),
(211,569,l),
(50,569,l),
(50,245,ls),
(50,140,o),
(68,74,o),
(121,31,cs),
(155,4,o),
(202,-12,o),
(268,-12,cs)
);
},
{
closed = 1;
nodes = (
(739,115,o),
(727,119,o),
(719,127,cs),
(700,145,o),
(698,181,o),
(698,241,cs),
(698,445,l),
(811,445,l),
(811,238,ls),
(811,184,o),
(809,145,o),
(789,127,cs),
(781,120,o),
(771,115,o),
(755,115,cs)
);
}
);
width = 1022;
}
);
unicode = 2998;
},
{
glyphname = ssatamil;
lastChange = "2020-03-17 13:07:53 +0000";
layers = (
{
anchors = (
{
name = Anchor10;
pos = (631,-29);
},
{
name = Anchor12;
pos = (574,-78);
},
{
name = Anchor8;
pos = (631,-29);
}
);
layerId = "DB7E4487-AAA8-4905-9B27-B72FA6056893";
shapes = (
{
closed = 1;
nodes = (
(712,581,o),
(656,484,o),
(656,389,cs),
(656,275,o),
(709,182,o),
(889,182,cs),
(931,182,ls),
(990,182,o),
(1036,199,o),
(1079,226,c),
(1078,210,o),
(1078,192,o),
(1078,178,cs),
(1078,124,l),
(708,124,l),
(704,0,l),
(1221,0,l),
(1221,362,l),
(1079,362,l),
(1046,325,o),
(1003,298,o),
(941,298,cs),
(882,298,ls),
(818,298,o),
(798,333,o),
(798,388,cs),
(798,436,o),
(813,459,o),
(832,459,cs),
(853,459,o),
(857,442,o),
(857,413,cs),
(857,385,o),
(852,353,o),
(843,310,cs),
(794,65,l),
(792,40,l),
(727,-254,l),
(886,-284,l),
(992,231,l),
(995,272,l),
(1006,318,o),
(1018,363,o),
(1018,416,cs),
(1018,501,o),
(973,581,o),
(840,581,cs)
);
},
{
closed = 1;
nodes = (
(352,-12,o),
(407,60,o),
(407,175,cs),
(407,291,o),
(351,352,o),
(253,352,cs),
(192,352,o),
(151,319,o),
(106,272,c),
(132,179,l),
(163,218,o),
(189,237,o),
(212,237,cs),
(233,237,o),
(258,221,o),
(258,172,cs),
(258,124,o),
(246,107,o),
(219,107,cs),
(187,107,o),
(172,141,o),
(172,224,cs),
(172,384,o),
(228,457,o),
(322,457,cs),
(399,457,o),
(459,398,o),
(459,265,cs),
(459,199,o),
(445,131,o),
(431,94,c),
(446,0,l),
(744,0,l),
(744,124,l),
(593,124,l),
(610,172,o),
(620,236,o),
(620,288,cs),
(620,448,o),
(531,581,o),
(328,581,cs),
(166,581,o),
(30,477,o),
(30,249,cs),
(30,77,o),
(100,-12,o),
(222,-12,cs)
);
}
);
width = 1262;
}
);
unicode = 2999;
},
{
glyphname = satamil;
lastChange = "2020-03-17 13:07:53 +0000";
layers = (
{
anchors = (
{
name = Anchor10;
pos = (583,-29);
},
{
name = Anchor12;
pos = (583,-78);
},
{
name = Anchor8;
pos = (583,-29);
}
);
layerId = "DB7E4487-AAA8-4905-9B27-B72FA6056893";
shapes = (
{
closed = 1;
nodes = (
(352,-12,o),
(407,60,o),
(407,175,cs),
(407,290,o),
(351,352,o),
(253,352,cs),
(192,352,o),
(151,319,o),
(106,272,c),
(132,179,l),
(163,218,o),
(189,237,o),
(212,237,cs),
(239,237,o),
(258,221,o),
(258,172,cs),
(258,124,o),
(246,107,o),
(219,107,cs),
(187,107,o),
(172,141,o),
(172,224,cs),
(172,385,o),
(227,457,o),
(321,457,cs),
(361,457,o),
(390,443,o),
(411,420,cs),
(444,383,o),
(456,328,o),
(456,227,cs),
(456,0,l),
(617,0,l),
(617,355,ls),
(617,408,o),
(620,431,o),
(632,445,cs),
(638,453,o),
(648,457,o),
(660,457,cs),
(672,457,o),
(681,453,o),
(687,445,cs),
(700,428,o),
(700,402,o),
(700,357,cs),
(700,258,ls),
(700,133,o),
(723,76,o),
(767,35,cs),
(802,3,o),
(844,-12,o),
(916,-12,cs),
(1076,-12,o),
(1134,101,o),
(1134,262,cs),
(1134,389,o),
(1104,501,o),
(1031,615,c),
(888,540,l),
(941,453,o),
(973,342,o),
(973,237,cs),
(973,144,o),
(959,112,o),
(918,112,cs),
(903,112,o),
(890,117,o),
(882,128,cs),
(867,147,o),
(860,183,o),
(860,248,cs),
(860,338,ls),
(860,440,o),
(848,496,o),
(806,538,cs),
(780,565,o),
(739,581,o),
(686,581,cs),
(592,581,o),
(522,525,o),
(489,426,c),
(550,427,l),
(493,533,o),
(429,581,o),
(316,581,cs),
(168,581,o),
(30,479,o),
(30,249,cs),
(30,77,o),
(99,-12,o),
(223,-12,cs)
);
}
);
width = 1166;
}
);
unicode = 3000;
},
{
glyphname = hatamil;
lastChange = "2020-03-17 13:07:53 +0000";
layers = (
{
anchors = (
{
name = Anchor10;
pos = (729,-29);
},
{
name = Anchor12;
pos = (729,-217);
},
{
name = Anchor8;
pos = (729,-29);
}
);
layerId = "DB7E4487-AAA8-4905-9B27-B72FA6056893";
shapes = (
{
closed = 1;
nodes = (
(1098,581,o),
(1041,533,o),
(997,445,c),
(1056,439,l),
(1030,528,o),
(978,581,o),
(885,581,cs),
(829,581,o),
(796,568,o),
(766,542,cs),
(719,501,o),
(700,449,o),
(700,329,cs),
(700,0,l),
(861,0,l),
(861,354,ls),
(861,410,o),
(866,431,o),
(878,445,cs),
(885,453,o),
(895,457,o),
(906,457,cs),
(917,457,o),
(926,453,o),
(933,445,cs),
(946,429,o),
(948,408,o),
(948,355,cs),
(948,0,l),
(1109,0,l),
(1109,335,ls),
(1109,389,o),
(1117,418,o),
(1132,437,cs),
(1143,451,o),
(1158,457,o),
(1177,457,cs),
(1232,457,o),
(1261,391,o),
(1261,236,cs),
(1261,-16,o),
(1196,-50,o),
(1013,-50,cs),
(287,-50,ls),
(181,-50,o),
(134,-61,o),
(96,-85,cs),
(51,-114,o),
(29,-161,o),
(29,-233,cs),
(29,-262,o),
(32,-291,o),
(36,-322,c),
(194,-313,l),
(192,-300,o),
(190,-279,o),
(190,-264,cs),
(190,-231,o),
(199,-208,o),
(217,-194,cs),
(235,-180,o),
(254,-174,o),
(316,-174,cs),
(1041,-174,ls),
(1204,-174,o),
(1281,-142,o),
(1340,-75,cs),
(1399,-8,o),
(1425,96,o),
(1425,247,cs),
(1425,459,o),
(1343,581,o),
(1197,581,cs)
);
},
{
closed = 1;
nodes = (
(352,-12,o),
(407,60,o),
(407,175,cs),
(407,291,o),
(351,352,o),
(253,352,cs),
(192,352,o),
(151,319,o),
(106,272,c),
(132,179,l),
(163,218,o),
(189,237,o),
(212,237,cs),
(233,237,o),
(258,221,o),
(258,172,cs),
(258,124,o),
(246,107,o),
(219,107,cs),
(187,107,o),
(172,141,o),
(172,224,cs),
(172,384,o),
(228,457,o),
(322,457,cs),
(399,457,o),
(459,398,o),
(459,265,cs),
(459,199,o),
(445,131,o),
(431,94,c),
(446,0,l),
(764,0,l),
(741,124,l),
(593,124,l),
(610,172,o),
(620,236,o),
(620,288,cs),
(620,448,o),
(531,581,o),
(328,581,cs),
(166,581,o),
(30,477,o),
(30,249,cs),
(30,77,o),
(100,-12,o),
(222,-12,cs)
);
}
);
width = 1458;
}
);
unicode = 3001;
},
{
category = Mark;
glyphname = aavowelsigntamil;
lastChange = "2025-02-12 13:04:39 +0000";
layers = (
{
layerId = "DB7E4487-AAA8-4905-9B27-B72FA6056893";
shapes = (
{
closed = 1;
nodes = (
(111,480,l),
(78,495,ls),
(70,499,o),
(62,500,o),
(53,500,cs),
(41,500,ls),
(28,500,o),
(21,493,o),
(21,480,cs),
(20,20,ls),
(20,7,o),
(27,0,o),
(40,0,cs),
(90,0,ls),
(103,0,o),
(110,7,o),
(110,20,cs),
(111,384,l)
);
},
{
closed = 1;
nodes = (
(271,0,ls),
(284,0,o),
(291,7,o),
(291,20,cs),
(292,380,l),
(202,380,l),
(201,20,ls),
(201,7,o),
(208,0,o),
(221,0,cs)
);
},
{
closed = 1;
nodes = (
(131,376,l),
(335,285,ls),
(346,280,o),
(356,283,o),
(361,295,cs),
(381,339,ls),
(386,351,o),
(383,360,o),
(371,365,cs),
(131,472,l)
);
}
);
width = 403;
}
);
subCategory = "Spacing Combining";
unicode = 3006;
},
{
category = Mark;
glyphname = ivowelsigntamil;
lastChange = "2025-02-11 07:27:22 +0000";
layers = (
{
layerId = "DB7E4487-AAA8-4905-9B27-B72FA6056893";
shapes = (
{
closed = 1;
nodes = (
(111,2,ls),
(124,2,o),
(131,9,o),
(131,22,cs),
(132,533,ls),
(132,572,o),
(115,598,o),
(79,614,cs),
(-213,744,ls),
(-221,748,o),
(-229,749,o),
(-238,749,cs),
(-250,749,ls),
(-263,749,o),
(-270,742,o),
(-270,729,cs),
(-271,415,l),
(-181,415,l),
(-181,634,l),
(42,535,l),
(41,22,ls),
(41,9,o),
(48,2,o),
(61,2,cs)
);
}
);
width = 267;
}
);
subCategory = "Spacing Combining";
unicode = 3007;
},
{
category = Mark;
glyphname = iivowelsigntamil;
lastChange = "2020-03-17 13:07:53 +0000";
layers = (
{
layerId = "DB7E4487-AAA8-4905-9B27-B72FA6056893";
shapes = (
{
closed = 1;
nodes = (
(-353,851,o),
(-424,747,o),
(-424,646,cs),
(-424,586,o),
(-412,536,o),
(-392,497,c),
(-266,536,l),
(-281,562,o),
(-291,591,o),
(-291,626,cs),
(-291,678,o),
(-274,711,o),
(-245,732,c),
(-227,747,o),
(-195,750,o),
(-163,750,cs),
(-128,750,o),
(-113,734,o),
(-113,707,cs),
(-113,682,o),
(-123,669,o),
(-140,669,cs),
(-161,669,o),
(-170,682,o),
(-170,706,cs),
(-170,747,o),
(-148,771,o),
(-112,808,c),
(-178,842,l),
(-228,795,o),
(-263,747,o),
(-263,697,cs),
(-263,633,o),
(-230,582,o),
(-132,582,cs),
(-42,582,o),
(6,626,o),
(6,707,cs),
(6,791,o),
(-53,851,o),
(-185,851,cs)
);
}
);
width = 0;
}
);
subCategory = Nonspacing;
unicode = 3008;
},
{
category = Mark;
glyphname = uvowelsigntamil;
lastChange = "2025-02-11 06:57:30 +0000";
layers = (
{
layerId = "DB7E4487-AAA8-4905-9B27-B72FA6056893";
shapes = (
{
closed = 1;
nodes = (
(97,-249,o),
(107,-249,o),
(124,-249,c),
(125,499,l),
(117,499,o),
(59,499,o),
(35,499,c),
(34,27,o),
(34,-249,o),
(34,-249,c)
);
},
{
closed = 1;
nodes = (
(43,-339,ls),
(95,-339,o),
(124,-311,o),
(124,-259,cs),
(124,-249,l),
(-510,-249,l),
(-510,-162,l),
(-600,-162,l),
(-601,-339,l)
);
},
{
closed = 1;
nodes = (
(-49,-254,o),
(-39,-254,o),
(-22,-254,c),
(-21,-56,l),
(-29,-56,o),
(-87,-56,o),
(-111,-56,c),
(-112,-528,o),
(-112,-254,o),
(-112,-254,c)
);
}
);
width = 144;
}
);
subCategory = "Spacing Combining";
unicode = 3009;
},
{
category = Mark;
glyphname = uuvowelsigntamil;
lastChange = "2020-03-17 13:07:53 +0000";
layers = (
{
layerId = "DB7E4487-AAA8-4905-9B27-B72FA6056893";
shapes = (
{
closed = 1;
nodes = (
(552,-12,o),
(667,129,o),
(667,409,cs),
(667,609,o),
(584,784,o),
(361,784,cs),
(197,784,o),
(99,680,o),
(68,535,c),
(68,504,l),
(64,477,o),
(61,450,o),
(61,422,cs),
(61,300,o),
(115,196,o),
(256,196,cs),
(390,196,o),
(428,286,o),
(428,376,cs),
(428,445,o),
(401,494,o),
(356,526,cs),
(315,555,o),
(258,569,o),
(158,569,cs),
(-194,569,l),
(-194,445,l),
(185,445,ls),
(230,445,o),
(249,437,o),
(263,424,cs),
(277,411,o),
(285,394,o),
(285,367,cs),
(285,329,o),
(270,316,o),
(252,316,cs),
(219,316,o),
(204,347,o),
(204,402,cs),
(204,437,o),
(207,474,o),
(214,509,c),
(215,535,l),
(234,606,o),
(279,658,o),
(353,658,cs),
(448,658,o),
(506,577,o),
(506,405,cs),
(506,206,o),
(451,115,o),
(311,115,cs),
(218,115,o),
(155,143,o),
(103,180,c),
(41,67,l),
(122,13,o),
(218,-12,o),
(315,-12,cs)
);
}
);
width = 700;
}
);
subCategory = "Spacing Combining";
unicode = 3010;
},
{
category = Letter;
glyphname = evowelsigntamil;
lastChange = "2025-02-12 13:02:32 +0000";
layers = (
{
layerId = "DB7E4487-AAA8-4905-9B27-B72FA6056893";
shapes = (
{
closed = 1;
nodes = (
(101,624,l),
(68,639,ls),
(60,643,o),
(52,644,o),
(43,644,cs),
(31,644,ls),
(18,644,o),
(11,637,o),
(11,624,cs),
(10,80,ls),
(10,28,o),
(38,0,o),
(90,0,cs),
(100,0,l),
(101,527,l)
);
},
{
closed = 1;
nodes = (
(181,0,ls),
(232,0,o),
(261,29,o),
(261,80,cs),
(262,178,ls),
(262,230,o),
(234,258,o),
(182,258,cs),
(171,258,l),
(171,0,l)
);
},
{
closed = 1;
nodes = (
(121,168,l),
(178,168,l),
(178,258,l),
(121,258,l)
);
},
{
closed = 1;
nodes = (
(85,0,l),
(175,0,l),
(175,90,l),
(85,90,l)
);
},
{
closed = 1;
nodes = (
(121,519,l),
(374,404,l),
(373,20,ls),
(373,7,o),
(380,0,o),
(393,0,cs),
(443,0,ls),
(456,0,o),
(463,7,o),
(463,20,cs),
(464,402,ls),
(464,441,o),
(448,467,o),
(411,484,cs),
(121,616,l)
);
}
);
width = 474;
}
);
subCategory = Other;
unicode = 3014;
},
{
category = Letter;
glyphname = eevowelsigntamil;
lastChange = "2022-02-22 17:00:18 +0000";
layers = (
{
layerId = "DB7E4487-AAA8-4905-9B27-B72FA6056893";
shapes = (
{
closed = 1;
nodes = (
(548,-12,o),
(611,84,o),
(611,197,cs),
(611,295,o),
(563,384,o),
(430,384,cs),
(310,384,o),
(258,309,o),
(258,219,cs),
(258,162,o),
(275,120,o),
(290,87,c),
(416,80,l),
(399,111,o),
(383,142,o),
(383,195,cs),
(383,242,o),
(399,266,o),
(425,266,cs),
(452,266,o),
(463,236,o),
(463,194,cs),
(463,160,o),
(454,105,o),
(395,105,cs),
(395,105,o),
(377,106,o),
(359,109,c),
(280,109,o),
(191,191,o),
(191,419,cs),
(191,622,o),
(282,724,o),
(350,728,c),
(379,735,o),
(389,734,o),
(402,734,cs),
(462,734,o),
(471,679,o),
(471,645,cs),
(471,602,o),
(459,576,o),
(434,576,cs),
(407,576,o),
(391,597,o),
(391,644,cs),
(391,699,o),
(407,728,o),
(424,759,c),
(298,752,l),
(282,720,o),
(266,677,o),
(266,625,cs),
(266,528,o),
(317,458,o),
(439,458,cs),
(569,458,o),
(619,544,o),
(619,642,cs),
(619,776,o),
(537,851,o),
(390,851,cs),
(187,851,o),
(36,698,o),
(36,418,cs),
(36,124,o),
(182,-12,o),
(380,-12,cs)
);
}
);
width = 640;
}
);
subCategory = Other;
unicode = 3015;
},
{
category = Letter;
glyphname = aivowelsigntamil;
lastChange = "2025-02-12 13:39:27 +0000";
layers = (
{
background = {
hints = (
{
name = _corner.right;
type = Corner;
},
{
name = _corner.right;
type = Corner;
},
{
name = _corner.right;
type = Corner;
},
{
name = _corner.right;
origin = (0,9);
type = Corner;
}
);
shapes = (
{
closed = 1;
nodes = (
(174,0,l),
(205,0,l),
(296,90,l),
(296,168,ls),
(296,173,o),
(212,258,o),
(207,258,c),
(206,258,l),
(205,90,l),
(174,90,l),
(175,473,l),
(130,500,l),
(86,500,l),
(85,90,l)
);
},
{
closed = 1;
nodes = (
(94,420,l),
(497,238,l),
(533,318,l),
(400,378,o),
(263,440,o),
(130,500,c)
);
}
);
};
hints = (
{
name = _corner.right;
origin = (0,26);
type = Corner;
}
);
layerId = "DB7E4487-AAA8-4905-9B27-B72FA6056893";
shapes = (
{
closed = 1;
nodes = (
(318,382,l),
(78,494,ls),
(70,498,o),
(62,500,o),
(53,500,cs),
(41,500,ls),
(28,500,o),
(21,493,o),
(21,480,cs),
(20,90,l),
(20,62,ls),
(20,18,o),
(52,0,o),
(80,0,cs),
(208,0,ls),
(252,0,o),
(271,34,o),
(271,60,cs),
(271,195,ls),
(271,239,o),
(237,258,o),
(211,258,cs),
(130,258,l),
(130,168,l),
(180,168,l),
(180,90,l),
(109,90,l),
(109,168,l),
(110,168,l),
(110,377,l),
(318,283,l)
);
},
{
closed = 1;
nodes = (
(338,271,l),
(337,80,ls),
(337,30,o),
(364,0,o),
(411,0,cs),
(527,0,l),
(527,1,l),
(569,6,o),
(592,33,o),
(592,80,cs),
(593,197,ls),
(593,237,o),
(577,262,o),
(542,280,cs),
(449,327,l),
(449,227,l),
(503,199,l),
(502,90,l),
(428,90,l),
(429,233,l),
(429,377,l),
(682,260,l),
(680,18,ls),
(680,5,o),
(687,-2,o),
(700,-2,cs),
(750,-2,ls),
(763,-2,o),
(770,5,o),
(770,18,cs),
(772,257,l),
(772,258,ls),
(772,298,o),
(756,325,o),
(721,341,cs),
(396,494,ls),
(388,498,o),
(380,500,o),
(371,500,cs),
(359,500,ls),
(346,500,o),
(339,493,o),
(339,480,cs),
(338,372,l)
);
}
);
width = 792;
}
);
subCategory = Other;
unicode = 3016;
},
{
category = Mark;
glyphname = viramatamil;
lastChange = "2025-02-09 10:34:39 +0000";
layers = (
{
layerId = "DB7E4487-AAA8-4905-9B27-B72FA6056893";
shapes = (
{
closed = 1;
nodes = (
(-235,656,l),
(-234,752,l),
(-324,752,l),
(-325,656,l)
);
}
);
width = 0;
}
);
subCategory = Nonspacing;
unicode = 3021;
},
{
glyphname = ohmsigntamil;
lastChange = "2020-03-17 13:07:53 +0000";
layers = (
{
layerId = "DB7E4487-AAA8-4905-9B27-B72FA6056893";
shapes = (
{
closed = 1;
nodes = (
(380,622,o),
(255,602,o),
(157,539,cs),
(81,491,o),
(29,418,o),
(29,306,cs),
(29,174,o),
(90,89,o),
(209,89,cs),
(310,89,o),
(377,138,o),
(377,271,cs),
(377,378,o),
(312,431,o),
(246,431,cs),
(206,431,o),
(166,421,o),
(121,387,c),
(133,292,l),
(160,323,o),
(179,335,o),
(205,335,cs),
(231,335,o),
(246,314,o),
(246,269,cs),
(246,224,o),
(234,207,o),
(207,207,cs),
(172,207,o),
(161,249,o),
(161,295,cs),
(161,328,o),
(170,366,o),
(175,383,c),
(252,468,o),
(391,492,o),
(527,492,cs),
(784,492,o),
(869,402,o),
(869,272,cs),
(869,208,o),
(851,197,o),
(830,197,cs),
(801,197,o),
(789,224,o),
(789,274,cs),
(789,303,o),
(794,332,o),
(805,367,c),
(675,435,l),
(575,377,o),
(504,298,o),
(504,171,cs),
(504,69,o),
(556,-25,o),
(682,-66,c),
(715,-78,o),
(764,-94,o),
(867,-94,cs),
(950,-94,l),
(950,29,l),
(872,29,ls),
(778,29,o),
(734,42,o),
(698,65,c),
(656,93,o),
(637,135,o),
(637,188,cs),
(637,233,o),
(649,274,o),
(690,315,c),
(685,318,l),
(673,288,o),
(667,265,o),
(667,231,cs),
(667,138,o),
(715,78,o),
(844,78,cs),
(965,78,o),
(1028,165,o),
(1028,283,cs),
(1028,393,o),
(981,473,o),
(910,525,cs),
(808,600,o),
(665,622,o),
(528,622,cs)
);
},
{
closed = 1;
nodes = (
(48,-238,o),
(158,-321,o),
(344,-321,cs),
(364,-321,ls),
(529,-321,o),
(699,-279,o),
(787,-66,c),
(795,-47,l),
(643,-12,l),
(574,-165,o),
(484,-197,o),
(352,-197,cs),
(243,-197,o),
(182,-167,o),
(182,-89,cs),
(182,-54,o),
(193,-21,o),
(209,7,c),
(95,65,l),
(61,9,o),
(48,-42,o),
(48,-101,cs)
);
},
{
closed = 1;
nodes = (
(400,98,o),
(379,90,o),
(365,75,cs),
(349,59,o),
(341,34,o),
(341,-2,cs),
(341,-82,l),
(305,-82,l),
(305,73,l),
(226,73,l),
(226,-143,l),
(407,-143,ls),
(445,-143,o),
(469,-138,o),
(488,-125,cs),
(514,-107,o),
(531,-77,o),
(531,-22,cs),
(531,10,o),
(522,39,o),
(503,63,cs),
(486,84,o),
(461,98,o),
(427,98,cs)
);
},
{
closed = 1;
nodes = (
(447,38,o),
(456,14,o),
(456,-23,cs),
(456,-59,o),
(449,-82,o),
(428,-82,cs),
(418,-82,l),
(418,16,ls),
(418,33,o),
(424,38,o),
(433,38,cs)
);
},
{
closed = 1;
nodes = (
(457,117,o),
(481,135,o),
(481,175,cs),
(481,214,o),
(458,231,o),
(432,231,cs),
(407,231,o),
(386,214,o),
(386,175,cs),
(386,135,o),
(405,117,o),
(432,117,cs)
);
}
);
width = 1057;
}
);
unicode = 3024;
},
{
glyphname = zerotamil;
lastChange = "2020-03-17 13:07:53 +0000";
layers = (
{
anchors = (
{
name = Anchor10;
pos = (273,-29);
}
);
layerId = "DB7E4487-AAA8-4905-9B27-B72FA6056893";
shapes = (
{
closed = 1;
nodes = (
(415,-12,o),
(513,85,o),
(513,285,cs),
(513,484,o),
(419,581,o),
(275,581,cs),
(131,581,o),
(34,484,o),
(34,285,cs),
(34,85,o),
(127,-12,o),
(271,-12,cs)
);
},
{
closed = 1;
nodes = (
(328,455,o),
(348,399,o),
(348,285,cs),
(348,171,o),
(329,114,o),
(274,114,cs),
(219,114,o),
(199,171,o),
(199,285,cs),
(199,399,o),
(218,455,o),
(273,455,cs)
);
}
);
width = 547;
}
);
unicode = 3046;
},
{
glyphname = twotamil;
lastChange = "2020-03-17 13:07:53 +0000";
layers = (
{
anchors = (
{
name = Anchor10;
pos = (409,-29);
}
);
layerId = "DB7E4487-AAA8-4905-9B27-B72FA6056893";
shapes = (
{
closed = 1;
nodes = (
(110,581,o),
(32,492,o),
(32,393,cs),
(32,298,o),
(83,238,o),
(139,186,c),
(275,222,l),
(224,269,o),
(184,314,o),
(184,377,cs),
(184,421,o),
(215,455,o),
(284,455,cs),
(342,455,o),
(383,429,o),
(383,371,cs),
(383,305,o),
(346,279,o),
(244,267,cs),
(169,258,ls),
(60,245,o),
(24,189,o),
(24,130,cs),
(24,64,o),
(55,0,o),
(206,0,cs),
(802,0,l),
(802,124,l),
(200,124,ls),
(180,124,o),
(177,130,o),
(177,138,cs),
(177,146,o),
(183,150,o),
(206,153,cs),
(275,161,ls),
(398,175,o),
(544,216,o),
(544,374,cs),
(544,473,o),
(476,581,o),
(280,581,cs)
);
}
);
width = 818;
}
);
unicode = 3048;
},
{
glyphname = threetamil;
lastChange = "2020-03-17 13:07:53 +0000";
layers = (
{
anchors = (
{
name = Anchor10;
pos = (459,-29);
}
);
layerId = "DB7E4487-AAA8-4905-9B27-B72FA6056893";
shapes = (
{
closed = 1;
nodes = (
(214,0,l),
(214,445,l),
(292,445,l),
(292,172,l),
(453,172,l),
(453,232,l),
(465,240,o),
(477,246,o),
(493,246,cs),
(519,246,o),
(531,227,o),
(531,203,cs),
(531,166,o),
(519,143,o),
(506,124,c),
(292,124,l),
(292,0,l),
(902,0,l),
(902,124,l),
(668,124,l),
(681,146,o),
(691,183,o),
(691,223,cs),
(691,294,o),
(646,370,o),
(537,370,cs),
(504,370,o),
(473,361,o),
(453,350,c),
(453,445,l),
(596,445,l),
(596,569,l),
(53,569,l),
(53,0,l)
);
}
);
width = 918;
}
);
unicode = 3049;
},
{
glyphname = fourtamil;
lastChange = "2020-03-17 13:07:53 +0000";
layers = (
{
anchors = (
{
name = Anchor10;
pos = (438,-29);
}
);
layerId = "DB7E4487-AAA8-4905-9B27-B72FA6056893";
shapes = (
{
closed = 1;
nodes = (
(335,-12,o),
(396,10,o),
(433,52,cs),
(473,96,o),
(488,151,o),
(488,253,cs),
(488,445,l),
(613,445,l),
(613,569,l),
(95,569,l),
(95,286,l),
(240,302,l),
(240,445,l),
(331,445,l),
(331,218,ls),
(331,139,o),
(298,112,o),
(246,112,cs),
(210,112,o),
(183,129,o),
(183,170,cs),
(183,191,o),
(189,206,o),
(201,217,cs),
(217,232,o),
(240,237,o),
(291,237,cs),
(630,237,l),
(630,352,l),
(313,352,ls),
(121,352,o),
(28,278,o),
(28,167,cs),
(28,52,o),
(102,-12,o),
(248,-12,cs)
);
},
{
closed = 1;
nodes = (
(833,237,l),
(833,569,l),
(672,569,l),
(672,352,l),
(586,352,l),
(586,237,l)
);
}
);
width = 877;
}
);
unicode = 3050;
},
{
glyphname = fivetamil;
lastChange = "2020-03-17 13:07:53 +0000";
layers = (
{
anchors = (
{
name = Anchor10;
pos = (472,-29);
}
);
layerId = "DB7E4487-AAA8-4905-9B27-B72FA6056893";
shapes = (
{
closed = 1;
nodes = (
(497,-321,ls),
(754,-321,o),
(916,-189,o),
(916,93,cs),
(916,255,o),
(854,346,o),
(747,346,cs),
(710,346,o),
(673,336,o),
(643,315,c),
(655,206,l),
(669,216,o),
(684,222,o),
(701,222,cs),
(733,222,o),
(756,190,o),
(756,93,cs),
(756,-95,o),
(669,-193,o),
(495,-193,cs),
(489,-193,ls),
(308,-193,o),
(190,-86,o),
(190,231,cs),
(190,250,ls),
(190,603,o),
(320,724,o),
(527,724,cs),
(621,724,o),
(713,697,o),
(812,627,c),
(874,750,l),
(762,817,o),
(666,851,o),
(530,851,cs),
(190,851,o),
(40,597,o),
(40,264,cs),
(40,222,ls),
(40,-117,o),
(185,-321,o),
(487,-321,cs)
);
},
{
closed = 1;
nodes = (
(437,0,l),
(437,445,l),
(516,445,l),
(516,0,l),
(677,0,l),
(677,445,l),
(767,445,l),
(767,569,l),
(276,569,l),
(276,0,l)
);
}
);
width = 945;
}
);
unicode = 3051;
},
{
glyphname = sixtamil;
lastChange = "2020-03-17 13:07:53 +0000";
layers = (
{
anchors = (
{
name = Anchor10;
pos = (470,-29);
}
);
layerId = "DB7E4487-AAA8-4905-9B27-B72FA6056893";
shapes = (
{
closed = 1;
nodes = (
(335,-12,o),
(396,10,o),
(433,52,cs),
(473,96,o),
(488,151,o),
(488,253,cs),
(488,445,l),
(630,445,l),
(630,569,l),
(95,569,l),
(95,286,l),
(240,302,l),
(240,445,l),
(331,445,l),
(331,218,ls),
(331,139,o),
(298,112,o),
(246,112,cs),
(210,112,o),
(183,129,o),
(183,170,cs),
(183,191,o),
(189,206,o),
(201,217,cs),
(217,232,o),
(240,237,o),
(291,237,cs),
(916,237,l),
(916,352,l),
(313,352,ls),
(121,352,o),
(28,278,o),
(28,167,cs),
(28,52,o),
(102,-12,o),
(248,-12,cs)
);
},
{
closed = 1;
nodes = (
(670,0,l),
(670,267,l),
(526,275,l),
(526,0,l)
);
},
{
closed = 1;
nodes = (
(860,0,l),
(860,267,l),
(716,275,l),
(716,0,l)
);
}
);
width = 941;
}
);
unicode = 3052;
},
{
glyphname = eighttamil;
lastChange = "2020-03-17 13:07:53 +0000";
layers = (
{
anchors = (
{
name = Anchor10;
pos = (493,-29);
}
);
layerId = "DB7E4487-AAA8-4905-9B27-B72FA6056893";
shapes = (
{
closed = 1;
nodes = (
(323,-146,l),
(538,-146,o),
(661,-49,o),
(706,109,c),
(715,164,l),
(718,188,o),
(720,215,o),
(720,242,cs),
(720,428,o),
(626,581,o),
(437,581,cs),
(289,581,o),
(204,499,o),
(204,372,cs),
(204,256,o),
(265,184,o),
(350,108,c),
(448,178,l),
(397,228,o),
(355,288,o),
(355,357,cs),
(355,427,o),
(395,455,o),
(444,455,cs),
(533,455,o),
(566,358,o),
(566,242,cs),
(566,218,o),
(565,190,o),
(562,168,c),
(553,119,l),
(522,35,o),
(454,-22,o),
(315,-22,cs),
(311,-22,ls),
(222,-22,o),
(179,6,o),
(179,48,cs),
(179,58,o),
(183,66,o),
(190,71,cs),
(198,77,o),
(207,78,o),
(235,78,cs),
(793,78,l),
(798,200,l),
(229,200,ls),
(157,200,o),
(116,195,o),
(81,175,cs),
(44,154,o),
(23,119,o),
(23,67,cs),
(23,-56,o),
(120,-146,o),
(314,-146,cs)
);
},
{
closed = 1;
nodes = (
(934,-154,l),
(934,569,l),
(773,569,l),
(773,-154,l)
);
}
);
width = 987;
}
);
unicode = 3054;
},
{
glyphname = ninetamil;
lastChange = "2020-03-17 13:07:53 +0000";
layers = (
{
anchors = (
{
name = Anchor10;
pos = (554,-29);
}
);
layerId = "DB7E4487-AAA8-4905-9B27-B72FA6056893";
shapes = (
{
closed = 1;
nodes = (
(335,-12,o),
(396,10,o),
(433,52,cs),
(473,96,o),
(488,151,o),
(488,253,cs),
(488,445,l),
(630,445,l),
(630,569,l),
(95,569,l),
(95,286,l),
(240,302,l),
(240,445,l),
(331,445,l),
(331,218,ls),
(331,139,o),
(298,112,o),
(246,112,cs),
(210,112,o),
(183,129,o),
(183,170,cs),
(183,191,o),
(189,206,o),
(201,217,cs),
(217,232,o),
(240,237,o),
(291,237,cs),
(528,237,l),
(528,352,l),
(313,352,ls),
(121,352,o),
(28,278,o),
(28,167,cs),
(28,52,o),
(102,-12,o),
(248,-12,cs)
);
},
{
closed = 1;
nodes = (
(822,-12,o),
(872,55,o),
(874,159,cs),
(876,274,o),
(813,329,o),
(696,347,c),
(664,350,ls),
(658,351,o),
(634,352,o),
(605,352,cs),
(510,352,l),
(509,237,l),
(667,237,ls),
(731,237,o),
(741,186,o),
(741,154,cs),
(741,117,o),
(730,103,o),
(710,103,cs),
(685,103,o),
(676,133,o),
(676,169,cs),
(676,222,o),
(689,251,o),
(697,273,c),
(703,293,l),
(722,329,o),
(755,360,o),
(810,360,cs),
(890,360,o),
(927,294,o),
(927,220,cs),
(927,149,o),
(904,92,o),
(878,51,c),
(1009,-12,l),
(1048,60,o),
(1079,143,o),
(1079,244,cs),
(1079,331,o),
(1039,478,o),
(823,478,cs),
(688,478,o),
(598,402,o),
(561,310,c),
(555,283,l),
(545,248,o),
(539,212,o),
(539,181,cs),
(539,51,o),
(600,-12,o),
(710,-12,cs)
);
}
);
width = 1109;
}
);
unicode = 3055;
},
{
glyphname = tentamil;
lastChange = "2020-03-17 13:07:53 +0000";
layers = (
{
layerId = "DB7E4487-AAA8-4905-9B27-B72FA6056893";
shapes = (
{
closed = 1;
nodes = (
(330,-12,o),
(382,41,o),
(408,130,c),
(349,124,l),
(393,36,o),
(449,-12,o),
(546,-12,cs),
(725,-12,o),
(774,145,o),
(774,352,cs),
(774,402,ls),
(774,576,o),
(754,702,o),
(678,780,cs),
(634,825,o),
(571,851,o),
(490,851,cs),
(413,851,o),
(354,833,o),
(299,808,c),
(339,694,l),
(381,716,o),
(423,727,o),
(463,727,cs),
(567,727,o),
(612,640,o),
(612,378,cs),
(612,172,o),
(580,112,o),
(526,112,cs),
(510,112,o),
(495,118,o),
(484,132,cs),
(469,151,o),
(461,180,o),
(461,234,cs),
(461,569,l),
(300,569,l),
(300,214,ls),
(300,161,o),
(298,140,o),
(285,124,cs),
(278,116,o),
(269,112,o),
(258,112,cs),
(247,112,o),
(237,116,o),
(230,124,cs),
(218,138,o),
(213,159,o),
(213,215,cs),
(213,569,l),
(52,569,l),
(52,240,ls),
(52,120,o),
(71,68,o),
(118,27,cs),
(148,1,o),
(181,-12,o),
(237,-12,cs)
);
}
);
width = 814;
}
);
unicode = 3056;
},
{
glyphname = hundredtamil;
lastChange = "2020-03-17 13:07:53 +0000";
layers = (
{
layerId = "DB7E4487-AAA8-4905-9B27-B72FA6056893";
shapes = (
{
closed = 1;
nodes = (
(453,0,l),
(453,445,l),
(532,445,l),
(532,0,l),
(693,0,l),
(693,445,l),
(783,445,l),
(783,569,l),
(292,569,l),
(292,0,l)
);
},
{
closed = 1;
nodes = (
(150,581,o),
(116,564,o),
(93,536,cs),
(63,499,o),
(51,450,o),
(51,354,cs),
(51,0,l),
(212,0,l),
(212,380,ls),
(212,418,o),
(215,438,o),
(227,449,cs),
(234,455,o),
(242,458,o),
(255,458,cs),
(281,458,o),
(298,442,o),
(314,417,c),
(323,521,l),
(295,555,o),
(263,581,o),
(198,581,cs)
);
}
);
width = 799;
}
);
unicode = 3057;
},
{
glyphname = thousandtamil;
lastChange = "2020-03-17 13:07:53 +0000";
layers = (
{
layerId = "DB7E4487-AAA8-4905-9B27-B72FA6056893";
shapes = (
{
closed = 1;
nodes = (
(725,202,o),
(691,187,o),
(660,169,c),
(675,61,l),
(699,77,o),
(713,82,o),
(729,82,cs),
(755,82,o),
(767,63,o),
(767,29,cs),
(767,-1,o),
(758,-20,o),
(743,-32,cs),
(724,-47,o),
(700,-50,o),
(643,-50,cs),
(287,-50,ls),
(181,-50,o),
(134,-61,o),
(96,-85,cs),
(51,-114,o),
(29,-161,o),
(29,-233,cs),
(29,-262,o),
(32,-291,o),
(36,-322,c),
(194,-313,l),
(192,-300,o),
(190,-279,o),
(190,-264,cs),
(190,-231,o),
(199,-208,o),
(217,-194,cs),
(235,-180,o),
(254,-174,o),
(316,-174,cs),
(630,-174,ls),
(738,-174,o),
(810,-166,o),
(861,-125,cs),
(900,-94,o),
(924,-43,o),
(924,38,cs),
(924,137,o),
(867,202,o),
(772,202,cs)
);
},
{
closed = 1;
nodes = (
(335,-12,o),
(396,10,o),
(433,52,cs),
(473,96,o),
(488,151,o),
(488,253,cs),
(488,445,l),
(630,445,l),
(630,569,l),
(95,569,l),
(95,286,l),
(240,302,l),
(240,445,l),
(331,445,l),
(331,218,ls),
(331,139,o),
(298,112,o),
(246,112,cs),
(210,112,o),
(183,129,o),
(183,170,cs),
(183,191,o),
(189,206,o),
(201,217,cs),
(217,232,o),
(240,237,o),
(291,237,cs),
(766,237,l),
(766,352,l),
(313,352,ls),
(121,352,o),
(28,278,o),
(28,167,cs),
(28,52,o),
(102,-12,o),
(248,-12,cs)
);
},
{
closed = 1;
nodes = (
(696,0,l),
(696,267,l),
(542,275,l),
(542,0,l)
);
}
);
width = 932;
}
);
unicode = 3058;
},
{
glyphname = daysigntamil;
lastChange = "2020-03-17 13:07:53 +0000";
layers = (
{
layerId = "DB7E4487-AAA8-4905-9B27-B72FA6056893";
shapes = (
{
closed = 1;
nodes = (
(352,-12,o),
(407,60,o),
(407,175,cs),
(407,291,o),
(351,352,o),
(253,352,cs),
(192,352,o),
(151,319,o),
(106,272,c),
(132,179,l),
(163,218,o),
(189,237,o),
(212,237,cs),
(233,237,o),
(258,221,o),
(258,172,cs),
(258,124,o),
(246,107,o),
(219,107,cs),
(187,107,o),
(172,141,o),
(172,224,cs),
(172,384,o),
(228,457,o),
(322,457,cs),
(399,457,o),
(459,398,o),
(459,265,cs),
(459,199,o),
(445,131,o),
(431,94,c),
(446,0,l),
(835,0,l),
(835,124,l),
(593,124,l),
(610,172,o),
(620,236,o),
(620,288,cs),
(620,448,o),
(531,581,o),
(328,581,cs),
(166,581,o),
(30,477,o),
(30,249,cs),
(30,77,o),
(100,-12,o),
(222,-12,cs)
);
}
);
width = 851;
}
);
unicode = 3059;
},
{
glyphname = monthsigntamil;
lastChange = "2020-03-17 13:07:53 +0000";
layers = (
{
layerId = "DB7E4487-AAA8-4905-9B27-B72FA6056893";
shapes = (
{
closed = 1;
nodes = (
(441,581,o),
(399,566,o),
(370,540,cs),
(332,506,o),
(313,460,o),
(313,384,cs),
(313,124,l),
(214,124,l),
(214,569,l),
(53,569,l),
(53,0,l),
(450,0,ls),
(546,0,o),
(594,15,o),
(636,47,cs),
(690,88,o),
(721,161,o),
(721,276,cs),
(721,460,o),
(657,581,o),
(496,581,cs)
);
},
{
closed = 1;
nodes = (
(543,457,o),
(560,386,o),
(560,275,cs),
(560,153,o),
(530,124,o),
(475,124,c),
(474,124,l),
(474,394,ls),
(474,431,o),
(478,440,o),
(485,448,cs),
(491,455,o),
(499,457,o),
(506,457,cs)
);
},
{
closed = 1;
nodes = (
(832,472,o),
(887,500,o),
(887,595,cs),
(887,638,o),
(873,669,o),
(849,689,cs),
(827,707,o),
(802,717,o),
(755,717,cs),
(690,717,ls),
(573,717,o),
(503,663,o),
(503,551,c),
(612,516,l),
(612,540,ls),
(612,579,o),
(620,624,o),
(683,624,cs),
(749,624,ls),
(768,624,o),
(778,621,o),
(785,614,cs),
(791,608,o),
(794,600,o),
(794,588,cs),
(794,571,o),
(788,563,o),
(774,563,cs),
(756,563,o),
(751,583,o),
(751,610,cs),
(751,624,o),
(751,637,o),
(753,657,c),
(762,709,o),
(789,744,o),
(837,744,cs),
(895,744,o),
(921,698,o),
(921,641,cs),
(921,602,o),
(910,565,o),
(903,546,c),
(903,477,l),
(1096,477,l),
(1096,581,l),
(994,581,l),
(1016,562,l),
(1025,592,o),
(1033,634,o),
(1033,670,cs),
(1033,777,o),
(970,850,o),
(854,850,cs),
(741,850,o),
(670,774,o),
(654,679,cs),
(651,658,o),
(650,638,o),
(650,613,cs),
(650,524,o),
(695,472,o),
(776,472,cs)
);
}
);
width = 1111;
}
);
unicode = 3060;
},
{
glyphname = yearsigntamil;
lastChange = "2020-03-17 13:07:53 +0000";
layers = (
{
layerId = "DB7E4487-AAA8-4905-9B27-B72FA6056893";
shapes = (
{
closed = 1;
nodes = (
(1115,721,o),
(1280,695,o),
(1382,612,cs),
(1472,538,o),
(1511,411,o),
(1520,246,cs),
(1526,136,o),
(1549,72,o),
(1590,35,cs),
(1625,3,o),
(1667,-12,o),
(1739,-12,cs),
(1899,-12,o),
(1957,101,o),
(1957,263,cs),
(1957,389,o),
(1927,501,o),
(1854,615,c),
(1711,540,l),
(1764,453,o),
(1796,342,o),
(1796,236,cs),
(1796,133,o),
(1777,112,o),
(1741,112,cs),
(1725,112,o),
(1713,117,o),
(1705,128,cs),
(1690,147,o),
(1683,183,o),
(1681,269,cs),
(1675,501,o),
(1599,639,o),
(1467,729,cs),
(1331,822,o),
(1145,851,o),
(900,851,cs),
(821,851,ls),
(365,851,o),
(36,674,o),
(36,269,cs),
(36,262,ls),
(36,-172,o),
(328,-321,o),
(791,-321,cs),
(847,-321,ls),
(1159,-321,o),
(1503,-238,o),
(1503,115,cs),
(1503,255,o),
(1448,346,o),
(1342,346,cs),
(1317,346,o),
(1293,340,o),
(1275,330,c),
(1275,445,l),
(1360,445,l),
(1360,569,l),
(884,569,l),
(884,0,l),
(1045,0,l),
(1045,445,l),
(1114,445,l),
(1114,0,l),
(1275,0,l),
(1275,217,l),
(1283,221,o),
(1292,223,o),
(1300,223,cs),
(1332,223,o),
(1347,184,o),
(1347,114,cs),
(1347,-123,o),
(1118,-191,o),
(844,-191,cs),
(807,-191,ls),
(372,-191,o),
(195,-54,o),
(195,259,cs),
(195,267,ls),
(195,563,o),
(399,721,o),
(855,721,cs)
);
},
{
closed = 1;
nodes = (
(575,-12,o),
(630,60,o),
(630,175,cs),
(630,291,o),
(574,352,o),
(476,352,cs),
(415,352,o),
(374,319,o),
(329,272,c),
(355,179,l),
(386,218,o),
(412,237,o),
(435,237,cs),
(456,237,o),
(481,221,o),
(481,172,cs),
(481,124,o),
(469,107,o),
(442,107,cs),
(410,107,o),
(395,141,o),
(395,224,cs),
(395,384,o),
(451,457,o),
(545,457,cs),
(622,457,o),
(682,398,o),
(682,265,cs),
(682,199,o),
(668,131,o),
(654,94,c),
(669,0,l),
(933,0,l),
(933,124,l),
(816,124,l),
(833,172,o),
(843,236,o),
(843,288,cs),
(843,448,o),
(754,581,o),
(551,581,cs),
(389,581,o),
(253,477,o),
(253,249,cs),
(253,77,o),
(323,-12,o),
(445,-12,cs)
);
}
);
width = 1989;
}
);
unicode = 3061;
},
{
glyphname = debitsigntamil;
lastChange = "2020-03-17 13:07:53 +0000";
layers = (
{
layerId = "DB7E4487-AAA8-4905-9B27-B72FA6056893";
shapes = (
{
closed = 1;
nodes = (
(385,-321,o),
(511,-274,o),
(571,-152,c),
(586,-82,l),
(594,-53,o),
(599,-21,o),
(599,20,cs),
(599,90,l),
(438,89,l),
(438,-8,ls),
(438,-26,o),
(436,-51,o),
(433,-68,c),
(420,-138,l),
(392,-185,o),
(338,-211,o),
(256,-211,cs),
(202,-211,o),
(170,-198,o),
(170,-173,cs),
(170,-159,o),
(176,-156,o),
(195,-156,cs),
(492,-156,l),
(529,-174,l),
(855,-174,l),
(855,569,l),
(694,569,l),
(694,-50,l),
(171,-50,ls),
(101,-50,o),
(75,-60,o),
(52,-80,cs),
(32,-97,o),
(22,-122,o),
(22,-153,cs),
(22,-268,o),
(117,-321,o),
(258,-321,cs)
);
},
{
closed = 1;
nodes = (
(444,124,l),
(214,124,l),
(214,569,l),
(53,569,l),
(53,0,l),
(444,0,l)
);
},
{
closed = 1;
nodes = (
(438,569,l),
(438,82,l),
(599,53,l),
(599,569,l)
);
}
);
width = 908;
}
);
unicode = 3062;
},
{
glyphname = creditsigntamil;
lastChange = "2020-03-17 13:07:53 +0000";
layers = (
{
layerId = "DB7E4487-AAA8-4905-9B27-B72FA6056893";
shapes = (
{
closed = 1;
nodes = (
(352,-12,o),
(407,60,o),
(407,175,cs),
(407,290,o),
(351,352,o),
(253,352,cs),
(192,352,o),
(151,319,o),
(106,272,c),
(132,179,l),
(163,218,o),
(189,237,o),
(212,237,cs),
(239,237,o),
(258,221,o),
(258,172,cs),
(258,124,o),
(246,107,o),
(219,107,cs),
(187,107,o),
(172,142,o),
(172,216,cs),
(172,320,o),
(200,373,o),
(249,408,cs),
(284,433,o),
(330,445,o),
(412,445,cs),
(441,445,l),
(462,569,l),
(446,569,ls),
(278,569,o),
(197,540,o),
(134,488,cs),
(69,434,o),
(30,355,o),
(30,245,cs),
(30,77,o),
(99,-12,o),
(223,-12,cs)
);
},
{
closed = 1;
nodes = (
(612,0,l),
(612,445,l),
(703,445,l),
(703,569,l),
(453,569,l),
(425,445,l),
(451,445,l),
(451,0,l)
);
},
{
closed = 1;
nodes = (
(831,-5,o),
(886,23,o),
(886,118,cs),
(886,161,o),
(872,192,o),
(848,212,cs),
(826,230,o),
(801,240,o),
(754,240,cs),
(592,240,l),
(599,147,l),
(748,147,ls),
(767,147,o),
(777,144,o),
(784,137,cs),
(790,131,o),
(793,123,o),
(793,111,cs),
(793,94,o),
(787,86,o),
(773,86,cs),
(755,86,o),
(750,106,o),
(750,133,cs),
(750,147,o),
(750,160,o),
(752,180,c),
(761,232,o),
(788,267,o),
(836,267,cs),
(894,267,o),
(920,221,o),
(920,164,cs),
(920,125,o),
(909,88,o),
(902,69,c),
(902,0,l),
(1153,0,l),
(1153,104,l),
(993,104,l),
(1015,85,l),
(1024,115,o),
(1032,157,o),
(1032,193,cs),
(1032,300,o),
(969,373,o),
(853,373,cs),
(740,373,o),
(669,297,o),
(653,202,cs),
(650,181,o),
(649,161,o),
(649,136,cs),
(649,47,o),
(694,-5,o),
(775,-5,cs)
);
}
);
width = 1169;
}
);
unicode = 3063;
},
{
glyphname = asabovesigntamil;
lastChange = "2020-03-17 13:07:53 +0000";
layers = (
{
layerId = "DB7E4487-AAA8-4905-9B27-B72FA6056893";
shapes = (
{
closed = 1;
nodes = (
(471,-12,o),
(544,67,o),
(544,194,cs),
(544,290,o),
(494,384,o),
(374,384,cs),
(267,384,o),
(213,314,o),
(213,219,cs),
(213,159,o),
(232,114,o),
(250,88,c),
(354,81,l),
(337,111,o),
(321,142,o),
(321,195,cs),
(321,242,o),
(337,266,o),
(363,266,cs),
(390,266,o),
(401,238,o),
(401,195,cs),
(401,140,o),
(380,105,o),
(342,105,cs),
(329,105,o),
(306,107,o),
(293,110,c),
(255,103,l),
(217,143,o),
(188,197,o),
(188,376,cs),
(188,621,o),
(325,723,o),
(480,723,cs),
(596,723,o),
(697,652,o),
(751,521,c),
(766,478,l),
(783,422,o),
(793,357,o),
(793,283,cs),
(793,194,o),
(777,184,o),
(759,184,cs),
(733,184,o),
(723,211,o),
(723,272,cs),
(723,346,o),
(749,422,o),
(809,448,c),
(866,460,l),
(961,460,o),
(1000,379,o),
(1000,265,cs),
(1000,199,o),
(986,131,o),
(972,94,c),
(987,0,l),
(1262,0,l),
(1248,124,l),
(1134,124,l),
(1151,172,o),
(1161,236,o),
(1161,288,cs),
(1161,448,o),
(1072,581,o),
(877,581,cs),
(841,581,o),
(815,578,o),
(788,573,c),
(694,551,o),
(574,455,o),
(574,282,cs),
(574,139,o),
(641,66,o),
(761,66,cs),
(883,66,o),
(941,143,o),
(941,309,cs),
(941,374,o),
(932,433,o),
(911,498,c),
(903,545,l),
(842,729,o),
(696,850,o),
(486,850,cs),
(219,850,o),
(33,665,o),
(33,380,cs),
(33,142,o),
(131,-12,o),
(333,-12,cs)
);
},
{
closed = 1;
nodes = (
(1254,581,o),
(1198,484,o),
(1198,389,cs),
(1198,275,o),
(1251,182,o),
(1431,182,cs),
(1473,182,ls),
(1532,182,o),
(1578,199,o),
(1621,226,c),
(1620,210,o),
(1620,192,o),
(1620,178,cs),
(1620,124,l),
(1250,124,l),
(1246,0,l),
(1763,0,l),
(1763,362,l),
(1621,362,l),
(1588,325,o),
(1545,298,o),
(1483,298,cs),
(1424,298,ls),
(1360,298,o),
(1340,333,o),
(1340,388,cs),
(1340,436,o),
(1355,459,o),
(1374,459,cs),
(1395,459,o),
(1399,442,o),
(1399,413,cs),
(1399,385,o),
(1394,353,o),
(1385,310,cs),
(1336,65,l),
(1334,40,l),
(1269,-254,l),
(1428,-284,l),
(1534,231,l),
(1537,272,l),
(1548,318,o),
(1560,363,o),
(1560,416,cs),
(1560,501,o),
(1515,581,o),
(1382,581,cs)
);
}
);
width = 1804;
}
);
unicode = 3064;
},
{
glyphname = rupeesigntamil;
lastChange = "2020-03-17 13:07:53 +0000";
layers = (
{
layerId = "DB7E4487-AAA8-4905-9B27-B72FA6056893";
shapes = (
{
closed = 1;
nodes = (
(710,258,o),
(673,248,o),
(643,227,c),
(655,118,l),
(669,128,o),
(684,134,o),
(701,134,cs),
(733,134,o),
(756,102,o),
(756,32,cs),
(756,-114,o),
(660,-193,o),
(508,-193,cs),
(496,-193,ls),
(316,-193,o),
(192,-86,o),
(192,196,cs),
(192,211,ls),
(192,411,o),
(263,547,o),
(333,611,c),
(352,740,l),
(174,691,o),
(40,481,o),
(40,218,cs),
(40,198,ls),
(40,-114,o),
(185,-321,o),
(491,-321,cs),
(507,-321,ls),
(767,-321,o),
(916,-188,o),
(916,32,cs),
(916,171,o),
(854,258,o),
(747,258,cs)
);
},
{
closed = 1;
nodes = (
(437,0,l),
(437,356,l),
(516,356,l),
(516,0,l),
(677,0,l),
(677,356,l),
(770,356,l),
(770,480,l),
(276,480,l),
(276,0,l)
);
},
{
closed = 1;
nodes = (
(486,501,o),
(533,528,o),
(533,628,cs),
(533,685,o),
(496,736,o),
(433,736,cs),
(409,736,o),
(397,734,o),
(386,730,c),
(382,637,l),
(394,647,o),
(405,653,o),
(416,653,cs),
(433,653,o),
(443,640,o),
(443,620,cs),
(443,605,o),
(440,589,o),
(421,589,cs),
(405,589,o),
(398,612,o),
(398,635,cs),
(398,652,o),
(399,670,o),
(407,683,c),
(412,714,l),
(427,729,o),
(445,749,o),
(497,749,cs),
(544,749,o),
(573,718,o),
(573,664,cs),
(573,635,o),
(566,600,o),
(551,577,c),
(551,503,l),
(770,503,l),
(770,606,l),
(648,606,l),
(657,591,l),
(674,614,o),
(681,660,o),
(681,682,cs),
(681,787,o),
(625,851,o),
(506,851,cs),
(384,851,o),
(306,756,o),
(307,656,c),
(307,550,o),
(355,501,o),
(426,501,cs)
);
}
);
width = 945;
}
);
unicode = 3065;
},
{
glyphname = numsigntamil;
lastChange = "2020-03-17 13:07:53 +0000";
layers = (
{
layerId = "DB7E4487-AAA8-4905-9B27-B72FA6056893";
shapes = (
{
closed = 1;
nodes = (
(494,370,o),
(456,361,o),
(419,338,c),
(434,227,l),
(450,238,o),
(467,246,o),
(483,246,cs),
(520,246,o),
(543,213,o),
(543,127,cs),
(543,56,o),
(533,9,o),
(506,-18,cs),
(483,-40,o),
(455,-50,o),
(377,-50,cs),
(287,-50,ls),
(181,-50,o),
(134,-61,o),
(96,-85,cs),
(51,-114,o),
(29,-161,o),
(29,-233,cs),
(29,-262,o),
(32,-291,o),
(36,-322,c),
(194,-313,l),
(192,-300,o),
(190,-279,o),
(190,-264,cs),
(190,-231,o),
(199,-208,o),
(217,-194,cs),
(235,-180,o),
(254,-174,o),
(316,-174,cs),
(360,-174,ls),
(494,-174,o),
(558,-162,o),
(615,-114,cs),
(671,-67,o),
(701,10,o),
(701,133,cs),
(701,269,o),
(650,370,o),
(531,370,cs)
);
},
{
closed = 1;
nodes = (
(214,0,l),
(214,445,l),
(293,445,l),
(293,0,l),
(454,0,l),
(454,445,l),
(544,445,l),
(544,569,l),
(53,569,l),
(53,0,l)
);
},
{
closed = 1;
nodes = (
(764,472,o),
(819,500,o),
(819,595,cs),
(819,638,o),
(805,669,o),
(781,689,cs),
(759,707,o),
(734,717,o),
(687,717,cs),
(622,717,ls),
(505,717,o),
(435,663,o),
(435,551,c),
(544,516,l),
(544,540,ls),
(544,579,o),
(552,624,o),
(615,624,cs),
(681,624,ls),
(700,624,o),
(710,621,o),
(717,614,cs),
(723,608,o),
(726,600,o),
(726,588,cs),
(726,571,o),
(720,563,o),
(706,563,cs),
(688,563,o),
(683,583,o),
(683,610,cs),
(683,624,o),
(683,637,o),
(685,657,c),
(694,709,o),
(721,744,o),
(769,744,cs),
(827,744,o),
(853,698,o),
(853,641,cs),
(853,602,o),
(842,565,o),
(835,546,c),
(835,477,l),
(1028,477,l),
(1028,581,l),
(926,581,l),
(948,562,l),
(957,592,o),
(965,634,o),
(965,670,cs),
(965,777,o),
(902,850,o),
(786,850,cs),
(673,850,o),
(602,774,o),
(586,679,cs),
(583,658,o),
(582,638,o),
(582,613,cs),
(582,524,o),
(627,472,o),
(708,472,cs)
);
}
);
width = 1043;
}
);
unicode = 3066;
},
{
category = Letter;
glyphname = tchatamil;
lastChange = "2020-03-17 13:07:53 +0000";
layers = (
{
anchors = (
{
name = Anchor10;
pos = (862,-29);
},
{
name = Anchor8;
pos = (862,-29);
}
);
layerId = "DB7E4487-AAA8-4905-9B27-B72FA6056893";
shapes = (
{
closed = 1;
nodes = (
(1174,581,o),
(1118,484,o),
(1118,389,cs),
(1118,275,o),
(1171,182,o),
(1351,182,cs),
(1389,182,ls),
(1448,182,o),
(1498,199,o),
(1541,226,c),
(1540,210,o),
(1540,192,o),
(1540,178,cs),
(1540,124,l),
(1170,124,l),
(1166,0,l),
(1683,0,l),
(1683,362,l),
(1541,362,l),
(1508,325,o),
(1461,298,o),
(1399,298,cs),
(1344,298,ls),
(1280,298,o),
(1260,333,o),
(1260,388,cs),
(1260,436,o),
(1275,459,o),
(1294,459,cs),
(1315,459,o),
(1319,442,o),
(1319,413,cs),
(1319,385,o),
(1314,353,o),
(1305,310,cs),
(1256,65,l),
(1254,40,l),
(1189,-254,l),
(1348,-284,l),
(1454,231,l),
(1457,272,l),
(1468,318,o),
(1480,363,o),
(1480,416,cs),
(1480,501,o),
(1435,581,o),
(1302,581,cs)
);
},
{
closed = 1;
nodes = (
(335,-12,o),
(396,10,o),
(433,52,cs),
(473,96,o),
(488,151,o),
(488,253,cs),
(488,445,l),
(625,445,l),
(625,569,l),
(95,569,l),
(95,286,l),
(240,302,l),
(240,445,l),
(331,445,l),
(331,218,ls),
(331,139,o),
(298,112,o),
(246,112,cs),
(210,112,o),
(183,129,o),
(183,170,cs),
(183,191,o),
(189,206,o),
(201,217,cs),
(217,232,o),
(240,237,o),
(291,237,cs),
(534,237,l),
(534,352,l),
(313,352,ls),
(121,352,o),
(28,278,o),
(28,167,cs),
(28,52,o),
(102,-12,o),
(248,-12,cs)
);
},
{
closed = 1;
nodes = (
(833,-12,o),
(885,55,o),
(885,159,cs),
(885,216,o),
(873,251,o),
(850,279,cs),
(810,327,o),
(759,352,o),
(647,352,cs),
(531,352,l),
(531,237,l),
(678,237,ls),
(744,237,o),
(752,185,o),
(752,154,cs),
(752,117,o),
(741,103,o),
(721,103,cs),
(696,103,o),
(687,133,o),
(687,178,cs),
(687,214,o),
(696,243,o),
(706,268,c),
(716,308,l),
(738,345,o),
(774,369,o),
(825,369,cs),
(897,369,o),
(938,316,o),
(938,225,cs),
(938,178,o),
(929,134,o),
(911,97,c),
(925,0,l),
(1181,0,l),
(1181,124,l),
(1067,124,l),
(1080,160,o),
(1091,208,o),
(1091,261,cs),
(1091,365,o),
(1033,493,o),
(840,493,cs),
(658,493,o),
(550,359,o),
(550,187,cs),
(550,59,o),
(607,-12,o),
(721,-12,cs)
);
}
);
width = 1724;
}
);
subCategory = Ligature;
},
{
category = Letter;
glyphname = kauvowelsigntamil;
lastChange = "2022-02-22 17:00:18 +0000";
layers = (
{
anchors = (
{
name = Anchor10;
pos = (498,-29);
},
{
name = Anchor12;
pos = (512,-34);
},
{
name = Anchor8;
pos = (498,-29);
}
);
layerId = "DB7E4487-AAA8-4905-9B27-B72FA6056893";
shapes = (
{
closed = 1;
nodes = (
(563,-12,o),
(624,10,o),
(661,52,cs),
(701,96,o),
(716,151,o),
(716,253,cs),
(716,445,l),
(858,445,l),
(858,569,l),
(323,569,l),
(323,286,l),
(468,302,l),
(468,445,l),
(559,445,l),
(559,218,ls),
(559,139,o),
(526,112,o),
(474,112,cs),
(438,112,o),
(411,129,o),
(411,170,cs),
(411,191,o),
(417,206,o),
(429,217,cs),
(445,232,o),
(468,237,o),
(519,237,cs),
(614,237,ls),
(718,237,o),
(809,196,o),
(809,41,cs),
(809,-114,o),
(693,-193,o),
(522,-193,cs),
(502,-193,ls),
(277,-193,o),
(189,-51,o),
(189,137,cs),
(189,152,ls),
(189,297,o),
(236,406,o),
(293,515,c),
(157,581,l),
(96,468,o),
(39,352,o),
(39,151,cs),
(39,141,ls),
(39,-73,o),
(139,-321,o),
(499,-321,cs),
(522,-321,ls),
(743,-321,o),
(971,-224,o),
(971,43,cs),
(971,214,o),
(864,352,o),
(639,352,cs),
(541,352,ls),
(349,352,o),
(256,278,o),
(256,167,cs),
(256,52,o),
(330,-12,o),
(476,-12,cs)
);
}
);
width = 997;
}
);
subCategory = Other;
},
{
category = Letter;
glyphname = kauuvowelsigntamil;
lastChange = "2022-02-22 17:00:18 +0000";
layers = (
{
anchors = (
{
name = Anchor10;
pos = (596,-29);
},
{
name = Anchor12;
pos = (596,-78);
},
{
name = Anchor8;
pos = (596,-29);
}
);
layerId = "DB7E4487-AAA8-4905-9B27-B72FA6056893";
shapes = (
{
closed = 1;
nodes = (
(829,-12,o),
(881,55,o),
(881,159,cs),
(881,216,o),
(869,251,o),
(846,279,cs),
(806,327,o),
(755,352,o),
(643,352,cs),
(527,352,l),
(527,237,l),
(674,237,ls),
(740,237,o),
(748,185,o),
(748,154,cs),
(748,117,o),
(737,103,o),
(717,103,cs),
(692,103,o),
(683,133,o),
(683,178,cs),
(683,214,o),
(692,243,o),
(702,268,c),
(712,308,l),
(734,345,o),
(770,369,o),
(821,369,cs),
(893,369,o),
(934,316,o),
(934,225,cs),
(934,178,o),
(925,134,o),
(907,97,c),
(921,0,l),
(1177,0,l),
(1177,124,l),
(1063,124,l),
(1076,160,o),
(1087,208,o),
(1087,261,cs),
(1087,365,o),
(1029,493,o),
(836,493,cs),
(654,493,o),
(546,359,o),
(546,187,cs),
(546,59,o),
(603,-12,o),
(717,-12,cs)
);
},
{
closed = 1;
nodes = (
(335,-12,o),
(396,10,o),
(433,52,cs),
(473,96,o),
(488,151,o),
(488,253,cs),
(488,445,l),
(625,445,l),
(625,569,l),
(95,569,l),
(95,286,l),
(240,302,l),
(240,445,l),
(331,445,l),
(331,218,ls),
(331,139,o),
(298,112,o),
(246,112,cs),
(210,112,o),
(183,129,o),
(183,170,cs),
(183,191,o),
(189,206,o),
(201,217,cs),
(217,232,o),
(240,237,o),
(291,237,cs),
(534,237,l),
(534,352,l),
(313,352,ls),
(121,352,o),
(28,278,o),
(28,167,cs),
(28,52,o),
(102,-12,o),
(248,-12,cs)
);
}
);
width = 1193;
}
);
subCategory = Other;
},
{
category = Letter;
glyphname = ngaiivowelsigntamil;
lastChange = "2022-02-22 17:00:18 +0000";
layers = (
{
anchors = (
{
name = Anchor10;
pos = (484,-29);
},
{
name = Anchor12;
pos = (484,-78);
},
{
name = Anchor8;
pos = (484,-29);
}
);
layerId = "DB7E4487-AAA8-4905-9B27-B72FA6056893";
shapes = (
{
closed = 1;
nodes = (
(214,0,l),
(214,445,l),
(292,445,l),
(292,172,l),
(453,172,l),
(453,232,l),
(465,240,o),
(477,246,o),
(493,246,cs),
(519,246,o),
(531,227,o),
(531,203,cs),
(531,166,o),
(519,143,o),
(506,124,c),
(292,124,l),
(292,0,l),
(791,0,l),
(791,124,l),
(668,124,l),
(681,146,o),
(691,183,o),
(691,223,cs),
(691,294,o),
(646,370,o),
(537,370,cs),
(504,370,o),
(473,361,o),
(453,350,c),
(453,445,l),
(558,445,l),
(558,569,l),
(53,569,l),
(53,0,l)
);
},
{
closed = 1;
nodes = (
(916,0,l),
(916,569,l),
(755,569,l),
(755,0,l)
);
},
{
closed = 1;
nodes = (
(643,851,o),
(565,751,o),
(565,627,cs),
(565,528,o),
(616,420,o),
(763,381,c),
(769,515,l),
(722,534,o),
(695,576,o),
(695,629,cs),
(695,680,o),
(712,712,o),
(741,733,c),
(758,743,o),
(780,750,o),
(812,750,cs),
(847,750,o),
(862,734,o),
(862,707,cs),
(862,682,o),
(852,669,o),
(835,669,cs),
(814,669,o),
(805,682,o),
(805,706,cs),
(805,747,o),
(827,771,o),
(863,808,c),
(797,842,l),
(747,795,o),
(712,747,o),
(712,697,cs),
(712,633,o),
(745,582,o),
(843,582,cs),
(933,582,o),
(981,626,o),
(981,708,cs),
(981,791,o),
(923,851,o),
(801,851,cs)
);
}
);
width = 969;
}
);
subCategory = Other;
},
{
category = Letter;
glyphname = ngauvowelsigntamil;
lastChange = "2022-02-22 17:00:18 +0000";
layers = (
{
anchors = (
{
name = Anchor10;
pos = (484,-29);
},
{
name = Anchor12;
pos = (484,-78);
},
{
name = Anchor8;
pos = (484,-29);
}
);
layerId = "DB7E4487-AAA8-4905-9B27-B72FA6056893";
shapes = (
{
closed = 1;
nodes = (
(214,0,l),
(214,445,l),
(292,445,l),
(292,172,l),
(453,172,l),
(453,232,l),
(465,240,o),
(477,246,o),
(493,246,cs),
(519,246,o),
(531,227,o),
(531,203,cs),
(531,166,o),
(519,143,o),
(506,124,c),
(292,124,l),
(292,0,l),
(779,0,l),
(779,124,l),
(668,124,l),
(681,146,o),
(691,183,o),
(691,223,cs),
(691,294,o),
(646,370,o),
(537,370,cs),
(504,370,o),
(473,361,o),
(453,350,c),
(453,445,l),
(586,445,l),
(586,569,l),
(53,569,l),
(53,0,l)
);
},
{
closed = 1;
nodes = (
(916,-283,l),
(916,569,l),
(755,569,l),
(755,-283,l)
);
}
);
width = 969;
}
);
subCategory = Other;
},
{
category = Letter;
glyphname = ngauuvowelsigntamil;
lastChange = "2022-02-22 17:00:18 +0000";
layers = (
{
anchors = (
{
name = Anchor10;
pos = (574,-29);
},
{
name = Anchor12;
pos = (570,-42);
},
{
name = Anchor8;
pos = (574,-29);
}
);
layerId = "DB7E4487-AAA8-4905-9B27-B72FA6056893";
shapes = (
{
closed = 1;
nodes = (
(921,130,o),
(884,107,o),
(854,86,c),
(867,-20,l),
(902,2,o),
(917,10,o),
(943,10,cs),
(973,10,o),
(996,-9,o),
(996,-53,cs),
(996,-92,o),
(977,-120,o),
(945,-142,cs),
(879,-186,o),
(767,-200,o),
(557,-200,cs),
(482,-200,ls),
(253,-200,o),
(194,-178,o),
(194,-150,cs),
(194,-136,o),
(202,-128,o),
(233,-128,cs),
(263,-128,o),
(298,-135,o),
(334,-145,c),
(359,-35,l),
(314,-22,o),
(267,-13,o),
(214,-13,cs),
(115,-13,o),
(50,-60,o),
(50,-143,cs),
(50,-200,o),
(79,-239,o),
(123,-266,cs),
(204,-314,o),
(325,-321,o),
(494,-321,cs),
(537,-321,ls),
(769,-321,o),
(949,-309,o),
(1052,-232,cs),
(1112,-187,o),
(1148,-134,o),
(1148,-43,cs),
(1148,68,o),
(1081,130,o),
(986,130,cs)
);
},
{
closed = 1;
nodes = (
(214,0,l),
(214,445,l),
(292,445,l),
(292,172,l),
(453,172,l),
(453,232,l),
(465,240,o),
(477,246,o),
(493,246,cs),
(519,246,o),
(531,227,o),
(531,203,cs),
(531,166,o),
(519,143,o),
(506,124,c),
(292,124,l),
(292,0,l),
(779,0,l),
(779,124,l),
(668,124,l),
(681,146,o),
(691,183,o),
(691,223,cs),
(691,294,o),
(646,370,o),
(537,370,cs),
(504,370,o),
(473,361,o),
(453,350,c),
(453,445,l),
(586,445,l),
(586,569,l),
(53,569,l),
(53,0,l)
);
},
{
closed = 1;
nodes = (
(916,-133,l),
(916,569,l),
(755,569,l),
(755,-133,l)
);
}
);
width = 1149;
}
);
subCategory = Other;
},
{
category = Letter;
glyphname = cauvowelsigntamil;
lastChange = "2022-02-22 17:00:18 +0000";
layers = (
{
anchors = (
{
name = Anchor10;
pos = (398,-29);
},
{
name = Anchor12;
pos = (398,-78);
},
{
name = Anchor8;
pos = (398,-29);
}
);
layerId = "DB7E4487-AAA8-4905-9B27-B72FA6056893";
shapes = (
{
closed = 1;
nodes = (
(335,-12,o),
(396,10,o),
(433,52,cs),
(473,96,o),
(488,151,o),
(488,253,cs),
(488,445,l),
(630,445,l),
(630,569,l),
(95,569,l),
(95,286,l),
(240,302,l),
(240,445,l),
(331,445,l),
(331,218,ls),
(331,139,o),
(298,112,o),
(246,112,cs),
(210,112,o),
(183,129,o),
(183,170,cs),
(183,191,o),
(189,206,o),
(201,217,cs),
(217,232,o),
(240,237,o),
(291,237,cs),
(773,237,l),
(773,352,l),
(313,352,ls),
(121,352,o),
(28,278,o),
(28,167,cs),
(28,52,o),
(102,-12,o),
(248,-12,cs)
);
},
{
closed = 1;
nodes = (
(703,0,l),
(703,267,l),
(546,275,l),
(546,0,l)
);
}
);
width = 797;
}
);
subCategory = Other;
},
{
category = Letter;
glyphname = cauuvowelsigntamil;
lastChange = "2022-02-22 17:00:18 +0000";
layers = (
{
anchors = (
{
name = Anchor10;
pos = (577,-29);
},
{
name = Anchor12;
pos = (603,-31);
},
{
name = Anchor8;
pos = (577,-29);
}
);
layerId = "DB7E4487-AAA8-4905-9B27-B72FA6056893";
shapes = (
{
closed = 1;
nodes = (
(941,202,o),
(905,187,o),
(874,169,c),
(893,61,l),
(917,77,o),
(931,82,o),
(944,82,cs),
(972,82,o),
(990,63,o),
(990,21,cs),
(990,-153,o),
(777,-192,o),
(625,-192,cs),
(590,-192,ls),
(309,-192,o),
(189,-70,o),
(189,153,cs),
(189,173,ls),
(189,276,o),
(222,400,o),
(288,515,c),
(152,581,l),
(87,466,o),
(39,337,o),
(39,172,cs),
(39,152,ls),
(39,6,o),
(82,-104,o),
(158,-181,cs),
(253,-276,o),
(398,-321,o),
(586,-321,cs),
(631,-321,ls),
(915,-321,o),
(1147,-222,o),
(1147,31,cs),
(1147,140,o),
(1080,202,o),
(986,202,cs)
);
},
{
closed = 1;
nodes = (
(558,-12,o),
(619,10,o),
(656,52,cs),
(696,96,o),
(711,151,o),
(711,253,cs),
(711,445,l),
(853,445,l),
(853,569,l),
(318,569,l),
(318,286,l),
(463,302,l),
(463,445,l),
(554,445,l),
(554,218,ls),
(554,139,o),
(521,112,o),
(469,112,cs),
(433,112,o),
(406,129,o),
(406,170,cs),
(406,191,o),
(412,206,o),
(424,217,cs),
(440,232,o),
(463,237,o),
(514,237,cs),
(989,237,l),
(989,352,l),
(536,352,ls),
(344,352,o),
(251,278,o),
(251,167,cs),
(251,52,o),
(325,-12,o),
(471,-12,cs)
);
},
{
closed = 1;
nodes = (
(919,0,l),
(919,267,l),
(765,275,l),
(765,0,l)
);
}
);
width = 1155;
}
);
subCategory = Other;
},
{
category = Letter;
glyphname = nyauvowelsigntamil;
lastChange = "2022-02-22 17:00:18 +0000";
layers = (
{
anchors = (
{
name = Anchor10;
pos = (567,-29);
},
{
name = Anchor12;
pos = (798,-234);
},
{
name = Anchor8;
pos = (567,-29);
}
);
layerId = "DB7E4487-AAA8-4905-9B27-B72FA6056893";
shapes = (
{
closed = 1;
nodes = (
(921,569,l),
(921,-50,l),
(292,-50,l),
(285,-156,l),
(643,-156,l),
(669,-174,l),
(1082,-174,l),
(1082,569,l)
);
},
{
closed = 1;
nodes = (
(645,346,o),
(608,336,o),
(578,315,c),
(590,206,l),
(604,216,o),
(618,222,o),
(636,222,cs),
(668,222,o),
(691,190,o),
(691,100,cs),
(691,25,o),
(674,-37,o),
(640,-85,c),
(628,-127,l),
(567,-184,o),
(467,-211,o),
(339,-211,cs),
(302,-211,ls),
(199,-211,o),
(170,-191,o),
(170,-170,cs),
(170,-159,o),
(176,-156,o),
(195,-156,cs),
(319,-156,l),
(319,-50,l),
(171,-50,ls),
(102,-50,o),
(75,-60,o),
(52,-80,cs),
(32,-97,o),
(22,-120,o),
(22,-153,cs),
(22,-257,o),
(111,-321,o),
(310,-321,cs),
(335,-321,ls),
(555,-321,o),
(711,-265,o),
(803,-141,c),
(810,-93,l),
(836,-39,o),
(851,26,o),
(851,102,cs),
(851,255,o),
(790,346,o),
(682,346,cs)
);
},
{
closed = 1;
nodes = (
(612,0,l),
(612,445,l),
(703,445,l),
(703,569,l),
(453,569,l),
(425,445,l),
(451,445,l),
(451,0,l)
);
},
{
closed = 1;
nodes = (
(352,-12,o),
(407,60,o),
(407,175,cs),
(407,290,o),
(351,352,o),
(253,352,cs),
(192,352,o),
(151,319,o),
(106,272,c),
(132,179,l),
(163,218,o),
(189,237,o),
(212,237,cs),
(239,237,o),
(258,221,o),
(258,172,cs),
(258,124,o),
(246,107,o),
(219,107,cs),
(187,107,o),
(172,142,o),
(172,216,cs),
(172,320,o),
(200,373,o),
(249,408,cs),
(284,433,o),
(330,445,o),
(412,445,cs),
(441,445,l),
(462,569,l),
(446,569,ls),
(278,569,o),
(197,540,o),
(134,488,cs),
(69,434,o),
(30,355,o),
(30,245,cs),
(30,77,o),
(99,-12,o),
(223,-12,cs)
);
}
);
width = 1135;
}
);
subCategory = Other;
},
{
category = Letter;
glyphname = nyauuvowelsigntamil;
lastChange = "2022-02-22 17:00:18 +0000";
layers = (
{
anchors = (
{
name = Anchor10;
pos = (716,-29);
},
{
name = Anchor12;
pos = (798,-234);
},
{
name = Anchor8;
pos = (716,-29);
}
);
layerId = "DB7E4487-AAA8-4905-9B27-B72FA6056893";
shapes = (
{
closed = 1;
nodes = (
(352,-12,o),
(407,60,o),
(407,175,cs),
(407,290,o),
(351,352,o),
(253,352,cs),
(192,352,o),
(151,319,o),
(106,272,c),
(132,179,l),
(163,218,o),
(189,237,o),
(212,237,cs),
(239,237,o),
(258,221,o),
(258,172,cs),
(258,124,o),
(246,107,o),
(219,107,cs),
(187,107,o),
(172,142,o),
(172,216,cs),
(172,320,o),
(200,373,o),
(249,408,cs),
(284,433,o),
(330,445,o),
(412,445,cs),
(441,445,l),
(462,569,l),
(446,569,ls),
(278,569,o),
(197,540,o),
(134,488,cs),
(69,434,o),
(30,355,o),
(30,245,cs),
(30,77,o),
(99,-12,o),
(223,-12,cs)
);
},
{
closed = 1;
nodes = (
(612,0,l),
(612,445,l),
(703,445,l),
(703,569,l),
(453,569,l),
(425,445,l),
(451,445,l),
(451,0,l)
);
},
{
closed = 1;
nodes = (
(645,346,o),
(608,336,o),
(578,315,c),
(590,206,l),
(604,216,o),
(618,222,o),
(636,222,cs),
(668,222,o),
(691,190,o),
(691,100,cs),
(691,25,o),
(674,-37,o),
(640,-85,c),
(628,-127,l),
(567,-184,o),
(467,-211,o),
(339,-211,cs),
(302,-211,ls),
(199,-211,o),
(170,-191,o),
(170,-170,cs),
(170,-159,o),
(176,-156,o),
(195,-156,cs),
(319,-156,l),
(319,-50,l),
(171,-50,ls),
(102,-50,o),
(75,-60,o),
(52,-80,cs),
(32,-97,o),
(22,-120,o),
(22,-153,cs),
(22,-257,o),
(111,-321,o),
(310,-321,cs),
(335,-321,ls),
(555,-321,o),
(711,-265,o),
(803,-141,c),
(810,-93,l),
(836,-39,o),
(851,26,o),
(851,102,cs),
(851,255,o),
(790,346,o),
(682,346,cs)
);
},
{
closed = 1;
nodes = (
(921,569,l),
(921,-50,l),
(292,-50,l),
(285,-156,l),
(643,-156,l),
(674,-174,l),
(1082,-174,l),
(1082,445,l),
(1165,445,l),
(1165,-174,l),
(1326,-174,l),
(1326,445,l),
(1416,445,l),
(1416,569,l)
);
}
);
width = 1432;
}
);
subCategory = Other;
},
{
category = Letter;
glyphname = ttaivowelsigntamil;
lastChange = "2022-02-22 17:00:18 +0000";
layers = (
{
anchors = (
{
name = Anchor10;
pos = (354,-29);
},
{
name = Anchor12;
pos = (232,-78);
},
{
name = Anchor8;
pos = (354,-29);
}
);
layerId = "DB7E4487-AAA8-4905-9B27-B72FA6056893";
shapes = (
{
closed = 1;
nodes = (
(693,0,l),
(693,124,l),
(214,124,l),
(214,569,l),
(53,569,l),
(53,0,l)
);
},
{
closed = 1;
nodes = (
(311,489,o),
(259,393,o),
(259,297,cs),
(259,188,o),
(301,116,o),
(369,27,c),
(451,114,l),
(415,173,o),
(401,230,o),
(401,291,cs),
(401,339,o),
(415,367,o),
(434,367,cs),
(454,367,o),
(459,352,o),
(459,321,cs),
(459,287,o),
(453,248,o),
(444,195,cs),
(424,85,l),
(416,46,l),
(347,-254,l),
(506,-284,l),
(594,139,ls),
(610,218,o),
(620,278,o),
(620,324,cs),
(620,410,o),
(575,489,o),
(444,489,cs)
);
}
);
width = 709;
}
);
subCategory = Other;
},
{
category = Letter;
glyphname = ttaiivowelsigntamil;
lastChange = "2022-02-22 17:00:18 +0000";
layers = (
{
anchors = (
{
name = Anchor10;
pos = (350,-29);
},
{
name = Anchor12;
pos = (350,-78);
},
{
name = Anchor8;
pos = (350,-29);
}
);
layerId = "DB7E4487-AAA8-4905-9B27-B72FA6056893";
shapes = (
{
closed = 1;
nodes = (
(684,0,l),
(684,124,l),
(214,124,l),
(214,569,l),
(53,569,l),
(53,0,l)
);
},
{
closed = 1;
nodes = (
(291,488,o),
(253,345,o),
(253,260,cs),
(253,141,o),
(292,79,o),
(353,7,c),
(461,72,l),
(415,120,o),
(386,181,o),
(386,253,cs),
(386,298,o),
(401,347,o),
(437,375,c),
(456,381,o),
(468,383,o),
(489,383,cs),
(522,383,o),
(537,367,o),
(537,340,cs),
(537,315,o),
(527,302,o),
(510,302,cs),
(489,302,o),
(480,315,o),
(480,339,cs),
(480,380,o),
(502,404,o),
(538,441,c),
(471,477,l),
(425,439,o),
(388,382,o),
(388,330,cs),
(388,248,o),
(424,194,o),
(519,194,cs),
(614,194,o),
(662,250,o),
(662,335,cs),
(662,416,o),
(610,488,o),
(478,488,cs)
);
}
);
width = 700;
}
);
subCategory = Other;
},
{
category = Letter;
glyphname = ttauvowelsigntamil;
lastChange = "2022-02-22 17:00:18 +0000";
layers = (
{
anchors = (
{
name = Anchor10;
pos = (463,-29);
},
{
name = Anchor12;
pos = (739,-191);
}
);
layerId = "DB7E4487-AAA8-4905-9B27-B72FA6056893";
shapes = (
{
closed = 1;
nodes = (
(580,-318,o),
(686,-190,o),
(686,60,cs),
(686,250,o),
(617,346,o),
(510,346,cs),
(489,346,o),
(458,341,o),
(433,325,c),
(443,210,l),
(450,217,o),
(461,222,o),
(474,222,cs),
(512,222,o),
(526,184,o),
(526,55,cs),
(526,-102,o),
(486,-194,o),
(383,-194,cs),
(286,-194,o),
(199,-132,o),
(199,219,cs),
(199,525,o),
(303,724,o),
(506,724,cs),
(562,724,o),
(601,710,o),
(633,682,cs),
(692,630,o),
(714,540,o),
(714,389,cs),
(714,0,l),
(875,0,l),
(875,421,ls),
(875,616,o),
(836,708,o),
(750,778,cs),
(693,825,o),
(612,851,o),
(509,851,cs),
(223,851,o),
(44,617,o),
(44,242,cs),
(44,198,ls),
(44,-98,o),
(129,-318,o),
(381,-318,cs)
);
},
{
closed = 1;
nodes = (
(450,0,l),
(450,569,l),
(289,569,l),
(289,0,l)
);
}
);
width = 927;
}
);
subCategory = Other;
},
{
category = Letter;
glyphname = ttauuvowelsigntamil;
lastChange = "2022-02-22 17:00:18 +0000";
layers = (
{
anchors = (
{
name = Anchor10;
pos = (429,-29);
},
{
name = Anchor12;
pos = (684,-237);
}
);
layerId = "DB7E4487-AAA8-4905-9B27-B72FA6056893";
shapes = (
{
closed = 1;
nodes = (
(580,-318,o),
(686,-190,o),
(686,60,cs),
(686,250,o),
(617,346,o),
(510,346,cs),
(489,346,o),
(458,341,o),
(433,325,c),
(443,210,l),
(450,217,o),
(461,222,o),
(474,222,cs),
(512,222,o),
(526,184,o),
(526,55,cs),
(526,-102,o),
(486,-194,o),
(383,-194,cs),
(286,-194,o),
(199,-132,o),
(199,219,cs),
(199,525,o),
(302,724,o),
(510,724,cs),
(610,724,o),
(661,696,o),
(712,619,c),
(719,606,o),
(729,572,o),
(729,551,cs),
(729,494,o),
(718,466,o),
(692,466,cs),
(673,466,o),
(658,482,o),
(658,525,cs),
(658,558,o),
(669,582,o),
(696,582,cs),
(720,582,o),
(745,565,o),
(763,550,c),
(785,649,l),
(743,670,o),
(714,679,o),
(672,679,cs),
(617,679,o),
(532,643,o),
(532,520,cs),
(532,410,o),
(597,352,o),
(692,352,cs),
(812,352,o),
(853,436,o),
(853,541,cs),
(853,743,o),
(721,851,o),
(522,851,cs),
(223,851,o),
(44,617,o),
(44,242,cs),
(44,199,ls),
(44,-98,o),
(129,-318,o),
(381,-318,cs)
);
},
{
closed = 1;
nodes = (
(450,0,l),
(450,569,l),
(289,569,l),
(289,0,l)
);
}
);
width = 858;
}
);
subCategory = Other;
},
{
category = Letter;
glyphname = nnauvowelsigntamil;
lastChange = "2022-02-22 17:00:18 +0000";
layers = (
{
anchors = (
{
name = Anchor10;
pos = (842,-29);
},
{
name = Anchor12;
pos = (1224,-234);
},
{
name = Anchor8;
pos = (842,-29);
}
);
layerId = "DB7E4487-AAA8-4905-9B27-B72FA6056893";
shapes = (
{
closed = 1;
nodes = (
(352,-12,o),
(407,60,o),
(407,175,cs),
(407,290,o),
(351,352,o),
(253,352,cs),
(192,352,o),
(151,319,o),
(106,272,c),
(132,179,l),
(163,218,o),
(189,237,o),
(212,237,cs),
(239,237,o),
(258,221,o),
(258,172,cs),
(258,124,o),
(246,107,o),
(219,107,cs),
(187,107,o),
(172,141,o),
(172,221,cs),
(172,238,o),
(173,259,o),
(175,270,c),
(188,377,o),
(267,457,o),
(380,457,cs),
(458,457,o),
(515,432,o),
(562,389,c),
(615,343,o),
(638,273,o),
(638,185,cs),
(638,124,o),
(628,108,o),
(604,108,cs),
(585,108,o),
(572,126,o),
(572,187,cs),
(572,272,o),
(593,345,o),
(636,394,c),
(677,434,o),
(717,457,o),
(786,457,cs),
(861,457,o),
(910,434,o),
(948,396,c),
(998,341,o),
(1017,281,o),
(1017,190,cs),
(1017,124,o),
(1007,108,o),
(983,108,cs),
(964,108,o),
(951,126,o),
(951,194,cs),
(951,266,o),
(966,331,o),
(993,379,c),
(1025,421,l),
(1049,445,o),
(1078,457,o),
(1111,457,cs),
(1204,457,o),
(1238,361,o),
(1238,239,cs),
(1238,87,o),
(1186,-16,o),
(1097,-85,c),
(1086,-117,l),
(956,-197,o),
(727,-211,o),
(497,-211,cs),
(365,-211,ls),
(196,-211,o),
(170,-189,o),
(170,-170,cs),
(170,-159,o),
(176,-156,o),
(195,-156,cs),
(1106,-156,l),
(1169,-174,l),
(1541,-174,l),
(1548,-50,l),
(171,-50,ls),
(102,-50,o),
(75,-60,o),
(52,-80,cs),
(32,-97,o),
(22,-122,o),
(22,-153,cs),
(22,-257,o),
(108,-321,o),
(337,-321,cs),
(544,-321,ls),
(854,-321,o),
(1119,-280,o),
(1269,-140,c),
(1297,-87,l),
(1363,-4,o),
(1399,104,o),
(1399,246,cs),
(1399,437,o),
(1311,581,o),
(1124,581,cs),
(1040,581,o),
(978,552,o),
(931,507,c),
(897,457,l),
(837,382,o),
(808,313,o),
(808,202,cs),
(808,58,o),
(879,-12,o),
(981,-12,cs),
(1097,-12,o),
(1158,49,o),
(1158,196,cs),
(1158,313,o),
(1118,399,o),
(1050,467,c),
(1019,500,l),
(952,559,o),
(880,581,o),
(791,581,cs),
(704,581,o),
(626,560,o),
(564,507,c),
(527,462,l),
(467,391,o),
(429,311,o),
(429,197,cs),
(429,58,o),
(500,-12,o),
(602,-12,cs),
(714,-12,o),
(779,49,o),
(779,191,cs),
(779,303,o),
(739,393,o),
(661,458,c),
(630,502,l),
(543,563,o),
(483,581,o),
(383,581,cs),
(167,581,o),
(30,451,o),
(30,249,cs),
(30,77,o),
(99,-12,o),
(223,-12,cs)
);
},
{
closed = 1;
nodes = (
(1631,-174,l),
(1631,569,l),
(1470,569,l),
(1470,-174,l)
);
}
);
width = 1684;
}
);
subCategory = Other;
},
{
category = Letter;
glyphname = nnauuvowelsigntamil;
lastChange = "2022-02-22 17:00:18 +0000";
layers = (
{
anchors = (
{
name = Anchor10;
pos = (990,-29);
},
{
name = Anchor12;
pos = (1224,-234);
},
{
name = Anchor8;
pos = (990,-29);
}
);
layerId = "DB7E4487-AAA8-4905-9B27-B72FA6056893";
shapes = (
{
closed = 1;
nodes = (
(352,-12,o),
(407,60,o),
(407,175,cs),
(407,290,o),
(351,352,o),
(253,352,cs),
(192,352,o),
(151,319,o),
(106,272,c),
(132,179,l),
(163,218,o),
(189,237,o),
(212,237,cs),
(239,237,o),
(258,221,o),
(258,172,cs),
(258,124,o),
(246,107,o),
(219,107,cs),
(187,107,o),
(172,141,o),
(172,221,cs),
(172,238,o),
(173,259,o),
(175,270,c),
(188,377,o),
(267,457,o),
(380,457,cs),
(458,457,o),
(515,432,o),
(562,389,c),
(615,343,o),
(638,273,o),
(638,185,cs),
(638,124,o),
(628,108,o),
(604,108,cs),
(585,108,o),
(572,126,o),
(572,187,cs),
(572,272,o),
(593,345,o),
(636,394,c),
(677,434,o),
(717,457,o),
(786,457,cs),
(861,457,o),
(910,434,o),
(948,396,c),
(998,341,o),
(1017,281,o),
(1017,190,cs),
(1017,124,o),
(1007,108,o),
(983,108,cs),
(964,108,o),
(951,126,o),
(951,194,cs),
(951,266,o),
(966,331,o),
(993,379,c),
(1025,421,l),
(1049,445,o),
(1078,457,o),
(1111,457,cs),
(1204,457,o),
(1238,361,o),
(1238,239,cs),
(1238,87,o),
(1186,-16,o),
(1097,-85,c),
(1086,-117,l),
(956,-197,o),
(727,-211,o),
(497,-211,cs),
(365,-211,ls),
(196,-211,o),
(170,-189,o),
(170,-170,cs),
(170,-159,o),
(176,-156,o),
(195,-156,cs),
(1106,-156,l),
(1169,-174,l),
(1541,-174,l),
(1548,-50,l),
(171,-50,ls),
(102,-50,o),
(75,-60,o),
(52,-80,cs),
(32,-97,o),
(22,-122,o),
(22,-153,cs),
(22,-257,o),
(108,-321,o),
(337,-321,cs),
(544,-321,ls),
(854,-321,o),
(1119,-280,o),
(1269,-140,c),
(1297,-87,l),
(1363,-4,o),
(1399,104,o),
(1399,246,cs),
(1399,437,o),
(1311,581,o),
(1124,581,cs),
(1040,581,o),
(978,552,o),
(931,507,c),
(897,457,l),
(837,382,o),
(808,313,o),
(808,202,cs),
(808,58,o),
(879,-12,o),
(981,-12,cs),
(1097,-12,o),
(1158,49,o),
(1158,196,cs),
(1158,313,o),
(1118,399,o),
(1050,467,c),
(1019,500,l),
(952,559,o),
(880,581,o),
(791,581,cs),
(704,581,o),
(626,560,o),
(564,507,c),
(527,462,ls),
(467,391,o),
(429,311,o),
(429,197,cs),
(429,58,o),
(500,-12,o),
(602,-12,cs),
(714,-12,o),
(779,49,o),
(779,191,cs),
(779,303,o),
(739,393,o),
(661,458,c),
(630,502,l),
(543,563,o),
(483,581,o),
(383,581,cs),
(167,581,o),
(30,451,o),
(30,249,cs),
(30,77,o),
(99,-12,o),
(223,-12,cs)
);
},
{
closed = 1;
nodes = (
(1631,-174,l),
(1631,445,l),
(1714,445,l),
(1714,-174,l),
(1875,-174,l),
(1875,445,l),
(1965,445,l),
(1965,569,l),
(1470,569,l),
(1470,-174,l)
);
}
);
width = 1981;
}
);
subCategory = Other;
},
{
category = Letter;
glyphname = tauvowelsigntamil;
lastChange = "2025-02-12 13:52:41 +0000";
layers = (
{
guides = (
{
pos = (326,-307);
},
{
angle = 270;
pos = (262,213);
}
);
hints = (
{
origin = (0,5);
target = (0,4);
type = Stem;
}
);
layerId = "DB7E4487-AAA8-4905-9B27-B72FA6056893";
shapes = (
{
closed = 1;
nodes = (
(519,-307,l),
(529,-307,ls),
(581,-307,o),
(609,-279,o),
(609,-227,cs),
(609,168,ls),
(609,226,o),
(577,258,o),
(519,258,cs),
(458,258,l),
(458,168,l),
(510,168,ls),
(515,168,o),
(519,164,o),
(519,159,cs)
);
},
{
closed = 1;
nodes = (
(718,-131,ls),
(770,-131,o),
(798,-103,o),
(798,-51,cs),
(799,480,ls),
(799,493,o),
(792,500,o),
(779,500,cs),
(729,500,ls),
(716,500,o),
(709,493,o),
(709,480,cs),
(708,-131,l)
);
},
{
closed = 1;
nodes = (
(49,-217,l),
(49,-227,ls),
(49,-279,o),
(77,-307,o),
(129,-307,cs),
(522,-307,l),
(522,-217,l)
);
},
{
closed = 1;
nodes = (
(499,-41,l),
(128,-41,ls),
(76,-41,o),
(48,-69,o),
(48,-121,cs),
(48,-131,l),
(499,-131,l)
);
},
{
closed = 1;
nodes = (
(138,-125,l),
(48,-125,l),
(49,-221,l),
(139,-221,l)
);
},
{
closed = 1;
nodes = (
(609,-41,l),
(519,-41,l),
(519,-131,l),
(609,-131,l)
);
},
{
closed = 1;
nodes = (
(232,168,l),
(328,168,l),
(328,258,l),
(232,258,l)
);
},
{
closed = 1;
nodes = (
(438,327,l),
(452,323,ls),
(464,320,o),
(473,323,o),
(477,336,cs),
(493,383,ls),
(497,396,o),
(492,404,o),
(480,408,cs),
(236,487,l),
(236,392,l)
);
},
{
closed = 1;
nodes = (
(242,278,l),
(242,485,l),
(209,496,ls),
(201,499,o),
(194,500,o),
(185,500,cs),
(172,500,ls),
(159,500,o),
(152,493,o),
(152,480,cs),
(152,278,l)
);
},
{
closed = 1;
nodes = (
(152,258,l),
(100,258,ls),
(48,258,o),
(20,230,o),
(20,178,cs),
(20,80,ls),
(20,28,o),
(48,0,o),
(100,0,cs),
(358,0,ls),
(410,0,o),
(438,28,o),
(438,80,cs),
(438,330,l),
(348,359,l),
(348,90,l),
(110,90,l),
(110,168,l),
(242,168,l),
(242,258,l)
);
},
{
closed = 1;
nodes = (
(629,-131,l),
(712,-131,l),
(712,-41,l),
(629,-41,l)
);
}
);
width = 819;
}
);
subCategory = Other;
},
{
category = Letter;
glyphname = tauuvowelsigntamil;
lastChange = "2022-02-22 17:00:18 +0000";
layers = (
{
anchors = (
{
name = Anchor10;
pos = (654,-29);
},
{
name = Anchor12;
pos = (719,-234);
},
{
name = Anchor8;
pos = (654,-29);
}
);
layerId = "DB7E4487-AAA8-4905-9B27-B72FA6056893";
shapes = (
{
closed = 1;
nodes = (
(335,-12,o),
(396,10,o),
(433,52,cs),
(473,96,o),
(488,151,o),
(488,253,cs),
(488,445,l),
(626,445,l),
(626,569,l),
(95,569,l),
(95,286,l),
(240,302,l),
(240,445,l),
(331,445,l),
(331,217,ls),
(331,138,o),
(298,112,o),
(246,112,cs),
(210,112,o),
(183,128,o),
(183,170,cs),
(183,191,o),
(189,206,o),
(201,217,cs),
(217,232,o),
(240,237,o),
(291,237,cs),
(388,237,ls),
(506,237,o),
(580,195,o),
(580,61,cs),
(580,4,o),
(568,-42,o),
(547,-81,c),
(536,-126,l),
(489,-182,o),
(426,-211,o),
(300,-211,cs),
(285,-211,ls),
(199,-211,o),
(170,-191,o),
(170,-170,cs),
(170,-159,o),
(176,-156,o),
(195,-156,cs),
(541,-156,l),
(580,-174,l),
(890,-174,l),
(846,-50,l),
(171,-50,ls),
(102,-50,o),
(75,-60,o),
(52,-80,cs),
(32,-97,o),
(22,-122,o),
(22,-153,cs),
(22,-257,o),
(111,-321,o),
(285,-321,cs),
(300,-321,ls),
(501,-321,o),
(632,-258,o),
(698,-144,c),
(705,-97,l),
(721,-53,o),
(733,-2,o),
(733,58,cs),
(733,283,o),
(586,352,o),
(414,352,cs),
(313,352,ls),
(121,352,o),
(28,278,o),
(28,167,cs),
(28,52,o),
(102,-12,o),
(248,-12,cs)
);
},
{
closed = 1;
nodes = (
(959,-174,l),
(959,445,l),
(1042,445,l),
(1042,-174,l),
(1203,-174,l),
(1203,445,l),
(1293,445,l),
(1293,569,l),
(798,569,l),
(798,-174,l)
);
}
);
width = 1309;
}
);
subCategory = Other;
},
{
category = Letter;
glyphname = nauvowelsigntamil;
lastChange = "2022-02-22 17:00:18 +0000";
layers = (
{
anchors = (
{
name = Anchor10;
pos = (493,-29);
},
{
name = Anchor12;
pos = (666,-234);
},
{
name = Anchor8;
pos = (493,-29);
}
);
layerId = "DB7E4487-AAA8-4905-9B27-B72FA6056893";
shapes = (
{
closed = 1;
nodes = (
(494,370,o),
(456,361,o),
(419,338,c),
(434,227,l),
(450,238,o),
(467,246,o),
(483,246,cs),
(520,246,o),
(543,215,o),
(543,113,cs),
(543,39,o),
(532,-32,o),
(502,-88,c),
(496,-120,l),
(455,-176,o),
(380,-211,o),
(286,-211,cs),
(271,-211,ls),
(196,-211,o),
(170,-191,o),
(170,-170,cs),
(170,-159,o),
(176,-156,o),
(195,-156,cs),
(512,-156,l),
(536,-174,l),
(934,-174,l),
(934,569,l),
(773,569,l),
(773,-50,l),
(171,-50,ls),
(102,-50,o),
(75,-60,o),
(52,-80,cs),
(32,-97,o),
(22,-122,o),
(22,-153,cs),
(22,-257,o),
(111,-321,o),
(269,-321,cs),
(285,-321,ls),
(481,-321,o),
(607,-234,o),
(664,-123,c),
(669,-88,l),
(692,-26,o),
(701,43,o),
(701,115,cs),
(701,271,o),
(650,370,o),
(531,370,cs)
);
},
{
closed = 1;
nodes = (
(214,0,l),
(214,445,l),
(293,445,l),
(293,0,l),
(454,0,l),
(454,445,l),
(544,445,l),
(544,569,l),
(53,569,l),
(53,0,l)
);
}
);
width = 987;
}
);
subCategory = Other;
},
{
category = Letter;
glyphname = nauuvowelsigntamil;
lastChange = "2022-02-22 17:00:18 +0000";
layers = (
{
anchors = (
{
name = Anchor10;
pos = (642,-29);
},
{
name = Anchor12;
pos = (666,-234);
},
{
name = Anchor8;
pos = (642,-29);
}
);
layerId = "DB7E4487-AAA8-4905-9B27-B72FA6056893";
shapes = (
{
closed = 1;
nodes = (
(494,370,o),
(456,361,o),
(419,338,c),
(434,227,l),
(450,238,o),
(467,246,o),
(483,246,cs),
(520,246,o),
(543,215,o),
(543,113,cs),
(543,39,o),
(532,-32,o),
(502,-88,c),
(496,-120,l),
(455,-176,o),
(380,-211,o),
(286,-211,cs),
(271,-211,ls),
(196,-211,o),
(170,-191,o),
(170,-170,cs),
(170,-159,o),
(176,-156,o),
(195,-156,cs),
(512,-156,l),
(536,-174,l),
(852,-174,l),
(851,-50,l),
(171,-50,ls),
(102,-50,o),
(75,-60,o),
(52,-80,cs),
(32,-97,o),
(22,-122,o),
(22,-153,cs),
(22,-257,o),
(111,-321,o),
(269,-321,cs),
(285,-321,ls),
(481,-321,o),
(607,-234,o),
(664,-123,c),
(669,-88,l),
(692,-26,o),
(701,43,o),
(701,115,cs),
(701,271,o),
(650,370,o),
(531,370,cs)
);
},
{
closed = 1;
nodes = (
(214,0,l),
(214,445,l),
(293,445,l),
(293,0,l),
(454,0,l),
(454,445,l),
(544,445,l),
(544,569,l),
(53,569,l),
(53,0,l)
);
},
{
closed = 1;
nodes = (
(934,-174,l),
(934,445,l),
(1017,445,l),
(1017,-174,l),
(1178,-174,l),
(1178,445,l),
(1268,445,l),
(1268,569,l),
(773,569,l),
(773,-174,l)
);
}
);
width = 1284;
}
);
subCategory = Other;
},
{
category = Letter;
glyphname = nnnauvowelsigntamil;
lastChange = "2022-02-22 17:00:18 +0000";
layers = (
{
anchors = (
{
name = Anchor10;
pos = (652,-29);
},
{
name = Anchor12;
pos = (905,-234);
},
{
name = Anchor8;
pos = (652,-29);
}
);
layerId = "DB7E4487-AAA8-4905-9B27-B72FA6056893";
shapes = (
{
closed = 1;
nodes = (
(352,-12,o),
(407,60,o),
(407,175,cs),
(407,290,o),
(351,352,o),
(253,352,cs),
(192,352,o),
(151,319,o),
(106,272,c),
(132,179,l),
(163,218,o),
(189,237,o),
(212,237,cs),
(239,237,o),
(258,221,o),
(258,172,cs),
(258,124,o),
(246,107,o),
(219,107,cs),
(187,107,o),
(172,141,o),
(172,221,cs),
(172,238,o),
(173,259,o),
(175,270,c),
(188,377,o),
(267,457,o),
(380,457,cs),
(458,457,o),
(515,432,o),
(562,389,c),
(615,343,o),
(638,273,o),
(638,185,cs),
(638,124,o),
(628,108,o),
(604,108,cs),
(585,108,o),
(572,126,o),
(572,194,cs),
(572,266,o),
(587,331,o),
(614,379,c),
(646,421,l),
(670,445,o),
(699,457,o),
(732,457,cs),
(825,457,o),
(859,361,o),
(859,239,cs),
(859,114,o),
(827,7,o),
(757,-72,c),
(742,-116,l),
(643,-194,o),
(515,-211,o),
(369,-211,cs),
(316,-211,ls),
(199,-211,o),
(170,-189,o),
(170,-170,cs),
(170,-159,o),
(176,-156,o),
(195,-156,cs),
(825,-156,l),
(822,-174,l),
(1172,-174,l),
(1179,-50,l),
(171,-50,ls),
(102,-50,o),
(75,-60,o),
(52,-80,cs),
(32,-97,o),
(22,-122,o),
(22,-153,cs),
(22,-257,o),
(111,-321,o),
(313,-321,cs),
(380,-321,ls),
(653,-321,o),
(808,-260,o),
(915,-141,c),
(933,-89,l),
(989,-2,o),
(1020,109,o),
(1020,246,cs),
(1020,437,o),
(932,581,o),
(744,581,cs),
(664,581,o),
(599,552,o),
(552,507,c),
(518,457,l),
(458,382,o),
(429,313,o),
(429,202,cs),
(429,58,o),
(500,-12,o),
(602,-12,cs),
(714,-12,o),
(779,49,o),
(779,191,cs),
(779,303,o),
(739,393,o),
(661,458,c),
(630,502,l),
(543,563,o),
(483,581,o),
(383,581,cs),
(167,581,o),
(30,451,o),
(30,249,cs),
(30,77,o),
(99,-12,o),
(223,-12,cs)
);
},
{
closed = 1;
nodes = (
(1252,-174,l),
(1252,569,l),
(1091,569,l),
(1091,-174,l)
);
}
);
width = 1305;
}
);
subCategory = Other;
},
{
category = Letter;
glyphname = nnnauuvowelsigntamil;
lastChange = "2022-02-22 17:00:18 +0000";
layers = (
{
anchors = (
{
name = Anchor10;
pos = (801,-29);
},
{
name = Anchor12;
pos = (905,-234);
},
{
name = Anchor8;
pos = (801,-29);
}
);
layerId = "DB7E4487-AAA8-4905-9B27-B72FA6056893";
shapes = (
{
closed = 1;
nodes = (
(352,-12,o),
(407,60,o),
(407,175,cs),
(407,290,o),
(351,352,o),
(253,352,cs),
(192,352,o),
(151,319,o),
(106,272,c),
(132,179,l),
(163,218,o),
(189,237,o),
(212,237,cs),
(239,237,o),
(258,221,o),
(258,172,cs),
(258,124,o),
(246,107,o),
(219,107,cs),
(187,107,o),
(172,141,o),
(172,221,cs),
(172,238,o),
(173,259,o),
(175,270,c),
(188,377,o),
(267,457,o),
(380,457,cs),
(458,457,o),
(515,432,o),
(562,389,c),
(615,343,o),
(638,273,o),
(638,185,cs),
(638,124,o),
(628,108,o),
(604,108,cs),
(585,108,o),
(572,126,o),
(572,194,cs),
(572,266,o),
(587,331,o),
(614,379,c),
(646,421,l),
(670,445,o),
(699,457,o),
(732,457,cs),
(825,457,o),
(859,361,o),
(859,239,cs),
(859,114,o),
(827,7,o),
(757,-72,c),
(742,-116,l),
(643,-194,o),
(515,-211,o),
(369,-211,cs),
(316,-211,ls),
(199,-211,o),
(170,-189,o),
(170,-170,cs),
(170,-159,o),
(176,-156,o),
(195,-156,cs),
(825,-156,l),
(822,-174,l),
(1172,-174,l),
(1179,-50,l),
(171,-50,ls),
(102,-50,o),
(75,-60,o),
(52,-80,cs),
(32,-97,o),
(22,-122,o),
(22,-153,cs),
(22,-257,o),
(111,-321,o),
(313,-321,cs),
(380,-321,ls),
(653,-321,o),
(808,-260,o),
(915,-141,c),
(933,-89,l),
(989,-2,o),
(1020,109,o),
(1020,246,cs),
(1020,437,o),
(932,581,o),
(744,581,cs),
(664,581,o),
(599,552,o),
(552,507,c),
(518,457,l),
(458,382,o),
(429,313,o),
(429,202,cs),
(429,58,o),
(500,-12,o),
(602,-12,cs),
(714,-12,o),
(779,49,o),
(779,191,cs),
(779,303,o),
(739,393,o),
(661,458,c),
(630,502,l),
(543,563,o),
(483,581,o),
(383,581,cs),
(167,581,o),
(30,451,o),
(30,249,cs),
(30,77,o),
(99,-12,o),
(223,-12,cs)
);
},
{
closed = 1;
nodes = (
(1252,-174,l),
(1252,445,l),
(1335,445,l),
(1335,-174,l),
(1496,-174,l),
(1496,445,l),
(1586,445,l),
(1586,569,l),
(1091,569,l),
(1091,-174,l)
);
}
);
width = 1602;
}
);
subCategory = Other;
},
{
category = Letter;
glyphname = paiivowelsigntamil;
lastChange = "2022-02-22 17:00:18 +0000";
layers = (
{
anchors = (
{
name = Anchor10;
pos = (329,-29);
},
{
name = Anchor12;
pos = (329,-78);
}
);
layerId = "DB7E4487-AAA8-4905-9B27-B72FA6056893";
shapes = (
{
closed = 1;
nodes = (
(605,0,l),
(605,569,l),
(444,569,l),
(444,124,l),
(214,124,l),
(214,569,l),
(53,569,l),
(53,0,l)
);
},
{
closed = 1;
nodes = (
(332,851,o),
(254,751,o),
(254,627,cs),
(254,528,o),
(305,420,o),
(452,381,c),
(458,515,l),
(411,534,o),
(384,576,o),
(384,629,cs),
(384,680,o),
(401,712,o),
(430,733,c),
(447,743,o),
(469,750,o),
(501,750,cs),
(536,750,o),
(551,734,o),
(551,707,cs),
(551,682,o),
(541,669,o),
(524,669,cs),
(503,669,o),
(494,682,o),
(494,706,cs),
(494,747,o),
(516,771,o),
(552,808,c),
(486,842,l),
(436,795,o),
(401,747,o),
(401,697,cs),
(401,633,o),
(434,582,o),
(532,582,cs),
(622,582,o),
(670,626,o),
(670,708,cs),
(670,791,o),
(612,851,o),
(490,851,cs)
);
}
);
width = 658;
}
);
subCategory = Other;
},
{
category = Letter;
glyphname = pauvowelsigntamil;
lastChange = "2022-02-22 17:00:18 +0000";
layers = (
{
anchors = (
{
name = Anchor10;
pos = (329,-29);
},
{
name = Anchor12;
pos = (289,-78);
},
{
name = Anchor8;
pos = (329,-29);
}
);
layerId = "DB7E4487-AAA8-4905-9B27-B72FA6056893";
shapes = (
{
closed = 1;
nodes = (
(605,-283,l),
(605,569,l),
(444,569,l),
(444,124,l),
(214,124,l),
(214,569,l),
(53,569,l),
(53,0,l),
(444,0,l),
(444,-283,l)
);
}
);
width = 658;
}
);
subCategory = Other;
},
{
category = Letter;
glyphname = pauuvowelsigntamil;
lastChange = "2022-02-22 17:00:18 +0000";
layers = (
{
anchors = (
{
name = Anchor10;
pos = (419,-29);
},
{
name = Anchor12;
pos = (390,-317);
},
{
name = Anchor8;
pos = (419,-29);
}
);
layerId = "DB7E4487-AAA8-4905-9B27-B72FA6056893";
shapes = (
{
closed = 1;
nodes = (
(605,-137,l),
(605,569,l),
(444,569,l),
(444,124,l),
(214,124,l),
(214,569,l),
(53,569,l),
(53,0,l),
(444,0,l),
(444,-137,l)
);
},
{
closed = 1;
nodes = (
(610,130,o),
(573,107,o),
(543,86,c),
(556,-20,l),
(591,2,o),
(606,10,o),
(632,10,cs),
(662,10,o),
(685,-9,o),
(685,-53,cs),
(685,-148,o),
(569,-200,o),
(391,-200,cs),
(382,-200,ls),
(240,-200,o),
(194,-176,o),
(194,-150,cs),
(194,-136,o),
(202,-128,o),
(233,-128,cs),
(249,-128,o),
(271,-132,o),
(288,-136,c),
(308,-24,l),
(285,-18,o),
(259,-13,o),
(214,-13,cs),
(115,-13,o),
(50,-60,o),
(50,-143,cs),
(50,-248,o),
(139,-321,o),
(371,-321,cs),
(399,-321,ls),
(679,-321,o),
(837,-228,o),
(837,-43,cs),
(837,68,o),
(770,130,o),
(675,130,cs)
);
}
);
width = 838;
}
);
subCategory = Other;
},
{
category = Letter;
glyphname = maiivowelsigntamil;
lastChange = "2022-02-22 17:00:18 +0000";
layers = (
{
anchors = (
{
name = Anchor10;
pos = (373,-29);
},
{
name = Anchor12;
pos = (373,-78);
}
);
layerId = "DB7E4487-AAA8-4905-9B27-B72FA6056893";
shapes = (
{
closed = 1;
nodes = (
(400,851,o),
(329,747,o),
(329,646,cs),
(329,586,o),
(341,536,o),
(361,497,c),
(487,536,l),
(472,562,o),
(462,591,o),
(462,626,cs),
(462,678,o),
(479,711,o),
(508,732,c),
(526,747,o),
(558,750,o),
(590,750,cs),
(625,750,o),
(640,734,o),
(640,707,cs),
(640,682,o),
(630,669,o),
(613,669,cs),
(592,669,o),
(583,682,o),
(583,706,cs),
(583,747,o),
(605,771,o),
(641,808,c),
(575,842,l),
(525,795,o),
(490,747,o),
(490,697,cs),
(490,633,o),
(523,582,o),
(621,582,cs),
(711,582,o),
(759,626,o),
(759,707,cs),
(759,791,o),
(700,851,o),
(568,851,cs)
);
},
{
ref = matamil;
}
);
width = 751;
}
);
subCategory = Other;
},
{
category = Letter;
glyphname = mauvowelsigntamil;
lastChange = "2022-02-22 17:00:18 +0000";
layers = (
{
anchors = (
{
name = Anchor10;
pos = (495,-29);
},
{
name = Anchor12;
pos = (713,-234);
},
{
name = Anchor8;
pos = (495,-29);
}
);
layerId = "DB7E4487-AAA8-4905-9B27-B72FA6056893";
shapes = (
{
closed = 1;
nodes = (
(556,-311,o),
(690,-220,o),
(709,31,c),
(553,45,l),
(542,-99,o),
(498,-185,o),
(375,-185,cs),
(230,-185,o),
(189,-49,o),
(189,118,cs),
(189,137,ls),
(189,267,o),
(220,397,o),
(278,512,c),
(144,581,l),
(69,434,o),
(39,285,o),
(39,136,cs),
(39,119,ls),
(39,-113,o),
(128,-311,o),
(374,-311,cs)
);
},
{
closed = 1;
nodes = (
(678,581,o),
(636,566,o),
(607,540,cs),
(569,506,o),
(550,460,o),
(550,384,cs),
(550,124,l),
(451,124,l),
(451,569,l),
(290,569,l),
(290,0,l),
(687,0,ls),
(783,0,o),
(831,15,o),
(873,47,cs),
(927,88,o),
(958,161,o),
(958,276,cs),
(958,460,o),
(894,581,o),
(733,581,cs)
);
},
{
closed = 1;
nodes = (
(780,457,o),
(797,386,o),
(797,275,cs),
(797,153,o),
(767,124,o),
(712,124,c),
(711,124,l),
(711,394,ls),
(711,431,o),
(715,440,o),
(722,448,cs),
(728,455,o),
(736,457,o),
(743,457,cs)
);
}
);
width = 990;
}
);
subCategory = Other;
},
{
category = Letter;
glyphname = mauuvowelsigntamil;
lastChange = "2022-02-22 17:00:18 +0000";
layers = (
{
anchors = (
{
name = Anchor10;
pos = (564,-29);
},
{
name = Anchor12;
pos = (849,-234);
},
{
name = Anchor8;
pos = (564,-29);
}
);
layerId = "DB7E4487-AAA8-4905-9B27-B72FA6056893";
shapes = (
{
closed = 1;
nodes = (
(730,-311,o),
(827,-175,o),
(849,31,c),
(693,45,l),
(679,-89,o),
(636,-184,o),
(476,-184,cs),
(292,-184,o),
(183,-59,o),
(183,220,cs),
(183,251,o),
(183,285,o),
(184,306,cs),
(190,416,o),
(211,461,o),
(241,461,cs),
(259,461,o),
(272,445,o),
(272,403,cs),
(272,344,o),
(256,333,o),
(228,333,cs),
(201,333,o),
(183,345,o),
(152,387,c),
(107,287,l),
(137,249,o),
(187,213,o),
(254,213,cs),
(369,213,o),
(407,295,o),
(407,406,cs),
(407,497,o),
(365,581,o),
(247,581,cs),
(123,581,o),
(39,468,o),
(39,246,cs),
(39,-168,o),
(216,-311,o),
(472,-311,cs)
);
},
{
closed = 1;
nodes = (
(816,581,o),
(774,566,o),
(745,540,cs),
(707,506,o),
(688,460,o),
(688,384,cs),
(688,124,l),
(589,124,l),
(589,569,l),
(428,569,l),
(428,0,l),
(825,0,ls),
(921,0,o),
(969,15,o),
(1011,47,cs),
(1065,88,o),
(1096,161,o),
(1096,276,cs),
(1096,460,o),
(1032,581,o),
(871,581,cs)
);
},
{
closed = 1;
nodes = (
(918,457,o),
(935,386,o),
(935,275,cs),
(935,153,o),
(905,124,o),
(850,124,c),
(849,124,l),
(849,394,ls),
(849,431,o),
(853,440,o),
(860,448,cs),
(866,455,o),
(874,457,o),
(881,457,cs)
);
}
);
width = 1128;
}
);
subCategory = Other;
},
{
category = Letter;
glyphname = yaiivowelsigntamil;
lastChange = "2022-02-22 17:00:18 +0000";
layers = (
{
anchors = (
{
name = Anchor10;
pos = (416,-29);
},
{
name = Anchor12;
pos = (416,-78);
}
);
layerId = "DB7E4487-AAA8-4905-9B27-B72FA6056893";
shapes = (
{
closed = 1;
nodes = (
(779,0,l),
(779,569,l),
(618,569,l),
(618,124,l),
(454,124,l),
(454,569,l),
(293,569,l),
(293,0,l)
);
},
{
closed = 1;
nodes = (
(264,-12,o),
(296,14,o),
(324,48,c),
(315,152,l),
(299,127,o),
(282,111,o),
(256,111,cs),
(243,111,o),
(235,114,o),
(228,120,cs),
(216,131,o),
(213,151,o),
(213,189,cs),
(213,569,l),
(52,569,l),
(52,215,ls),
(52,119,o),
(64,70,o),
(94,33,cs),
(117,5,o),
(151,-12,o),
(199,-12,cs)
);
},
{
closed = 1;
nodes = (
(506,851,o),
(428,751,o),
(428,627,cs),
(428,528,o),
(479,420,o),
(626,381,c),
(632,515,l),
(585,534,o),
(558,576,o),
(558,629,cs),
(558,680,o),
(575,712,o),
(604,733,c),
(621,743,o),
(643,750,o),
(675,750,cs),
(710,750,o),
(725,734,o),
(725,707,cs),
(725,682,o),
(715,669,o),
(698,669,cs),
(677,669,o),
(668,682,o),
(668,706,cs),
(668,747,o),
(690,771,o),
(726,808,c),
(660,842,l),
(610,795,o),
(575,747,o),
(575,697,cs),
(575,633,o),
(608,582,o),
(706,582,cs),
(796,582,o),
(844,626,o),
(844,708,cs),
(844,791,o),
(786,851,o),
(664,851,cs)
);
}
);
width = 832;
}
);
subCategory = Other;
},
{
category = Letter;
glyphname = yauvowelsigntamil;
lastChange = "2022-02-22 17:00:18 +0000";
layers = (
{
anchors = (
{
name = Anchor10;
pos = (416,-29);
},
{
name = Anchor12;
pos = (416,-78);
},
{
name = Anchor8;
pos = (416,-29);
}
);
layerId = "DB7E4487-AAA8-4905-9B27-B72FA6056893";
shapes = (
{
closed = 1;
nodes = (
(779,0,l),
(779,569,l),
(618,569,l),
(618,124,l),
(454,124,l),
(454,569,l),
(293,569,l),
(293,0,l)
);
},
{
closed = 1;
nodes = (
(264,-12,o),
(296,14,o),
(324,48,c),
(315,152,l),
(299,127,o),
(282,111,o),
(256,111,cs),
(243,111,o),
(235,114,o),
(228,120,cs),
(216,131,o),
(213,151,o),
(213,189,cs),
(213,569,l),
(52,569,l),
(52,215,ls),
(52,119,o),
(64,70,o),
(94,33,cs),
(117,5,o),
(151,-12,o),
(199,-12,cs)
);
},
{
closed = 1;
nodes = (
(779,-283,l),
(779,73,l),
(618,73,l),
(618,-283,l)
);
}
);
width = 832;
}
);
subCategory = Other;
},
{
category = Letter;
glyphname = yauuvowelsigntamil;
lastChange = "2022-02-22 17:00:18 +0000";
layers = (
{
anchors = (
{
name = Anchor10;
pos = (506,-29);
},
{
name = Anchor12;
pos = (484,-37);
},
{
name = Anchor8;
pos = (506,-29);
}
);
layerId = "DB7E4487-AAA8-4905-9B27-B72FA6056893";
shapes = (
{
closed = 1;
nodes = (
(784,130,o),
(747,107,o),
(717,86,c),
(730,-20,l),
(765,2,o),
(780,10,o),
(806,10,cs),
(836,10,o),
(859,-9,o),
(859,-53,cs),
(859,-92,o),
(840,-120,o),
(810,-141,cs),
(737,-192,o),
(591,-200,o),
(481,-200,cs),
(461,-200,ls),
(254,-200,o),
(195,-178,o),
(195,-150,cs),
(195,-136,o),
(203,-128,o),
(234,-128,cs),
(264,-128,o),
(299,-135,o),
(335,-145,c),
(360,-35,l),
(315,-22,o),
(268,-13,o),
(215,-13,cs),
(116,-13,o),
(51,-60,o),
(51,-143,cs),
(51,-201,o),
(80,-239,o),
(123,-266,cs),
(193,-309,o),
(300,-321,o),
(462,-321,cs),
(476,-321,ls),
(663,-321,o),
(828,-301,o),
(919,-230,cs),
(977,-185,o),
(1011,-130,o),
(1011,-43,cs),
(1011,68,o),
(944,130,o),
(849,130,cs)
);
},
{
closed = 1;
nodes = (
(779,0,l),
(779,569,l),
(618,569,l),
(618,124,l),
(454,124,l),
(454,569,l),
(293,569,l),
(293,0,l)
);
},
{
closed = 1;
nodes = (
(264,-12,o),
(296,14,o),
(324,48,c),
(315,152,l),
(299,127,o),
(282,111,o),
(256,111,cs),
(243,111,o),
(235,114,o),
(228,120,cs),
(216,131,o),
(213,151,o),
(213,189,cs),
(213,569,l),
(52,569,l),
(52,215,ls),
(52,119,o),
(64,70,o),
(94,33,cs),
(117,5,o),
(151,-12,o),
(199,-12,cs)
);
},
{
closed = 1;
nodes = (
(779,-133,l),
(779,73,l),
(618,73,l),
(618,-133,l)
);
}
);
width = 1012;
}
);
subCategory = Other;
},
{
category = Letter;
glyphname = rauvowelsigntamil;
lastChange = "2022-02-22 17:00:18 +0000";
layers = (
{
anchors = (
{
name = Anchor10;
pos = (479,-29);
},
{
name = Anchor12;
pos = (489,-29);
},
{
name = Anchor8;
pos = (479,-29);
}
);
layerId = "DB7E4487-AAA8-4905-9B27-B72FA6056893";
shapes = (
{
closed = 1;
nodes = (
(724,346,o),
(687,336,o),
(657,315,c),
(669,206,l),
(683,216,o),
(698,222,o),
(715,222,cs),
(747,222,o),
(770,190,o),
(770,82,cs),
(770,-94,o),
(690,-193,o),
(492,-193,cs),
(487,-193,ls),
(286,-193,o),
(189,-71,o),
(189,143,cs),
(189,156,ls),
(189,279,o),
(220,397,o),
(278,512,c),
(144,581,l),
(68,434,o),
(39,308,o),
(39,154,cs),
(39,140,ls),
(39,-220,o),
(277,-321,o),
(487,-321,cs),
(491,-321,ls),
(743,-321,o),
(930,-209,o),
(930,88,cs),
(930,255,o),
(868,346,o),
(761,346,cs)
);
},
{
closed = 1;
nodes = (
(451,0,l),
(451,445,l),
(530,445,l),
(530,0,l),
(691,0,l),
(691,445,l),
(781,445,l),
(781,569,l),
(290,569,l),
(290,0,l)
);
}
);
width = 959;
}
);
subCategory = Other;
},
{
category = Letter;
glyphname = rauuvowelsigntamil;
lastChange = "2022-02-22 17:00:18 +0000";
layers = (
{
anchors = (
{
name = Anchor10;
pos = (548,-29);
},
{
name = Anchor12;
pos = (581,-29);
},
{
name = Anchor8;
pos = (548,-29);
}
);
layerId = "DB7E4487-AAA8-4905-9B27-B72FA6056893";
shapes = (
{
closed = 1;
nodes = (
(862,346,o),
(825,336,o),
(795,315,c),
(807,206,l),
(821,216,o),
(836,222,o),
(853,222,cs),
(885,222,o),
(908,190,o),
(908,81,cs),
(908,-96,o),
(799,-192,o),
(581,-192,cs),
(564,-192,ls),
(345,-192,o),
(183,-87,o),
(183,219,cs),
(183,251,o),
(183,285,o),
(184,306,cs),
(190,416,o),
(211,461,o),
(241,461,cs),
(259,461,o),
(272,445,o),
(272,403,cs),
(272,344,o),
(256,333,o),
(228,333,cs),
(201,333,o),
(183,345,o),
(152,387,c),
(107,287,l),
(137,249,o),
(187,213,o),
(254,213,cs),
(369,213,o),
(407,295,o),
(407,406,cs),
(407,497,o),
(366,581,o),
(249,581,cs),
(118,581,o),
(39,465,o),
(39,239,cs),
(39,-186,o),
(271,-321,o),
(564,-321,cs),
(584,-321,ls),
(851,-321,o),
(1068,-207,o),
(1068,88,cs),
(1068,255,o),
(1006,346,o),
(899,346,cs)
);
},
{
closed = 1;
nodes = (
(589,0,l),
(589,445,l),
(668,445,l),
(668,0,l),
(829,0,l),
(829,445,l),
(919,445,l),
(919,569,l),
(428,569,l),
(428,0,l)
);
}
);
width = 1097;
}
);
subCategory = Other;
},
{
category = Letter;
glyphname = rrauvowelsigntamil;
lastChange = "2022-02-22 17:00:18 +0000";
layers = (
{
anchors = (
{
name = Anchor10;
pos = (532,-29);
},
{
name = Anchor12;
pos = (719,-234);
},
{
name = Anchor8;
pos = (532,-29);
}
);
layerId = "DB7E4487-AAA8-4905-9B27-B72FA6056893";
shapes = (
{
closed = 1;
nodes = (
(450,581,o),
(393,533,o),
(349,445,c),
(408,439,l),
(382,528,o),
(330,581,o),
(237,581,cs),
(181,581,o),
(148,568,o),
(118,542,cs),
(71,501,o),
(52,449,o),
(52,329,cs),
(52,0,l),
(213,0,l),
(213,354,ls),
(213,410,o),
(218,431,o),
(230,445,cs),
(237,453,o),
(247,457,o),
(258,457,cs),
(269,457,o),
(278,453,o),
(285,445,cs),
(298,429,o),
(300,408,o),
(300,355,cs),
(300,0,l),
(461,0,l),
(461,335,ls),
(461,389,o),
(469,418,o),
(484,437,cs),
(495,451,o),
(510,457,o),
(529,457,cs),
(584,457,o),
(613,393,o),
(613,225,cs),
(613,124,o),
(593,-12,o),
(551,-76,c),
(543,-119,l),
(495,-177,o),
(412,-211,o),
(300,-211,cs),
(285,-211,ls),
(199,-211,o),
(170,-189,o),
(170,-170,cs),
(170,-159,o),
(176,-156,o),
(195,-156,cs),
(597,-156,l),
(629,-174,l),
(888,-174,l),
(888,-50,l),
(171,-50,ls),
(102,-50,o),
(75,-60,o),
(52,-80,cs),
(32,-97,o),
(22,-122,o),
(22,-153,cs),
(22,-257,o),
(114,-321,o),
(280,-321,cs),
(308,-321,ls),
(504,-321,o),
(634,-249,o),
(712,-128,c),
(718,-84,l),
(758,5,o),
(777,109,o),
(777,240,cs),
(777,459,o),
(695,581,o),
(548,581,cs)
);
},
{
closed = 1;
nodes = (
(1012,-174,l),
(1012,569,l),
(851,569,l),
(851,-174,l)
);
}
);
width = 1065;
}
);
subCategory = Other;
},
{
category = Letter;
glyphname = rrauuvowelsigntamil;
lastChange = "2022-02-22 17:00:18 +0000";
layers = (
{
anchors = (
{
name = Anchor10;
pos = (681,-29);
},
{
name = Anchor12;
pos = (719,-234);
},
{
name = Anchor8;
pos = (681,-29);
}
);
layerId = "DB7E4487-AAA8-4905-9B27-B72FA6056893";
shapes = (
{
closed = 1;
nodes = (
(450,581,o),
(393,533,o),
(349,445,c),
(408,439,l),
(382,528,o),
(330,581,o),
(237,581,cs),
(181,581,o),
(148,568,o),
(118,542,cs),
(71,501,o),
(52,449,o),
(52,329,cs),
(52,0,l),
(213,0,l),
(213,354,ls),
(213,410,o),
(218,431,o),
(230,445,cs),
(237,453,o),
(247,457,o),
(258,457,cs),
(269,457,o),
(278,453,o),
(285,445,cs),
(298,429,o),
(300,408,o),
(300,355,cs),
(300,0,l),
(461,0,l),
(461,335,ls),
(461,389,o),
(469,418,o),
(484,437,cs),
(495,451,o),
(510,457,o),
(529,457,cs),
(584,457,o),
(613,393,o),
(613,225,cs),
(613,124,o),
(593,-12,o),
(551,-76,c),
(543,-119,l),
(495,-177,o),
(412,-211,o),
(300,-211,cs),
(285,-211,ls),
(199,-211,o),
(170,-189,o),
(170,-170,cs),
(170,-159,o),
(176,-156,o),
(195,-156,cs),
(597,-156,l),
(629,-174,l),
(888,-174,l),
(888,-50,l),
(171,-50,ls),
(102,-50,o),
(75,-60,o),
(52,-80,cs),
(32,-97,o),
(22,-122,o),
(22,-153,cs),
(22,-257,o),
(114,-321,o),
(280,-321,cs),
(308,-321,ls),
(504,-321,o),
(634,-249,o),
(712,-128,c),
(718,-84,l),
(758,5,o),
(777,109,o),
(777,240,cs),
(777,459,o),
(695,581,o),
(548,581,cs)
);
},
{
closed = 1;
nodes = (
(1012,-174,l),
(1012,445,l),
(1095,445,l),
(1095,-174,l),
(1256,-174,l),
(1256,445,l),
(1346,445,l),
(1346,569,l),
(851,569,l),
(851,-174,l)
);
}
);
width = 1362;
}
);
subCategory = Other;
},
{
category = Letter;
glyphname = laivowelsigntamil;
lastChange = "2022-02-22 17:00:18 +0000";
layers = (
{
anchors = (
{
name = Anchor10;
pos = (457,-29);
},
{
name = Anchor12;
pos = (457,-78);
},
{
name = Anchor8;
pos = (457,-29);
}
);
layerId = "DB7E4487-AAA8-4905-9B27-B72FA6056893";
shapes = (
{
closed = 1;
nodes = (
(644,851,o),
(539,744,o),
(539,603,cs),
(539,444,o),
(634,370,o),
(767,359,c),
(766,467,l),
(701,489,o),
(679,528,o),
(679,595,cs),
(679,674,o),
(729,729,o),
(820,729,cs),
(859,729,o),
(887,720,o),
(908,703,cs),
(958,664,o),
(967,585,o),
(967,458,cs),
(967,0,l),
(1128,0,l),
(1128,474,ls),
(1128,662,o),
(1100,732,o),
(1022,793,cs),
(975,830,o),
(902,851,o),
(824,851,cs)
);
},
{
closed = 1;
nodes = (
(352,-12,o),
(407,60,o),
(407,175,cs),
(407,290,o),
(351,352,o),
(253,352,cs),
(192,352,o),
(151,318,o),
(106,272,c),
(132,179,l),
(163,218,o),
(189,237,o),
(212,237,cs),
(239,237,o),
(258,221,o),
(258,172,cs),
(258,124,o),
(246,107,o),
(219,107,cs),
(187,107,o),
(172,142,o),
(172,222,cs),
(172,377,o),
(233,457,o),
(327,457,cs),
(365,457,o),
(391,445,o),
(409,419,cs),
(432,385,o),
(444,311,o),
(448,234,cs),
(453,131,o),
(471,76,o),
(515,35,cs),
(550,3,o),
(592,-12,o),
(664,-12,cs),
(824,-12,o),
(882,101,o),
(882,263,cs),
(882,373,o),
(860,471,o),
(806,570,c),
(662,492,l),
(698,411,o),
(721,342,o),
(721,236,cs),
(721,144,o),
(707,112,o),
(666,112,cs),
(650,112,o),
(638,117,o),
(630,128,cs),
(615,147,o),
(610,175,o),
(608,255,cs),
(604,396,o),
(578,485,o),
(501,539,cs),
(463,566,o),
(411,581,o),
(345,581,cs),
(160,581,o),
(30,464,o),
(30,249,cs),
(30,77,o),
(99,-12,o),
(223,-12,cs)
);
}
);
width = 1181;
}
);
subCategory = Other;
},
{
category = Letter;
glyphname = laiivowelsigntamil;
lastChange = "2022-02-22 17:00:18 +0000";
layers = (
{
anchors = (
{
name = Anchor10;
pos = (457,-29);
},
{
name = Anchor12;
pos = (457,-78);
},
{
name = Anchor8;
pos = (457,-29);
}
);
layerId = "DB7E4487-AAA8-4905-9B27-B72FA6056893";
shapes = (
{
closed = 1;
nodes = (
(588,851,o),
(510,751,o),
(510,627,cs),
(510,528,o),
(569,419,o),
(708,381,c),
(714,515,l),
(667,534,o),
(640,576,o),
(640,629,cs),
(640,680,o),
(657,712,o),
(686,733,c),
(703,743,o),
(725,750,o),
(757,750,cs),
(792,750,o),
(807,734,o),
(807,707,cs),
(807,682,o),
(797,669,o),
(780,669,cs),
(759,669,o),
(750,682,o),
(750,706,cs),
(750,747,o),
(772,771,o),
(808,808,c),
(742,842,l),
(692,795,o),
(657,747,o),
(657,697,cs),
(657,633,o),
(690,582,o),
(788,582,cs),
(878,582,o),
(926,626,o),
(926,708,cs),
(926,791,o),
(868,851,o),
(746,851,cs)
);
},
{
closed = 1;
nodes = (
(352,-12,o),
(407,60,o),
(407,175,cs),
(407,290,o),
(351,352,o),
(253,352,cs),
(192,352,o),
(151,318,o),
(106,272,c),
(132,179,l),
(163,218,o),
(189,237,o),
(212,237,cs),
(239,237,o),
(258,221,o),
(258,172,cs),
(258,124,o),
(246,107,o),
(219,107,cs),
(187,107,o),
(172,142,o),
(172,222,cs),
(172,377,o),
(233,457,o),
(327,457,cs),
(365,457,o),
(391,445,o),
(409,419,cs),
(432,385,o),
(444,311,o),
(448,234,cs),
(453,131,o),
(471,76,o),
(515,35,cs),
(550,3,o),
(592,-12,o),
(664,-12,cs),
(824,-12,o),
(882,101,o),
(882,263,cs),
(882,373,o),
(860,471,o),
(806,570,c),
(661,494,l),
(697,413,o),
(721,342,o),
(721,236,cs),
(721,144,o),
(707,112,o),
(666,112,cs),
(650,112,o),
(638,117,o),
(630,128,cs),
(615,147,o),
(610,175,o),
(608,255,cs),
(604,384,o),
(575,485,o),
(498,539,cs),
(460,566,o),
(411,581,o),
(345,581,cs),
(160,581,o),
(30,464,o),
(30,249,cs),
(30,77,o),
(99,-12,o),
(223,-12,cs)
);
}
);
width = 914;
}
);
subCategory = Other;
},
{
category = Letter;
glyphname = lauvowelsigntamil;
lastChange = "2022-02-22 17:00:18 +0000";
layers = (
{
anchors = (
{
name = Anchor10;
pos = (581,-29);
},
{
name = Anchor12;
pos = (731,-234);
},
{
name = Anchor8;
pos = (581,-29);
}
);
layerId = "DB7E4487-AAA8-4905-9B27-B72FA6056893";
shapes = (
{
closed = 1;
nodes = (
(22,-257,o),
(111,-321,o),
(290,-321,cs),
(304,-321,ls),
(502,-321,o),
(652,-259,o),
(721,-126,c),
(724,-79,l),
(741,-42,o),
(749,14,o),
(749,70,c),
(590,69,l),
(590,9,o),
(578,-41,o),
(563,-76,c),
(560,-117,l),
(506,-191,o),
(409,-211,o),
(305,-211,cs),
(285,-211,ls),
(199,-211,o),
(170,-191,o),
(170,-170,cs),
(170,-159,o),
(176,-156,o),
(195,-156,cs),
(583,-156,l),
(638,-174,l),
(1062,-174,l),
(1064,-50,l),
(171,-50,ls),
(102,-50,o),
(75,-60,o),
(52,-80,cs),
(32,-97,o),
(22,-122,o),
(22,-153,cs)
);
},
{
closed = 1;
nodes = (
(1110,-174,l),
(1110,569,l),
(949,569,l),
(949,-174,l)
);
},
{
closed = 1;
nodes = (
(352,-12,o),
(407,60,o),
(407,175,cs),
(407,290,o),
(351,352,o),
(253,352,cs),
(192,352,o),
(151,318,o),
(106,272,c),
(132,179,l),
(163,218,o),
(189,237,o),
(212,237,cs),
(239,237,o),
(258,221,o),
(258,172,cs),
(258,124,o),
(246,107,o),
(219,107,cs),
(187,107,o),
(172,142,o),
(172,222,cs),
(172,377,o),
(233,457,o),
(327,457,cs),
(365,457,o),
(391,445,o),
(409,419,cs),
(432,385,o),
(444,311,o),
(448,234,cs),
(453,131,o),
(471,76,o),
(515,35,cs),
(550,3,o),
(592,-12,o),
(664,-12,cs),
(824,-12,o),
(882,101,o),
(882,263,cs),
(882,389,o),
(852,501,o),
(779,615,c),
(636,540,l),
(689,453,o),
(721,342,o),
(721,236,cs),
(721,144,o),
(707,112,o),
(666,112,cs),
(650,112,o),
(638,117,o),
(630,128,cs),
(615,147,o),
(610,175,o),
(608,255,cs),
(604,396,o),
(578,485,o),
(501,539,cs),
(463,566,o),
(411,581,o),
(345,581,cs),
(160,581,o),
(30,464,o),
(30,249,cs),
(30,77,o),
(99,-12,o),
(223,-12,cs)
);
}
);
width = 1163;
}
);
subCategory = Other;
},
{
category = Letter;
glyphname = lauuvowelsigntamil;
lastChange = "2022-02-22 17:00:18 +0000";
layers = (
{
anchors = (
{
name = Anchor10;
pos = (730,-29);
},
{
name = Anchor12;
pos = (730,-234);
},
{
name = Anchor8;
pos = (730,-29);
}
);
layerId = "DB7E4487-AAA8-4905-9B27-B72FA6056893";
shapes = (
{
closed = 1;
nodes = (
(22,-257,o),
(111,-321,o),
(290,-321,cs),
(304,-321,ls),
(502,-321,o),
(652,-259,o),
(721,-126,c),
(724,-79,l),
(741,-42,o),
(749,14,o),
(749,70,c),
(590,69,l),
(590,9,o),
(578,-41,o),
(563,-76,c),
(560,-117,l),
(506,-191,o),
(409,-211,o),
(305,-211,cs),
(285,-211,ls),
(199,-211,o),
(170,-191,o),
(170,-170,cs),
(170,-159,o),
(176,-156,o),
(195,-156,cs),
(583,-156,l),
(638,-174,l),
(1062,-174,l),
(1064,-50,l),
(171,-50,ls),
(102,-50,o),
(75,-60,o),
(52,-80,cs),
(32,-97,o),
(22,-122,o),
(22,-153,cs)
);
},
{
closed = 1;
nodes = (
(949,569,l),
(949,-174,l),
(1110,-174,l),
(1110,445,l),
(1193,445,l),
(1193,-174,l),
(1354,-174,l),
(1354,445,l),
(1444,445,l),
(1444,569,l)
);
},
{
closed = 1;
nodes = (
(352,-12,o),
(407,60,o),
(407,175,cs),
(407,290,o),
(351,352,o),
(253,352,cs),
(192,352,o),
(151,318,o),
(106,272,c),
(132,179,l),
(163,218,o),
(189,237,o),
(212,237,cs),
(239,237,o),
(258,221,o),
(258,172,cs),
(258,124,o),
(246,107,o),
(219,107,cs),
(187,107,o),
(172,142,o),
(172,222,cs),
(172,377,o),
(233,457,o),
(327,457,cs),
(365,457,o),
(391,445,o),
(409,419,cs),
(432,385,o),
(444,311,o),
(448,234,cs),
(453,131,o),
(471,76,o),
(515,35,cs),
(550,3,o),
(592,-12,o),
(664,-12,cs),
(824,-12,o),
(882,101,o),
(882,263,cs),
(882,389,o),
(852,501,o),
(779,615,c),
(636,540,l),
(689,453,o),
(721,342,o),
(721,236,cs),
(721,144,o),
(707,112,o),
(666,112,cs),
(650,112,o),
(638,117,o),
(630,128,cs),
(615,147,o),
(610,175,o),
(608,255,cs),
(604,396,o),
(578,485,o),
(501,539,cs),
(463,566,o),
(411,581,o),
(345,581,cs),
(160,581,o),
(30,464,o),
(30,249,cs),
(30,77,o),
(99,-12,o),
(223,-12,cs)
);
}
);
width = 1460;
}
);
subCategory = Other;
},
{
category = Letter;
glyphname = llauvowelsigntamil;
lastChange = "2022-02-22 17:00:18 +0000";
layers = (
{
anchors = (
{
name = Anchor10;
pos = (681,-29);
},
{
name = Anchor12;
pos = (689,-29);
},
{
name = Anchor8;
pos = (681,-29);
}
);
layerId = "DB7E4487-AAA8-4905-9B27-B72FA6056893";
shapes = (
{
closed = 1;
nodes = (
(1121,346,o),
(1084,336,o),
(1054,315,c),
(1066,206,l),
(1080,216,o),
(1095,222,o),
(1112,222,cs),
(1144,222,o),
(1167,190,o),
(1167,105,cs),
(1167,-122,o),
(986,-192,o),
(706,-192,cs),
(681,-192,ls),
(337,-192,o),
(189,-73,o),
(189,168,cs),
(189,178,ls),
(189,277,o),
(222,400,o),
(288,515,c),
(152,582,l),
(87,466,o),
(39,331,o),
(39,182,cs),
(39,165,ls),
(39,-214,o),
(335,-321,o),
(670,-321,cs),
(722,-321,ls),
(1020,-321,o),
(1327,-240,o),
(1327,101,cs),
(1327,255,o),
(1265,346,o),
(1160,346,cs)
);
},
{
closed = 1;
nodes = (
(588,-12,o),
(643,60,o),
(643,175,cs),
(643,290,o),
(587,352,o),
(489,352,cs),
(428,352,o),
(387,319,o),
(342,272,c),
(368,179,l),
(399,218,o),
(425,237,o),
(448,237,cs),
(475,237,o),
(494,221,o),
(494,172,cs),
(494,124,o),
(482,107,o),
(455,107,cs),
(423,107,o),
(408,141,o),
(408,224,cs),
(408,385,o),
(463,457,o),
(555,457,cs),
(622,457,o),
(672,411,o),
(715,358,c),
(768,473,l),
(688,549,o),
(634,581,o),
(549,581,cs),
(404,581,o),
(266,479,o),
(266,249,cs),
(266,77,o),
(335,-12,o),
(459,-12,cs)
);
},
{
closed = 1;
nodes = (
(848,0,l),
(848,445,l),
(927,445,l),
(927,0,l),
(1088,0,l),
(1088,445,l),
(1178,445,l),
(1178,569,l),
(697,569,l),
(696,469,l),
(687,478,l),
(687,0,l)
);
}
);
width = 1356;
}
);
subCategory = Other;
},
{
category = Letter;
glyphname = llauuvowelsigntamil;
lastChange = "2022-02-22 17:00:18 +0000";
layers = (
{
anchors = (
{
name = Anchor10;
pos = (753,-29);
},
{
name = Anchor12;
pos = (792,-29);
},
{
name = Anchor8;
pos = (753,-29);
}
);
layerId = "DB7E4487-AAA8-4905-9B27-B72FA6056893";
shapes = (
{
closed = 1;
nodes = (
(1272,346,o),
(1235,336,o),
(1205,315,c),
(1217,206,l),
(1231,216,o),
(1246,222,o),
(1263,222,cs),
(1295,222,o),
(1318,190,o),
(1318,112,cs),
(1318,-91,o),
(1193,-192,o),
(806,-192,cs),
(780,-192,ls),
(524,-192,o),
(183,-127,o),
(183,259,cs),
(183,263,o),
(184,284,o),
(184,306,c),
(190,416,o),
(211,461,o),
(241,461,cs),
(259,461,o),
(272,445,o),
(272,403,cs),
(272,344,o),
(256,333,o),
(228,333,cs),
(201,333,o),
(183,345,o),
(152,387,c),
(107,287,l),
(137,249,o),
(187,213,o),
(254,213,cs),
(369,213,o),
(407,295,o),
(407,406,cs),
(407,497,o),
(365,581,o),
(242,581,cs),
(117,581,o),
(39,457,o),
(39,274,cs),
(39,-191,o),
(370,-321,o),
(766,-321,cs),
(833,-321,ls),
(1180,-321,o),
(1478,-225,o),
(1478,115,cs),
(1478,255,o),
(1416,346,o),
(1311,346,cs)
);
},
{
closed = 1;
nodes = (
(739,-12,o),
(794,60,o),
(794,175,cs),
(794,290,o),
(738,352,o),
(640,352,cs),
(579,352,o),
(538,319,o),
(493,272,c),
(519,179,l),
(550,218,o),
(576,237,o),
(599,237,cs),
(626,237,o),
(645,221,o),
(645,172,cs),
(645,124,o),
(633,107,o),
(606,107,cs),
(574,107,o),
(559,141,o),
(559,224,cs),
(559,385,o),
(614,457,o),
(706,457,cs),
(773,457,o),
(823,411,o),
(866,358,c),
(919,473,l),
(839,549,o),
(785,581,o),
(700,581,cs),
(555,581,o),
(417,479,o),
(417,249,cs),
(417,77,o),
(486,-12,o),
(610,-12,cs)
);
},
{
closed = 1;
nodes = (
(999,0,l),
(999,445,l),
(1078,445,l),
(1078,0,l),
(1239,0,l),
(1239,445,l),
(1329,445,l),
(1329,569,l),
(848,569,l),
(847,469,l),
(838,478,l),
(838,0,l)
);
}
);
width = 1507;
}
);
subCategory = Other;
},
{
category = Letter;
glyphname = lllaiivowelsigntamil;
lastChange = "2022-02-22 17:00:18 +0000";
layers = (
{
anchors = (
{
name = Anchor10;
pos = (375,-29);
},
{
name = Anchor12;
pos = (571,-231);
}
);
layerId = "DB7E4487-AAA8-4905-9B27-B72FA6056893";
shapes = (
{
closed = 1;
nodes = (
(400,851,o),
(329,747,o),
(329,646,cs),
(329,586,o),
(341,536,o),
(361,497,c),
(487,536,l),
(472,562,o),
(462,591,o),
(462,626,cs),
(462,678,o),
(479,711,o),
(508,732,c),
(526,747,o),
(558,750,o),
(590,750,cs),
(625,750,o),
(640,734,o),
(640,707,cs),
(640,682,o),
(630,669,o),
(613,669,cs),
(592,669,o),
(583,682,o),
(583,706,cs),
(583,747,o),
(605,771,o),
(641,808,c),
(575,842,l),
(525,795,o),
(490,747,o),
(490,697,cs),
(490,633,o),
(523,582,o),
(621,582,cs),
(711,582,o),
(759,626,o),
(759,707,cs),
(759,791,o),
(700,851,o),
(568,851,cs)
);
},
{
ref = lllatamil;
}
);
width = 751;
}
);
subCategory = Other;
},
{
category = Letter;
glyphname = lllauvowelsigntamil;
lastChange = "2025-02-12 14:11:31 +0000";
layers = (
{
guides = (
{
angle = 90;
pos = (533,-22);
}
);
layerId = "DB7E4487-AAA8-4905-9B27-B72FA6056893";
shapes = (
{
closed = 1;
nodes = (
(290,90,l),
(291,480,ls),
(291,493,o),
(284,500,o),
(271,500,cs),
(221,500,ls),
(208,500,o),
(201,493,o),
(201,480,cs),
(200,80,ls),
(200,28,o),
(228,0,o),
(280,0,cs),
(290,0,l)
);
},
{
closed = 1;
nodes = (
(533,486,l),
(501,496,ls),
(493,499,o),
(486,500,o),
(477,500,cs),
(463,500,ls),
(450,500,o),
(443,493,o),
(443,480,cs),
(443,110,l),
(533,110,l)
);
},
{
closed = 1;
nodes = (
(533,-55,l),
(344,-55,ls),
(331,-55,o),
(324,-62,o),
(324,-75,cs),
(324,-125,ls),
(324,-138,o),
(331,-145,o),
(344,-145,cs),
(533,-145,l)
);
},
{
closed = 1;
nodes = (
(533,-20,l),
(443,-20,l),
(443,-145,l),
(533,-145,l)
);
},
{
closed = 1;
nodes = (
(109,-307,l),
(692,-307,ls),
(744,-307,o),
(772,-279,o),
(772,-227,cs),
(772,-217,l),
(109,-217,l)
);
},
{
closed = 1;
nodes = (
(772,-141,l),
(683,-141,l),
(683,-222,l),
(772,-222,l)
);
},
{
closed = 1;
nodes = (
(110,-307,l),
(111,480,ls),
(111,493,o),
(104,500,o),
(91,500,cs),
(41,500,ls),
(28,500,o),
(21,493,o),
(21,480,cs),
(20,-227,ls),
(20,-279,o),
(48,-307,o),
(100,-307,cs)
);
},
{
closed = 1;
nodes = (
(533,90,l),
(289,90,l),
(289,0,l),
(533,0,l)
);
},
{
closed = 1;
nodes = (
(532,0,l),
(683,0,l),
(739,33,l),
(772,90,l),
(532,90,l)
);
},
{
closed = 1;
nodes = (
(532,-145,l),
(772,-145,l),
(772,-135,ls),
(772,-83,o),
(744,-55,o),
(692,-55,cs),
(532,-55,l)
);
},
{
closed = 1;
nodes = (
(529,392,l),
(683,341,l),
(682,0,l),
(692,0,ls),
(744,0,o),
(772,28,o),
(772,80,cs),
(773,345,ls),
(773,387,o),
(754,412,o),
(715,425,cs),
(529,487,l)
);
}
);
width = 793;
}
);
subCategory = Other;
},
{
category = Letter;
glyphname = lllauuvowelsigntamil;
lastChange = "2022-02-22 17:00:18 +0000";
layers = (
{
anchors = (
{
name = Anchor10;
pos = (564,-29);
},
{
name = Anchor12;
pos = (550,-26);
},
{
name = Anchor8;
pos = (564,-29);
}
);
layerId = "DB7E4487-AAA8-4905-9B27-B72FA6056893";
shapes = (
{
closed = 1;
nodes = (
(868,-15,o),
(813,-22,o),
(764,-46,c),
(788,-132,l),
(811,-120,o),
(842,-112,o),
(860,-112,cs),
(884,-112,o),
(891,-121,o),
(891,-136,cs),
(891,-176,o),
(826,-194,o),
(688,-194,cs),
(661,-194,ls),
(440,-194,o),
(183,-107,o),
(183,249,cs),
(183,260,o),
(183,285,o),
(184,306,c),
(190,416,o),
(209,461,o),
(241,461,cs),
(259,461,o),
(272,445,o),
(272,403,cs),
(272,344,o),
(256,333,o),
(228,333,cs),
(201,333,o),
(183,345,o),
(152,387,c),
(107,287,l),
(137,249,o),
(187,213,o),
(254,213,cs),
(369,213,o),
(407,295,o),
(407,406,cs),
(407,497,o),
(366,581,o),
(249,581,cs),
(118,581,o),
(39,463,o),
(39,253,cs),
(39,-199,o),
(343,-321,o),
(652,-321,cs),
(683,-321,ls),
(876,-321,o),
(1038,-280,o),
(1038,-138,cs),
(1038,-49,o),
(971,-15,o),
(898,-15,cs)
);
},
{
closed = 1;
nodes = (
(845,-140,l),
(845,70,l),
(688,70,l),
(688,-140,l)
);
},
{
closed = 1;
nodes = (
(816,581,o),
(774,566,o),
(745,540,cs),
(707,506,o),
(688,460,o),
(688,384,cs),
(688,124,l),
(589,124,l),
(589,569,l),
(428,569,l),
(428,0,l),
(825,0,ls),
(921,0,o),
(969,15,o),
(1011,47,cs),
(1065,88,o),
(1096,161,o),
(1096,276,cs),
(1096,460,o),
(1032,581,o),
(871,581,cs)
);
},
{
closed = 1;
nodes = (
(918,457,o),
(935,386,o),
(935,275,cs),
(935,153,o),
(905,124,o),
(850,124,c),
(849,124,l),
(849,394,ls),
(849,431,o),
(853,440,o),
(860,448,cs),
(866,455,o),
(874,457,o),
(881,457,cs)
);
}
);
width = 1128;
}
);
subCategory = Other;
},
{
category = Letter;
glyphname = vaiivowelsigntamil;
lastChange = "2022-02-22 17:00:18 +0000";
layers = (
{
anchors = (
{
name = Anchor10;
pos = (462,-29);
},
{
name = Anchor12;
pos = (462,-78);
},
{
name = Anchor8;
pos = (462,-29);
}
);
layerId = "DB7E4487-AAA8-4905-9B27-B72FA6056893";
shapes = (
{
closed = 1;
nodes = (
(352,-12,o),
(407,60,o),
(407,175,cs),
(407,291,o),
(351,352,o),
(253,352,cs),
(192,352,o),
(151,319,o),
(106,272,c),
(132,179,l),
(163,218,o),
(189,237,o),
(212,237,cs),
(233,237,o),
(258,221,o),
(258,172,cs),
(258,124,o),
(246,107,o),
(219,107,cs),
(187,107,o),
(172,141,o),
(172,224,cs),
(172,384,o),
(228,457,o),
(322,457,cs),
(399,457,o),
(459,398,o),
(459,265,cs),
(459,199,o),
(445,131,o),
(431,94,c),
(446,0,l),
(871,0,l),
(871,569,l),
(710,569,l),
(710,124,l),
(593,124,l),
(610,172,o),
(620,236,o),
(620,288,cs),
(620,448,o),
(531,581,o),
(328,581,cs),
(166,581,o),
(30,477,o),
(30,249,cs),
(30,77,o),
(100,-12,o),
(222,-12,cs)
);
},
{
closed = 1;
nodes = (
(598,851,o),
(520,751,o),
(520,627,cs),
(520,528,o),
(571,420,o),
(718,381,c),
(724,515,l),
(677,534,o),
(650,576,o),
(650,629,cs),
(650,680,o),
(667,712,o),
(696,733,c),
(713,743,o),
(735,750,o),
(767,750,cs),
(802,750,o),
(817,734,o),
(817,707,cs),
(817,682,o),
(807,669,o),
(790,669,cs),
(769,669,o),
(760,682,o),
(760,706,cs),
(760,747,o),
(782,771,o),
(818,808,c),
(752,842,l),
(702,795,o),
(667,747,o),
(667,697,cs),
(667,633,o),
(700,582,o),
(798,582,cs),
(888,582,o),
(936,626,o),
(936,708,cs),
(936,791,o),
(878,851,o),
(756,851,cs)
);
}
);
width = 924;
}
);
subCategory = Other;
},
{
category = Letter;
glyphname = vauvowelsigntamil;
lastChange = "2022-02-22 17:00:18 +0000";
layers = (
{
anchors = (
{
name = Anchor10;
pos = (462,-29);
},
{
name = Anchor12;
pos = (462,-78);
},
{
name = Anchor8;
pos = (462,-29);
}
);
layerId = "DB7E4487-AAA8-4905-9B27-B72FA6056893";
shapes = (
{
closed = 1;
nodes = (
(352,-12,o),
(407,60,o),
(407,175,cs),
(407,291,o),
(351,352,o),
(253,352,cs),
(192,352,o),
(151,319,o),
(106,272,c),
(132,179,l),
(163,218,o),
(189,237,o),
(212,237,cs),
(233,237,o),
(258,221,o),
(258,172,cs),
(258,124,o),
(246,107,o),
(219,107,cs),
(187,107,o),
(172,141,o),
(172,224,cs),
(172,384,o),
(228,457,o),
(322,457,cs),
(399,457,o),
(459,398,o),
(459,265,cs),
(459,199,o),
(445,131,o),
(431,94,c),
(446,0,l),
(871,0,l),
(871,569,l),
(710,569,l),
(710,124,l),
(593,124,l),
(610,172,o),
(620,236,o),
(620,288,cs),
(620,448,o),
(531,581,o),
(328,581,cs),
(166,581,o),
(30,477,o),
(30,249,cs),
(30,77,o),
(100,-12,o),
(222,-12,cs)
);
},
{
closed = 1;
nodes = (
(871,-283,l),
(871,5,l),
(710,5,l),
(710,-283,l)
);
}
);
width = 924;
}
);
subCategory = Other;
},
{
category = Letter;
glyphname = vauuvowelsigntamil;
lastChange = "2022-02-22 17:00:18 +0000";
layers = (
{
anchors = (
{
name = Anchor10;
pos = (552,-29);
},
{
name = Anchor12;
pos = (533,-37);
},
{
name = Anchor8;
pos = (552,-29);
}
);
layerId = "DB7E4487-AAA8-4905-9B27-B72FA6056893";
shapes = (
{
closed = 1;
nodes = (
(352,-12,o),
(407,60,o),
(407,175,cs),
(407,291,o),
(351,352,o),
(253,352,cs),
(192,352,o),
(151,319,o),
(106,272,c),
(132,179,l),
(163,218,o),
(189,237,o),
(212,237,cs),
(233,237,o),
(258,221,o),
(258,172,cs),
(258,124,o),
(246,107,o),
(219,107,cs),
(187,107,o),
(172,141,o),
(172,224,cs),
(172,384,o),
(228,457,o),
(322,457,cs),
(399,457,o),
(459,398,o),
(459,265,cs),
(459,199,o),
(445,131,o),
(431,94,c),
(446,0,l),
(871,0,l),
(871,569,l),
(710,569,l),
(710,124,l),
(593,124,l),
(610,172,o),
(620,236,o),
(620,288,cs),
(620,448,o),
(531,581,o),
(328,581,cs),
(166,581,o),
(30,477,o),
(30,249,cs),
(30,77,o),
(100,-12,o),
(222,-12,cs)
);
},
{
closed = 1;
nodes = (
(876,130,o),
(839,107,o),
(809,86,c),
(822,-20,l),
(857,2,o),
(872,10,o),
(898,10,cs),
(928,10,o),
(951,-9,o),
(951,-53,cs),
(951,-88,o),
(936,-117,o),
(904,-139,cs),
(845,-180,o),
(737,-200,o),
(545,-200,cs),
(498,-200,ls),
(253,-200,o),
(194,-178,o),
(194,-150,cs),
(194,-136,o),
(202,-128,o),
(233,-128,cs),
(263,-128,o),
(298,-135,o),
(334,-145,c),
(359,-35,l),
(314,-22,o),
(267,-13,o),
(214,-13,cs),
(115,-13,o),
(50,-60,o),
(50,-143,cs),
(50,-201,o),
(78,-238,o),
(123,-265,cs),
(203,-314,o),
(332,-321,o),
(498,-321,cs),
(531,-321,ls),
(730,-321,o),
(904,-308,o),
(1004,-235,cs),
(1062,-193,o),
(1103,-132,o),
(1103,-43,cs),
(1103,68,o),
(1036,130,o),
(941,130,cs)
);
},
{
closed = 1;
nodes = (
(871,-133,l),
(871,5,l),
(710,5,l),
(710,-133,l)
);
}
);
width = 1104;
}
);
subCategory = Other;
},
{
category = Letter;
glyphname = saivowelsigntamil;
lastChange = "2022-02-22 17:00:18 +0000";
layers = (
{
anchors = (
{
name = Anchor10;
pos = (583,-29);
},
{
name = Anchor12;
pos = (583,-78);
},
{
name = Anchor8;
pos = (583,-29);
}
);
layerId = "DB7E4487-AAA8-4905-9B27-B72FA6056893";
shapes = (
{
closed = 1;
nodes = (
(352,-12,o),
(407,60,o),
(407,175,cs),
(407,290,o),
(351,352,o),
(253,352,cs),
(192,352,o),
(151,319,o),
(106,272,c),
(132,179,l),
(163,218,o),
(189,237,o),
(212,237,cs),
(239,237,o),
(258,221,o),
(258,172,cs),
(258,124,o),
(246,107,o),
(219,107,cs),
(187,107,o),
(172,141,o),
(172,224,cs),
(172,385,o),
(227,457,o),
(321,457,cs),
(361,457,o),
(390,443,o),
(411,420,cs),
(444,383,o),
(456,328,o),
(456,227,cs),
(456,0,l),
(617,0,l),
(617,355,ls),
(617,408,o),
(620,431,o),
(632,445,cs),
(638,453,o),
(648,457,o),
(660,457,cs),
(672,457,o),
(681,453,o),
(687,445,cs),
(700,428,o),
(700,402,o),
(700,357,cs),
(700,258,ls),
(700,133,o),
(723,76,o),
(767,35,cs),
(802,3,o),
(844,-12,o),
(916,-12,cs),
(1076,-12,o),
(1134,101,o),
(1134,262,cs),
(1134,373,o),
(1112,471,o),
(1058,570,c),
(913,494,l),
(949,413,o),
(973,342,o),
(973,237,cs),
(973,144,o),
(959,112,o),
(918,112,cs),
(903,112,o),
(890,117,o),
(882,128,cs),
(867,147,o),
(860,183,o),
(860,248,cs),
(860,338,ls),
(860,424,o),
(846,493,o),
(804,535,cs),
(778,562,o),
(739,581,o),
(686,581,cs),
(592,581,o),
(522,525,o),
(489,426,c),
(550,427,l),
(493,533,o),
(429,581,o),
(316,581,cs),
(168,581,o),
(30,479,o),
(30,249,cs),
(30,77,o),
(99,-12,o),
(223,-12,cs)
);
},
{
closed = 1;
nodes = (
(896,851,o),
(791,744,o),
(791,603,cs),
(791,451,o),
(896,369,o),
(1019,359,c),
(1018,467,l),
(953,489,o),
(931,528,o),
(931,595,cs),
(931,674,o),
(981,729,o),
(1072,729,cs),
(1111,729,o),
(1139,720,o),
(1160,703,cs),
(1210,664,o),
(1219,585,o),
(1219,458,cs),
(1219,0,l),
(1380,0,l),
(1380,474,ls),
(1380,662,o),
(1352,732,o),
(1274,793,cs),
(1227,830,o),
(1154,851,o),
(1076,851,cs)
);
}
);
width = 1433;
}
);
subCategory = Other;
},
{
category = Letter;
glyphname = saiivowelsigntamil;
lastChange = "2022-02-22 17:00:18 +0000";
layers = (
{
anchors = (
{
name = Anchor10;
pos = (583,-29);
},
{
name = Anchor12;
pos = (583,-78);
},
{
name = Anchor8;
pos = (583,-29);
}
);
layerId = "DB7E4487-AAA8-4905-9B27-B72FA6056893";
shapes = (
{
closed = 1;
nodes = (
(352,-12,o),
(407,60,o),
(407,175,cs),
(407,290,o),
(351,352,o),
(253,352,cs),
(192,352,o),
(151,319,o),
(106,272,c),
(132,179,l),
(163,218,o),
(189,237,o),
(212,237,cs),
(239,237,o),
(258,221,o),
(258,172,cs),
(258,124,o),
(246,107,o),
(219,107,cs),
(187,107,o),
(172,141,o),
(172,224,cs),
(172,385,o),
(227,457,o),
(321,457,cs),
(361,457,o),
(390,443,o),
(411,420,cs),
(444,383,o),
(456,328,o),
(456,227,cs),
(456,0,l),
(617,0,l),
(617,355,ls),
(617,408,o),
(620,431,o),
(632,445,cs),
(638,453,o),
(648,457,o),
(660,457,cs),
(672,457,o),
(681,453,o),
(687,445,cs),
(700,428,o),
(700,402,o),
(700,357,cs),
(700,258,ls),
(700,133,o),
(723,76,o),
(767,35,cs),
(802,3,o),
(844,-12,o),
(916,-12,cs),
(1076,-12,o),
(1134,101,o),
(1134,262,cs),
(1134,373,o),
(1112,471,o),
(1058,570,c),
(913,494,l),
(949,413,o),
(973,342,o),
(973,237,cs),
(973,144,o),
(959,112,o),
(918,112,cs),
(903,112,o),
(890,117,o),
(882,128,cs),
(867,147,o),
(860,183,o),
(860,248,cs),
(860,338,ls),
(860,424,o),
(846,493,o),
(804,535,cs),
(778,562,o),
(739,581,o),
(686,581,cs),
(592,581,o),
(522,525,o),
(489,426,c),
(550,427,l),
(493,533,o),
(429,581,o),
(316,581,cs),
(168,581,o),
(30,479,o),
(30,249,cs),
(30,77,o),
(99,-12,o),
(223,-12,cs)
);
},
{
closed = 1;
nodes = (
(840,851,o),
(762,751,o),
(762,627,cs),
(762,535,o),
(823,419,o),
(960,381,c),
(966,515,l),
(919,534,o),
(892,576,o),
(892,629,cs),
(892,680,o),
(909,712,o),
(938,733,c),
(955,743,o),
(977,750,o),
(1009,750,cs),
(1044,750,o),
(1059,734,o),
(1059,707,cs),
(1059,682,o),
(1049,669,o),
(1032,669,cs),
(1011,669,o),
(1002,682,o),
(1002,706,cs),
(1002,747,o),
(1024,771,o),
(1060,808,c),
(994,842,l),
(944,795,o),
(909,747,o),
(909,697,cs),
(909,633,o),
(942,582,o),
(1040,582,cs),
(1130,582,o),
(1178,626,o),
(1178,708,cs),
(1178,791,o),
(1120,851,o),
(998,851,cs)
);
}
);
width = 1166;
}
);
subCategory = Other;
},
{
category = Letter;
glyphname = shritamil;
lastChange = "2020-03-17 13:07:53 +0000";
layers = (
{
anchors = (
{
name = Anchor10;
pos = (657,-29);
},
{
name = Anchor8;
pos = (657,-29);
}
);
layerId = "DB7E4487-AAA8-4905-9B27-B72FA6056893";
shapes = (
{
closed = 1;
nodes = (
(1079,370,o),
(1041,361,o),
(1004,338,c),
(1019,227,l),
(1035,238,o),
(1052,246,o),
(1068,246,cs),
(1105,246,o),
(1128,213,o),
(1128,134,cs),
(1128,30,o),
(1089,-43,o),
(1026,-94,cs),
(920,-178,o),
(756,-200,o),
(571,-200,cs),
(517,-200,ls),
(287,-200,o),
(218,-178,o),
(218,-150,cs),
(218,-136,o),
(228,-128,o),
(262,-128,cs),
(300,-128,o),
(346,-136,o),
(388,-147,c),
(413,-37,l),
(364,-24,o),
(316,-13,o),
(238,-13,cs),
(139,-13,o),
(74,-60,o),
(74,-143,cs),
(74,-215,o),
(120,-258,o),
(187,-284,cs),
(250,-308,o),
(334,-321,o),
(526,-321,cs),
(573,-321,ls),
(787,-321,o),
(990,-294,o),
(1130,-190,cs),
(1225,-120,o),
(1286,-14,o),
(1286,142,cs),
(1286,269,o),
(1235,370,o),
(1116,370,cs)
);
},
{
closed = 1;
nodes = (
(551,0,l),
(551,354,ls),
(551,410,o),
(556,431,o),
(568,445,cs),
(575,453,o),
(585,457,o),
(596,457,cs),
(626,457,o),
(638,428,o),
(638,378,cs),
(638,0,l),
(799,0,l),
(799,445,l),
(878,445,l),
(878,0,l),
(1039,0,l),
(1039,445,l),
(1129,445,l),
(1129,569,l),
(656,569,l),
(656,548,l),
(638,566,o),
(607,581,o),
(567,581,cs),
(522,581,o),
(486,568,o),
(456,542,cs),
(409,501,o),
(390,449,o),
(390,329,cs),
(390,124,l),
(214,124,l),
(214,569,l),
(53,569,l),
(53,0,l)
);
},
{
closed = 1;
nodes = (
(946,851,o),
(875,745,o),
(875,649,cs),
(875,605,o),
(883,557,o),
(895,520,c),
(1028,531,l),
(1015,558,o),
(1008,592,o),
(1008,628,cs),
(1008,678,o),
(1028,711,o),
(1057,732,c),
(1075,747,o),
(1109,750,o),
(1141,750,cs),
(1176,750,o),
(1191,734,o),
(1191,707,cs),
(1191,682,o),
(1181,669,o),
(1164,669,cs),
(1143,669,o),
(1134,682,o),
(1134,706,cs),
(1134,747,o),
(1156,771,o),
(1192,808,c),
(1126,842,l),
(1076,795,o),
(1041,747,o),
(1041,697,cs),
(1041,633,o),
(1074,582,o),
(1172,582,cs),
(1262,582,o),
(1310,626,o),
(1310,707,cs),
(1310,791,o),
(1252,851,o),
(1117,851,cs)
);
}
);
width = 1315;
}
);
subCategory = Ligature;
},
{
category = Mark;
glyphname = ivowelsign4tamil;
lastChange = "2025-02-12 14:09:08 +0000";
layers = (
{
layerId = "DB7E4487-AAA8-4905-9B27-B72FA6056893";
shapes = (
{
closed = 1;
nodes = (
(64,610,l),
(-234,757,ls),
(-242,761,o),
(-250,762,o),
(-259,762,cs),
(-271,762,ls),
(-284,762,o),
(-291,755,o),
(-291,742,cs),
(-292,490,ls),
(-292,438,o),
(-264,410,o),
(-212,410,cs),
(-202,410,l),
(-202,645,l),
(64,514,l)
);
},
{
closed = 1;
nodes = (
(-208,410,l),
(-130,410,l),
(-130,500,l),
(-208,500,l)
);
},
{
closed = 1;
nodes = (
(54,518,l),
(53,20,ls),
(53,7,o),
(60,0,o),
(73,0,cs),
(123,0,ls),
(136,0,o),
(143,7,o),
(143,20,cs),
(144,514,ls),
(144,553,o),
(127,578,o),
(91,596,cs),
(54,615,l)
);
}
);
width = 164;
}
);
subCategory = "Spacing Combining";
},
{
category = Mark;
glyphname = ivowelsign3tamil;
lastChange = "2020-03-17 13:07:53 +0000";
layers = (
{
layerId = "DB7E4487-AAA8-4905-9B27-B72FA6056893";
shapes = (
{
closed = 1;
nodes = (
(-274,851,o),
(-374,744,o),
(-374,603,cs),
(-374,444,o),
(-279,366,o),
(-146,355,c),
(-146,474,l),
(-212,491,o),
(-234,528,o),
(-234,595,cs),
(-234,674,o),
(-187,729,o),
(-94,729,cs),
(-55,729,o),
(-27,721,o),
(-6,704,cs),
(44,665,o),
(53,585,o),
(53,458,cs),
(53,0,l),
(214,0,l),
(214,474,ls),
(214,658,o),
(186,732,o),
(108,793,cs),
(61,830,o),
(-7,851,o),
(-86,851,cs)
);
}
);
width = 267;
}
);
subCategory = "Spacing Combining";
},
{
category = Mark;
glyphname = ivowelsign2tamil;
lastChange = "2025-02-12 18:08:28 +0000";
layers = (
{
layerId = "DB7E4487-AAA8-4905-9B27-B72FA6056893";
shapes = (
{
closed = 1;
nodes = (
(55,598,l),
(-213,725,ls),
(-221,729,o),
(-229,730,o),
(-238,730,cs),
(-250,730,ls),
(-263,730,o),
(-270,723,o),
(-270,710,cs),
(-271,472,l),
(-181,442,l),
(-179,601,l),
(55,500,l)
);
},
{
closed = 1;
nodes = (
(54,501,l),
(53,5,ls),
(53,-8,o),
(60,-15,o),
(73,-15,cs),
(123,-15,ls),
(136,-15,o),
(143,-8,o),
(143,5,cs),
(144,499,ls),
(144,538,o),
(126,564,o),
(91,581,cs),
(54,598,l)
);
}
);
width = 164;
}
);
subCategory = "Spacing Combining";
},
{
category = Mark;
glyphname = ivowelsign1tamil;
lastChange = "2020-03-17 13:07:53 +0000";
layers = (
{
layerId = "DB7E4487-AAA8-4905-9B27-B72FA6056893";
shapes = (
{
closed = 1;
nodes = (
(-227,851,o),
(-353,785,o),
(-353,626,cs),
(-353,594,o),
(-344,546,o),
(-333,515,c),
(-176,515,l),
(-190,557,o),
(-199,587,o),
(-199,623,cs),
(-199,677,o),
(-174,730,o),
(-87,730,cs),
(-53,730,o),
(-26,718,o),
(-5,701,cs),
(47,657,o),
(53,553,o),
(53,477,cs),
(53,0,l),
(214,0,l),
(214,490,ls),
(214,635,o),
(190,731,o),
(99,798,cs),
(53,832,o),
(-15,851,o),
(-83,851,cs)
);
}
);
width = 267;
}
);
subCategory = "Spacing Combining";
},
{
category = Mark;
glyphname = uvowelsignalttamil;
lastChange = "2020-03-17 13:07:53 +0000";
layers = (
{
layerId = "DB7E4487-AAA8-4905-9B27-B72FA6056893";
shapes = (
{
closed = 1;
nodes = (
(366,196,o),
(401,291,o),
(401,376,cs),
(401,445,o),
(374,494,o),
(329,526,cs),
(288,555,o),
(230,569,o),
(131,569,cs),
(-354,569,l),
(-294,445,l),
(159,445,ls),
(203,445,o),
(222,437,o),
(236,424,cs),
(250,411,o),
(258,395,o),
(258,367,cs),
(258,329,o),
(243,316,o),
(222,316,cs),
(197,316,o),
(179,332,o),
(179,379,cs),
(179,437,o),
(205,486,o),
(225,512,c),
(85,550,l),
(65,513,o),
(35,455,o),
(35,384,cs),
(35,284,o),
(76,196,o),
(223,196,cs)
);
}
);
width = 426;
}
);
subCategory = "Spacing Combining";
},
{
category = Mark;
glyphname = uuvowelsignalttamil;
lastChange = "2020-03-17 13:07:53 +0000";
layers = (
{
layerId = "DB7E4487-AAA8-4905-9B27-B72FA6056893";
shapes = (
{
closed = 1;
nodes = (
(552,-12,o),
(667,129,o),
(667,409,cs),
(667,609,o),
(584,784,o),
(361,784,cs),
(197,784,o),
(99,680,o),
(68,535,c),
(68,504,l),
(64,477,o),
(61,450,o),
(61,422,cs),
(61,300,o),
(115,196,o),
(256,196,cs),
(390,196,o),
(428,286,o),
(428,376,cs),
(428,445,o),
(401,494,o),
(356,526,cs),
(315,555,o),
(258,569,o),
(158,569,cs),
(-353,569,l),
(-294,445,l),
(185,445,ls),
(230,445,o),
(249,437,o),
(263,424,cs),
(277,411,o),
(285,394,o),
(285,367,cs),
(285,329,o),
(270,316,o),
(252,316,cs),
(219,316,o),
(204,347,o),
(204,402,cs),
(204,437,o),
(207,474,o),
(214,509,c),
(215,535,l),
(234,606,o),
(279,658,o),
(353,658,cs),
(448,658,o),
(506,577,o),
(506,405,cs),
(506,206,o),
(451,115,o),
(311,115,cs),
(218,115,o),
(155,143,o),
(103,180,c),
(41,67,l),
(122,13,o),
(218,-12,o),
(315,-12,cs)
);
}
);
width = 700;
}
);
subCategory = "Spacing Combining";
},
{
glyphname = exclam.tamil;
lastChange = "2020-03-17 13:07:53 +0000";
layers = (
{
layerId = "DB7E4487-AAA8-4905-9B27-B72FA6056893";
shapes = (
{
closed = 1;
nodes = (
(217,253,l),
(240,714,l),
(52,714,l),
(76,253,l)
);
},
{
closed = 1;
nodes = (
(202,-12,o),
(237,22,o),
(237,81,cs),
(237,141,o),
(204,176,o),
(146,176,cs),
(85,176,o),
(53,141,o),
(53,81,cs),
(53,22,o),
(89,-12,o),
(146,-12,cs)
);
}
);
width = 293;
}
);
unicode = 33;
},
{
glyphname = quotedbl.tamil;
lastChange = "2020-03-17 13:07:53 +0000";
layers = (
{
layerId = "DB7E4487-AAA8-4905-9B27-B72FA6056893";
shapes = (
{
closed = 1;
nodes = (
(204,542,l),
(224,800,l),
(55,800,l),
(75,542,l)
);
},
{
closed = 1;
nodes = (
(424,542,l),
(444,800,l),
(275,800,l),
(295,542,l)
);
}
);
width = 499;
}
);
unicode = 34;
},
{
glyphname = numbersign.tamil;
lastChange = "2020-03-17 13:07:53 +0000";
layers = (
{
layerId = "DB7E4487-AAA8-4905-9B27-B72FA6056893";
shapes = (
{
closed = 1;
nodes = (
(180,0,l),
(216,192,l),
(290,192,l),
(254,0,l),
(371,0,l),
(407,192,l),
(517,192,l),
(517,305,l),
(429,305,l),
(449,409,l),
(540,409,l),
(540,522,l),
(470,522,l),
(507,714,l),
(390,714,l),
(353,522,l),
(279,522,l),
(316,714,l),
(199,714,l),
(162,522,l),
(53,522,l),
(53,409,l),
(141,409,l),
(121,305,l),
(30,305,l),
(30,192,l),
(99,192,l),
(63,0,l)
);
},
{
closed = 1;
nodes = (
(258,409,l),
(332,409,l),
(312,305,l),
(238,305,l)
);
}
);
width = 570;
}
);
unicode = 35;
},
{
glyphname = percent.tamil;
lastChange = "2020-03-17 13:07:53 +0000";
layers = (
{
layerId = "DB7E4487-AAA8-4905-9B27-B72FA6056893";
shapes = (
{
closed = 1;
nodes = (
(329,0,l),
(623,714,l),
(503,714,l),
(209,0,l)
);
},
{
closed = 1;
nodes = (
(290,276,o),
(342,358,o),
(342,501,cs),
(342,638,o),
(288,724,o),
(187,724,cs),
(80,724,o),
(28,642,o),
(28,499,cs),
(28,364,o),
(82,276,o),
(183,276,cs)
);
},
{
closed = 1;
nodes = (
(163,387,o),
(153,416,o),
(153,501,cs),
(153,583,o),
(163,613,o),
(185,613,cs),
(207,613,o),
(217,584,o),
(217,500,cs),
(217,415,o),
(207,387,o),
(185,387,cs)
);
},
{
closed = 1;
nodes = (
(752,-8,o),
(804,74,o),
(804,217,cs),
(804,353,o),
(750,440,o),
(649,440,cs),
(542,440,o),
(490,358,o),
(490,215,cs),
(490,80,o),
(544,-8,o),
(645,-8,cs)
);
},
{
closed = 1;
nodes = (
(631,103,o),
(621,134,o),
(621,217,cs),
(621,299,o),
(631,329,o),
(653,329,cs),
(675,329,o),
(685,300,o),
(685,216,cs),
(685,132,o),
(675,103,o),
(653,103,cs)
);
}
);
width = 832;
}
);
unicode = 37;
},
{
glyphname = quotesingle.tamil;
lastChange = "2020-03-17 13:07:53 +0000";
layers = (
{
layerId = "DB7E4487-AAA8-4905-9B27-B72FA6056893";
shapes = (
{
closed = 1;
nodes = (
(204,542,l),
(224,800,l),
(55,800,l),
(75,542,l)
);
}
);
width = 279;
}
);
unicode = 39;
},
{
glyphname = parenleft.tamil;
lastChange = "2020-03-17 13:07:53 +0000";
layers = (
{
layerId = "DB7E4487-AAA8-4905-9B27-B72FA6056893";
shapes = (
{
closed = 1;
nodes = (
(46,82,o),
(96,-97,o),
(193,-244,c),
(346,-244,l),
(256,-80,o),
(208,86,o),
(208,279,cs),
(208,470,o),
(256,636,o),
(346,800,c),
(193,800,l),
(96,653,o),
(46,474,o),
(46,279,cs)
);
}
);
width = 372;
}
);
unicode = 40;
},
{
glyphname = parenright.tamil;
lastChange = "2020-03-17 13:07:53 +0000";
layers = (
{
layerId = "DB7E4487-AAA8-4905-9B27-B72FA6056893";
shapes = (
{
closed = 1;
nodes = (
(326,474,o),
(276,653,o),
(179,800,c),
(26,800,l),
(116,636,o),
(164,470,o),
(164,277,cs),
(164,86,o),
(116,-80,o),
(26,-244,c),
(179,-244,l),
(276,-97,o),
(326,82,o),
(326,277,cs)
);
}
);
width = 372;
}
);
unicode = 41;
},
{
glyphname = asterisk.tamil;
lastChange = "2020-03-17 13:07:53 +0000";
layers = (
{
layerId = "DB7E4487-AAA8-4905-9B27-B72FA6056893";
shapes = (
{
closed = 1;
nodes = (
(201,800,l),
(219,635,l),
(56,682,l),
(35,546,l),
(182,534,l),
(85,404,l),
(212,341,l),
(270,472,l),
(337,340,l),
(459,404,l),
(362,534,l),
(509,544,l),
(492,682,l),
(325,635,l),
(343,800,l)
);
}
);
width = 544;
}
);
unicode = 42;
},
{
glyphname = plus.tamil;
lastChange = "2020-03-17 13:07:53 +0000";
layers = (
{
layerId = "DB7E4487-AAA8-4905-9B27-B72FA6056893";
shapes = (
{
closed = 1;
nodes = (
(314,111,l),
(314,288,l),
(462,288,l),
(462,417,l),
(314,417,l),
(314,597,l),
(181,597,l),
(181,417,l),
(34,417,l),
(34,288,l),
(181,288,l),
(181,111,l)
);
}
);
width = 496;
}
);
unicode = 43;
},
{
glyphname = comma.tamil;
lastChange = "2020-03-17 13:07:53 +0000";
layers = (
{
layerId = "DB7E4487-AAA8-4905-9B27-B72FA6056893";
shapes = (
{
closed = 1;
nodes = (
(70,146,l),
(66,71,o),
(48,-62,o),
(34,-139,c),
(169,-139,l),
(198,-66,o),
(219,25,o),
(234,135,c),
(229,146,l)
);
}
);
width = 288;
}
);
unicode = 44;
},
{
glyphname = hyphen.tamil;
lastChange = "2020-03-17 13:07:53 +0000";
layers = (
{
layerId = "DB7E4487-AAA8-4905-9B27-B72FA6056893";
shapes = (
{
closed = 1;
nodes = (
(302,235,l),
(302,380,l),
(36,380,l),
(36,235,l)
);
}
);
width = 338;
}
);
unicode = 45;
},
{
glyphname = period.tamil;
lastChange = "2020-03-17 13:07:53 +0000";
layers = (
{
layerId = "DB7E4487-AAA8-4905-9B27-B72FA6056893";
shapes = (
{
closed = 1;
nodes = (
(202,-12,o),
(236,22,o),
(236,81,cs),
(236,141,o),
(203,176,o),
(145,176,cs),
(85,176,o),
(52,141,o),
(52,81,cs),
(52,22,o),
(88,-12,o),
(145,-12,cs)
);
}
);
width = 288;
}
);
unicode = 46;
},
{
glyphname = slash.tamil;
lastChange = "2020-03-17 13:07:53 +0000";
layers = (
{
layerId = "DB7E4487-AAA8-4905-9B27-B72FA6056893";
shapes = (
{
closed = 1;
nodes = (
(170,-244,l),
(433,800,l),
(280,800,l),
(17,-244,l)
);
}
);
width = 450;
}
);
unicode = 47;
},
{
glyphname = zero.tamil;
lastChange = "2020-03-17 13:07:53 +0000";
layers = (
{
layerId = "DB7E4487-AAA8-4905-9B27-B72FA6056893";
shapes = (
{
closed = 1;
nodes = (
(417,-10,o),
(461,150,o),
(461,356,cs),
(461,600,o),
(390,724,o),
(247,724,cs),
(104,724,o),
(35,610,o),
(35,356,cs),
(35,114,o),
(106,-10,o),
(247,-10,cs)
);
},
{
closed = 1;
nodes = (
(207,134,o),
(201,200,o),
(201,356,cs),
(201,507,o),
(209,580,o),
(247,580,cs),
(289,580,o),
(295,514,o),
(295,356,cs),
(295,204,o),
(289,134,o),
(247,134,cs)
);
}
);
width = 496;
}
);
unicode = 48;
},
{
glyphname = one.tamil;
lastChange = "2020-03-17 13:07:53 +0000";
layers = (
{
layerId = "DB7E4487-AAA8-4905-9B27-B72FA6056893";
shapes = (
{
closed = 1;
nodes = (
(397,714,l),
(246,714,l),
(34,486,l),
(135,389,l),
(196,456,ls),
(210,472,o),
(222,487,o),
(231,501,c),
(230,463,o),
(229,421,o),
(229,375,cs),
(229,0,l),
(397,0,l)
);
}
);
width = 496;
}
);
unicode = 49;
},
{
glyphname = two.tamil;
lastChange = "2020-03-17 13:07:53 +0000";
layers = (
{
layerId = "DB7E4487-AAA8-4905-9B27-B72FA6056893";
shapes = (
{
closed = 1;
nodes = (
(458,0,l),
(458,147,l),
(232,147,l),
(232,150,l),
(301,235,ls),
(414,374,o),
(446,438,o),
(446,530,cs),
(446,648,o),
(357,724,o),
(233,724,cs),
(155,724,o),
(87,691,o),
(24,649,c),
(96,526,l),
(138,555,o),
(175,573,o),
(218,573,cs),
(250,573,o),
(277,558,o),
(277,515,cs),
(277,460,o),
(254,418,o),
(180,323,cs),
(20,116,l),
(20,0,l)
);
}
);
width = 496;
}
);
unicode = 50;
},
{
glyphname = three.tamil;
lastChange = "2020-03-17 13:07:53 +0000";
layers = (
{
layerId = "DB7E4487-AAA8-4905-9B27-B72FA6056893";
shapes = (
{
closed = 1;
nodes = (
(365,-10,o),
(454,71,o),
(454,201,cs),
(454,297,o),
(403,354,o),
(315,373,c),
(315,376,l),
(394,405,o),
(442,472,o),
(442,545,cs),
(442,664,o),
(359,724,o),
(232,724,cs),
(157,724,o),
(96,705,o),
(30,662,c),
(102,546,l),
(141,569,o),
(173,579,o),
(205,579,cs),
(250,579,o),
(276,558,o),
(276,516,cs),
(276,463,o),
(236,435,o),
(164,435,cs),
(115,435,l),
(115,296,l),
(160,296,ls),
(243,296,o),
(286,271,o),
(286,216,cs),
(286,158,o),
(250,135,o),
(186,135,cs),
(131,135,o),
(85,147,o),
(30,170,c),
(30,21,l),
(78,0,o),
(141,-10,o),
(209,-10,cs)
);
}
);
width = 496;
}
);
unicode = 51;
},
{
glyphname = four.tamil;
lastChange = "2020-03-17 13:07:53 +0000";
layers = (
{
layerId = "DB7E4487-AAA8-4905-9B27-B72FA6056893";
shapes = (
{
closed = 1;
nodes = (
(414,0,l),
(414,138,l),
(481,138,l),
(481,275,l),
(414,275,l),
(414,714,l),
(253,714,l),
(17,272,l),
(17,138,l),
(249,138,l),
(249,0,l)
);
},
{
closed = 1;
nodes = (
(212,392,ls),
(227,419,o),
(240,448,o),
(248,476,c),
(252,476,l),
(251,462,o),
(249,437,o),
(249,404,cs),
(249,275,l),
(151,275,l)
);
}
);
width = 496;
}
);
unicode = 52;
},
{
glyphname = five.tamil;
lastChange = "2020-03-17 13:07:53 +0000";
layers = (
{
layerId = "DB7E4487-AAA8-4905-9B27-B72FA6056893";
shapes = (
{
closed = 1;
nodes = (
(373,-10,o),
(454,78,o),
(454,242,cs),
(454,377,o),
(382,466,o),
(265,466,cs),
(245,466,o),
(230,465,o),
(210,462,c),
(217,566,l),
(416,566,l),
(416,714,l),
(76,714,l),
(53,359,l),
(108,312,l),
(136,322,o),
(165,327,o),
(193,327,cs),
(256,327,o),
(286,292,o),
(286,233,cs),
(286,167,o),
(254,135,o),
(186,135,cs),
(125,135,o),
(86,149,o),
(46,170,c),
(46,20,l),
(86,2,o),
(151,-10,o),
(206,-10,cs)
);
}
);
width = 496;
}
);
unicode = 53;
},
{
glyphname = six.tamil;
lastChange = "2020-03-17 13:07:53 +0000";
layers = (
{
layerId = "DB7E4487-AAA8-4905-9B27-B72FA6056893";
shapes = (
{
closed = 1;
nodes = (
(389,-10,o),
(468,89,o),
(468,244,cs),
(468,390,o),
(408,476,o),
(306,476,cs),
(253,476,o),
(212,448,o),
(189,393,c),
(185,393,l),
(189,526,o),
(241,579,o),
(346,579,cs),
(376,579,o),
(405,576,o),
(432,570,c),
(432,716,l),
(398,721,o),
(364,724,o),
(330,724,cs),
(89,724,o),
(31,516,o),
(31,314,cs),
(31,106,o),
(117,-10,o),
(256,-10,cs)
);
},
{
closed = 1;
nodes = (
(216,134,o),
(195,179,o),
(195,252,cs),
(195,299,o),
(218,336,o),
(251,336,cs),
(288,336,o),
(304,304,o),
(304,241,cs),
(304,162,o),
(282,134,o),
(250,134,cs)
);
}
);
width = 496;
}
);
unicode = 54;
},
{
glyphname = seven.tamil;
lastChange = "2020-03-17 13:07:53 +0000";
layers = (
{
layerId = "DB7E4487-AAA8-4905-9B27-B72FA6056893";
shapes = (
{
closed = 1;
nodes = (
(263,0,l),
(463,599,l),
(463,714,l),
(28,714,l),
(28,566,l),
(292,566,l),
(85,0,l)
);
}
);
width = 496;
}
);
unicode = 55;
},
{
glyphname = eight.tamil;
lastChange = "2020-03-17 13:07:53 +0000";
layers = (
{
layerId = "DB7E4487-AAA8-4905-9B27-B72FA6056893";
shapes = (
{
closed = 1;
nodes = (
(384,-10,o),
(468,63,o),
(468,190,cs),
(468,259,o),
(435,318,o),
(350,376,c),
(418,418,o),
(450,474,o),
(450,550,cs),
(450,661,o),
(376,724,o),
(248,724,cs),
(124,724,o),
(46,661,o),
(46,551,cs),
(46,481,o),
(75,424,o),
(138,373,c),
(57,321,o),
(28,264,o),
(28,188,cs),
(28,61,o),
(107,-10,o),
(246,-10,cs)
);
},
{
closed = 1;
nodes = (
(208,123,o),
(189,148,o),
(189,191,cs),
(189,228,o),
(204,259,o),
(245,291,c),
(255,283,ls),
(298,246,o),
(306,218,o),
(306,187,cs),
(306,144,o),
(287,123,o),
(247,123,cs)
);
},
{
closed = 1;
nodes = (
(222,483,o),
(206,508,o),
(206,542,cs),
(206,571,o),
(222,591,o),
(249,591,cs),
(274,591,o),
(290,573,o),
(290,541,cs),
(290,508,o),
(277,485,o),
(246,459,c)
);
}
);
width = 496;
}
);
unicode = 56;
},
{
glyphname = nine.tamil;
lastChange = "2020-03-17 13:07:53 +0000";
layers = (
{
layerId = "DB7E4487-AAA8-4905-9B27-B72FA6056893";
shapes = (
{
closed = 1;
nodes = (
(393,-10,o),
(465,186,o),
(465,404,cs),
(465,608,o),
(377,724,o),
(238,724,cs),
(106,724,o),
(28,626,o),
(28,470,cs),
(28,326,o),
(87,238,o),
(189,238,cs),
(241,238,o),
(283,266,o),
(306,321,c),
(311,321,l),
(307,187,o),
(252,135,o),
(149,135,cs),
(119,135,o),
(90,138,o),
(63,145,c),
(63,-1,l),
(96,-7,o),
(130,-10,o),
(165,-10,cs)
);
},
{
closed = 1;
nodes = (
(212,378,o),
(192,406,o),
(192,473,cs),
(192,551,o),
(215,580,o),
(245,580,cs),
(296,580,o),
(301,494,o),
(301,462,cs),
(301,430,o),
(287,378,o),
(244,378,cs)
);
}
);
width = 496;
}
);
unicode = 57;
},
{
glyphname = colon.tamil;
lastChange = "2020-03-17 13:07:53 +0000";
layers = (
{
layerId = "DB7E4487-AAA8-4905-9B27-B72FA6056893";
shapes = (
{
closed = 1;
nodes = (
(203,-12,o),
(236,22,o),
(236,81,cs),
(236,141,o),
(205,176,o),
(146,176,cs),
(85,176,o),
(53,141,o),
(53,81,cs),
(53,22,o),
(88,-12,o),
(146,-12,cs)
);
},
{
closed = 1;
nodes = (
(203,376,o),
(236,410,o),
(236,469,cs),
(236,529,o),
(205,563,o),
(146,563,cs),
(85,563,o),
(53,529,o),
(53,469,cs),
(53,410,o),
(88,376,o),
(146,376,cs)
);
}
);
width = 288;
}
);
unicode = 58;
},
{
glyphname = semicolon.tamil;
lastChange = "2020-03-17 13:07:53 +0000";
layers = (
{
layerId = "DB7E4487-AAA8-4905-9B27-B72FA6056893";
shapes = (
{
closed = 1;
nodes = (
(71,146,l),
(65,69,o),
(50,-60,o),
(34,-139,c),
(170,-139,l),
(198,-66,o),
(220,25,o),
(235,135,c),
(230,146,l)
);
},
{
closed = 1;
nodes = (
(203,376,o),
(236,410,o),
(236,469,cs),
(236,529,o),
(205,563,o),
(146,563,cs),
(85,563,o),
(53,529,o),
(53,469,cs),
(53,410,o),
(88,376,o),
(146,376,cs)
);
}
);
width = 288;
}
);
unicode = 59;
},
{
glyphname = less.tamil;
lastChange = "2020-03-17 13:07:53 +0000";
layers = (
{
layerId = "DB7E4487-AAA8-4905-9B27-B72FA6056893";
shapes = (
{
closed = 1;
nodes = (
(462,260,l),
(221,360,l),
(462,462,l),
(462,606,l),
(34,405,l),
(34,315,l),
(462,115,l)
);
}
);
width = 496;
}
);
unicode = 60;
},
{
glyphname = equal.tamil;
lastChange = "2020-03-17 13:07:53 +0000";
layers = (
{
layerId = "DB7E4487-AAA8-4905-9B27-B72FA6056893";
shapes = (
{
closed = 1;
nodes = (
(462,177,l),
(462,306,l),
(34,306,l),
(34,177,l)
);
},
{
closed = 1;
nodes = (
(462,399,l),
(462,528,l),
(34,528,l),
(34,399,l)
);
}
);
width = 496;
}
);
unicode = 61;
},
{
glyphname = greater.tamil;
lastChange = "2020-03-17 13:07:53 +0000";
layers = (
{
layerId = "DB7E4487-AAA8-4905-9B27-B72FA6056893";
shapes = (
{
closed = 1;
nodes = (
(462,316,l),
(462,406,l),
(34,606,l),
(34,461,l),
(275,361,l),
(34,259,l),
(34,115,l)
);
}
);
width = 496;
}
);
unicode = 62;
},
{
glyphname = question.tamil;
lastChange = "2020-03-17 13:07:53 +0000";
layers = (
{
layerId = "DB7E4487-AAA8-4905-9B27-B72FA6056893";
shapes = (
{
closed = 1;
nodes = (
(147,724,o),
(91,706,o),
(30,673,c),
(90,550,l),
(117,565,o),
(155,579,o),
(185,579,cs),
(225,579,o),
(249,561,o),
(249,526,cs),
(249,488,o),
(227,463,o),
(190,428,cs),
(144,384,o),
(126,348,o),
(126,276,cs),
(126,253,l),
(263,253,l),
(263,263,ls),
(263,290,o),
(269,311,o),
(306,345,cs),
(377,411,o),
(408,468,o),
(408,551,cs),
(408,655,o),
(339,724,o),
(208,724,cs)
);
},
{
closed = 1;
nodes = (
(253,-12,o),
(286,22,o),
(286,81,cs),
(286,141,o),
(254,176,o),
(195,176,cs),
(135,176,o),
(102,141,o),
(102,81,cs),
(102,22,o),
(138,-12,o),
(195,-12,cs)
);
}
);
width = 431;
}
);
unicode = 63;
},
{
glyphname = bracketleft.tamil;
lastChange = "2020-03-17 13:07:53 +0000";
layers = (
{
layerId = "DB7E4487-AAA8-4905-9B27-B72FA6056893";
shapes = (
{
closed = 1;
nodes = (
(313,-244,l),
(313,-120,l),
(212,-120,l),
(212,676,l),
(313,676,l),
(313,800,l),
(62,800,l),
(62,-244,l)
);
}
);
width = 348;
}
);
unicode = 91;
},
{
glyphname = backslash.tamil;
lastChange = "2020-03-17 13:07:53 +0000";
layers = (
{
layerId = "DB7E4487-AAA8-4905-9B27-B72FA6056893";
shapes = (
{
closed = 1;
nodes = (
(433,-244,l),
(170,800,l),
(17,800,l),
(280,-244,l)
);
}
);
width = 450;
}
);
unicode = 92;
},
{
glyphname = bracketright.tamil;
lastChange = "2020-03-17 13:07:53 +0000";
layers = (
{
layerId = "DB7E4487-AAA8-4905-9B27-B72FA6056893";
shapes = (
{
closed = 1;
nodes = (
(286,-244,l),
(286,800,l),
(35,800,l),
(35,676,l),
(136,676,l),
(136,-120,l),
(35,-120,l),
(35,-244,l)
);
}
);
width = 348;
}
);
unicode = 93;
},
{
glyphname = asciicircum.tamil;
lastChange = "2020-03-17 13:07:53 +0000";
layers = (
{
layerId = "DB7E4487-AAA8-4905-9B27-B72FA6056893";
shapes = (
{
closed = 1;
nodes = (
(158,301,l),
(249,504,l),
(338,301,l),
(485,301,l),
(290,714,l),
(206,714,l),
(11,301,l)
);
}
);
width = 496;
}
);
unicode = 94;
},
{
glyphname = underscore.tamil;
lastChange = "2020-03-17 13:07:53 +0000";
layers = (
{
layerId = "DB7E4487-AAA8-4905-9B27-B72FA6056893";
shapes = (
{
closed = 1;
nodes = (
(396,-162,l),
(396,-90,l),
(-2,-90,l),
(-2,-162,l)
);
}
);
width = 394;
}
);
unicode = 95;
},
{
glyphname = braceleft.tamil;
lastChange = "2020-03-17 13:07:53 +0000";
layers = (
{
layerId = "DB7E4487-AAA8-4905-9B27-B72FA6056893";
shapes = (
{
closed = 1;
nodes = (
(390,-110,l),
(319,-110,o),
(297,-96,o),
(297,-50,cs),
(297,152,ls),
(297,228,o),
(256,264,o),
(180,276,c),
(180,282,l),
(256,294,o),
(297,330,o),
(297,406,cs),
(297,606,ls),
(297,652,o),
(319,666,o),
(390,666,c),
(390,800,l),
(190,800,o),
(144,749,o),
(144,632,cs),
(144,435,ls),
(144,375,o),
(112,356,o),
(24,352,c),
(24,206,l),
(112,202,o),
(144,183,o),
(144,123,cs),
(144,-76,ls),
(144,-193,o),
(190,-244,o),
(390,-244,c)
);
}
);
width = 425;
}
);
unicode = 123;
},
{
glyphname = bar.tamil;
lastChange = "2020-03-17 13:07:53 +0000";
layers = (
{
layerId = "DB7E4487-AAA8-4905-9B27-B72FA6056893";
shapes = (
{
closed = 1;
nodes = (
(341,-244,l),
(341,800,l),
(210,800,l),
(210,-244,l)
);
}
);
width = 551;
}
);
unicode = 124;
},
{
glyphname = braceright.tamil;
lastChange = "2020-03-17 13:07:53 +0000";
layers = (
{
layerId = "DB7E4487-AAA8-4905-9B27-B72FA6056893";
shapes = (
{
closed = 1;
nodes = (
(35,666,l),
(106,666,o),
(128,652,o),
(128,606,cs),
(128,405,ls),
(128,329,o),
(169,293,o),
(245,281,c),
(245,275,l),
(169,263,o),
(128,227,o),
(128,151,cs),
(128,-50,ls),
(128,-96,o),
(106,-110,o),
(35,-110,c),
(35,-244,l),
(235,-244,o),
(281,-193,o),
(281,-76,cs),
(281,122,ls),
(281,182,o),
(313,201,o),
(401,205,c),
(401,351,l),
(313,355,o),
(281,374,o),
(281,434,cs),
(281,632,ls),
(281,749,o),
(235,800,o),
(35,800,c)
);
}
);
width = 425;
}
);
unicode = 125;
},
{
glyphname = asciitilde.tamil;
lastChange = "2020-03-17 13:07:53 +0000";
layers = (
{
layerId = "DB7E4487-AAA8-4905-9B27-B72FA6056893";
shapes = (
{
closed = 1;
nodes = (
(273,271,o),
(311,259,o),
(350,259,cs),
(395,259,o),
(430,276,o),
(462,312,c),
(462,447,l),
(430,411,o),
(393,388,o),
(357,388,cs),
(326,388,o),
(300,397,o),
(264,414,cs),
(225,433,o),
(185,446,o),
(146,446,cs),
(101,446,o),
(66,429,o),
(34,393,c),
(34,258,l),
(66,294,o),
(103,317,o),
(139,317,cs),
(171,317,o),
(195,308,o),
(231,291,cs)
);
}
);
width = 496;
}
);
unicode = 126;
},
{
glyphname = endash.tamil;
lastChange = "2020-03-17 13:07:53 +0000";
layers = (
{
layerId = "DB7E4487-AAA8-4905-9B27-B72FA6056893";
shapes = (
{
closed = 1;
nodes = (
(461,242,l),
(461,373,l),
(39,373,l),
(39,242,l)
);
}
);
width = 500;
}
);
unicode = 8211;
},
{
glyphname = emdash.tamil;
lastChange = "2020-03-17 13:07:53 +0000";
layers = (
{
layerId = "DB7E4487-AAA8-4905-9B27-B72FA6056893";
shapes = (
{
closed = 1;
nodes = (
(961,242,l),
(961,373,l),
(39,373,l),
(39,242,l)
);
}
);
width = 1000;
}
);
unicode = 8212;
},
{
glyphname = quoteleft.tamil;
lastChange = "2020-03-17 13:07:53 +0000";
layers = (
{
layerId = "DB7E4487-AAA8-4905-9B27-B72FA6056893";
shapes = (
{
closed = 1;
nodes = (
(204,515,l),
(210,589,o),
(224,717,o),
(241,800,c),
(106,800,l),
(77,727,o),
(55,635,o),
(40,526,c),
(45,515,l)
);
}
);
width = 281;
}
);
unicode = 8216;
},
{
glyphname = quoteright.tamil;
lastChange = "2020-03-17 13:07:53 +0000";
layers = (
{
layerId = "DB7E4487-AAA8-4905-9B27-B72FA6056893";
shapes = (
{
closed = 1;
nodes = (
(76,800,l),
(73,733,o),
(54,585,o),
(40,515,c),
(175,515,l),
(204,588,o),
(225,679,o),
(240,789,c),
(235,800,l)
);
}
);
width = 280;
}
);
unicode = 8217;
},
{
glyphname = quotedblleft.tamil;
lastChange = "2020-03-17 13:07:53 +0000";
layers = (
{
layerId = "DB7E4487-AAA8-4905-9B27-B72FA6056893";
shapes = (
{
closed = 1;
nodes = (
(434,515,l),
(438,601,o),
(454,712,o),
(470,800,c),
(336,800,l),
(307,727,o),
(286,635,o),
(271,526,c),
(276,515,l)
);
},
{
closed = 1;
nodes = (
(204,515,l),
(210,589,o),
(224,717,o),
(241,800,c),
(106,800,l),
(77,727,o),
(55,635,o),
(40,526,c),
(45,515,l)
);
}
);
width = 510;
}
);
unicode = 8220;
},
{
glyphname = quotedblright.tamil;
lastChange = "2020-03-17 13:07:53 +0000";
layers = (
{
layerId = "DB7E4487-AAA8-4905-9B27-B72FA6056893";
shapes = (
{
closed = 1;
nodes = (
(307,800,l),
(300,710,o),
(287,612,o),
(270,515,c),
(404,515,l),
(433,588,o),
(455,679,o),
(470,789,c),
(464,800,l)
);
},
{
closed = 1;
nodes = (
(76,800,l),
(73,733,o),
(52,585,o),
(40,515,c),
(175,515,l),
(204,588,o),
(225,679,o),
(240,789,c),
(235,800,l)
);
}
);
width = 510;
}
);
unicode = 8221;
},
{
glyphname = ellipsis.tamil;
lastChange = "2020-03-17 13:07:53 +0000";
layers = (
{
layerId = "DB7E4487-AAA8-4905-9B27-B72FA6056893";
shapes = (
{
closed = 1;
nodes = (
(202,-12,o),
(236,22,o),
(236,81,cs),
(236,141,o),
(203,176,o),
(145,176,cs),
(85,176,o),
(52,141,o),
(52,81,cs),
(52,22,o),
(88,-12,o),
(145,-12,cs)
);
},
{
closed = 1;
nodes = (
(477,-12,o),
(511,22,o),
(511,81,cs),
(511,141,o),
(478,176,o),
(420,176,cs),
(360,176,o),
(327,141,o),
(327,81,cs),
(327,22,o),
(363,-12,o),
(420,-12,cs)
);
},
{
closed = 1;
nodes = (
(753,-12,o),
(787,22,o),
(787,81,cs),
(787,141,o),
(754,176,o),
(696,176,cs),
(636,176,o),
(603,141,o),
(603,81,cs),
(603,22,o),
(639,-12,o),
(696,-12,cs)
);
}
);
width = 839;
}
);
unicode = 8230;
},
{
glyphname = multiply.tamil;
lastChange = "2020-03-17 13:07:53 +0000";
layers = (
{
layerId = "DB7E4487-AAA8-4905-9B27-B72FA6056893";
shapes = (
{
closed = 1;
nodes = (
(247,441,l),
(120,570,l),
(29,479,l),
(158,352,l),
(29,225,l),
(120,134,l),
(247,263,l),
(375,134,l),
(466,225,l),
(336,352,l),
(466,479,l),
(375,570,l)
);
}
);
width = 496;
}
);
unicode = 215;
},
{
glyphname = divide.tamil;
lastChange = "2020-03-17 13:07:53 +0000";
layers = (
{
layerId = "DB7E4487-AAA8-4905-9B27-B72FA6056893";
shapes = (
{
closed = 1;
nodes = (
(462,288,l),
(462,417,l),
(34,417,l),
(34,288,l)
);
},
{
closed = 1;
nodes = (
(298,69,o),
(327,101,o),
(327,155,cs),
(327,210,o),
(300,241,o),
(248,241,cs),
(196,241,o),
(168,210,o),
(168,155,cs),
(168,100,o),
(199,69,o),
(248,69,cs)
);
},
{
closed = 1;
nodes = (
(298,464,o),
(327,496,o),
(327,550,cs),
(327,605,o),
(300,636,o),
(248,636,cs),
(196,636,o),
(168,605,o),
(168,550,cs),
(168,495,o),
(199,464,o),
(248,464,cs)
);
}
);
width = 496;
}
);
unicode = 247;
},
{
glyphname = minus.tamil;
lastChange = "2020-03-17 13:07:53 +0000";
layers = (
{
layerId = "DB7E4487-AAA8-4905-9B27-B72FA6056893";
shapes = (
{
closed = 1;
nodes = (
(462,288,l),
(462,417,l),
(34,417,l),
(34,288,l)
);
}
);
width = 496;
}
);
unicode = 8722;
},
{
glyphname = uni20B9.tamil;
lastChange = "2020-03-17 13:07:53 +0000";
layers = (
{
layerId = "DB7E4487-AAA8-4905-9B27-B72FA6056893";
shapes = (
{
closed = 1;
nodes = (
(361,0,l),
(191,274,l),
(195,253,l),
(303,279,o),
(346,336,o),
(346,474,cs),
(346,531,o),
(322,576,o),
(296,597,c),
(454,597,l),
(454,714,l),
(46,714,l),
(46,597,l),
(90,597,ls),
(129,597,o),
(149,590,o),
(162,578,cs),
(187,555,o),
(193,524,o),
(193,476,cs),
(193,416,o),
(188,392,o),
(168,372,cs),
(153,357,o),
(130,350,o),
(87,350,cs),
(64,350,l),
(47,243,l),
(183,0,l)
);
},
{
closed = 1;
nodes = (
(454,411,l),
(454,534,l),
(46,534,l),
(46,411,l)
);
}
);
width = 496;
}
);
unicode = 8377;
},
{
category = Mark;
glyphname = uni0951;
lastChange = "2020-03-17 13:07:53 +0000";
layers = (
{
anchors = (
{
name = _Anchor10;
pos = (-278,-264);
}
);
layerId = "DB7E4487-AAA8-4905-9B27-B72FA6056893";
shapes = (
{
closed = 1;
nodes = (
(-330,654,l),
(-225,654,l),
(-225,870,l),
(-330,870,l)
);
}
);
width = 0;
}
);
subCategory = Nonspacing;
unicode = 2385;
},
{
category = Mark;
glyphname = uni0952;
lastChange = "2020-03-17 13:07:53 +0000";
layers = (
{
anchors = (
{
name = _Anchor10;
pos = (-278,288);
}
);
layerId = "DB7E4487-AAA8-4905-9B27-B72FA6056893";
shapes = (
{
closed = 1;
nodes = (
(-66,-82,l),
(-490,-82,l),
(-490,-182,l),
(-66,-182,l)
);
}
);
width = 0;
}
);
subCategory = Nonspacing;
unicode = 2386;
},
{
glyphname = danda.tamil;
lastChange = "2020-03-17 13:07:53 +0000";
layers = (
{
layerId = "DB7E4487-AAA8-4905-9B27-B72FA6056893";
shapes = (
{
closed = 1;
nodes = (
(267,-49,l),
(267,610,l),
(106,610,l),
(106,-49,l)
);
}
);
width = 320;
}
);
unicode = 2404;
},
{
glyphname = dbldanda.tamil;
lastChange = "2020-03-17 13:07:53 +0000";
layers = (
{
layerId = "DB7E4487-AAA8-4905-9B27-B72FA6056893";
shapes = (
{
closed = 1;
nodes = (
(506,-49,l),
(506,610,l),
(345,610,l),
(345,-49,l)
);
},
{
closed = 1;
nodes = (
(267,-49,l),
(267,610,l),
(106,610,l),
(106,-49,l)
);
}
);
width = 559;
}
);
unicode = 2405;
},
{
category = Mark;
glyphname = uni1CDA;
lastChange = "2020-03-17 13:07:53 +0000";
layers = (
{
anchors = (
{
name = _Anchor10;
pos = (-278,-264);
}
);
layerId = "DB7E4487-AAA8-4905-9B27-B72FA6056893";
shapes = (
{
closed = 1;
nodes = (
(-388,654,l),
(-300,654,l),
(-300,870,l),
(-388,870,l)
);
},
{
closed = 1;
nodes = (
(-257,654,l),
(-169,654,l),
(-169,870,l),
(-257,870,l)
);
}
);
width = 0;
}
);
subCategory = Nonspacing;
unicode = 7386;
},
{
glyphname = uniA8F3;
lastChange = "2020-03-17 13:07:53 +0000";
layers = (
{
anchors = (
{
name = Anchor10;
pos = (241,-29);
}
);
layerId = "DB7E4487-AAA8-4905-9B27-B72FA6056893";
shapes = (
{
closed = 1;
nodes = (
(387,276,o),
(454,366,o),
(454,477,cs),
(454,506,o),
(449,535,o),
(443,555,c),
(316,536,l),
(321,520,o),
(323,501,o),
(323,483,cs),
(323,422,o),
(290,392,o),
(244,392,cs),
(193,392,o),
(159,420,o),
(159,486,cs),
(159,501,o),
(162,524,o),
(167,536,c),
(39,555,l),
(33,534,o),
(28,506,o),
(28,477,cs),
(28,366,o),
(96,276,o),
(242,276,cs)
);
},
{
closed = 1;
nodes = (
(275,416,o),
(295,441,o),
(295,481,cs),
(295,520,o),
(271,543,o),
(242,543,cs),
(209,543,o),
(187,520,o),
(187,481,cs),
(187,441,o),
(209,416,o),
(242,416,cs)
);
},
{
closed = 1;
nodes = (
(218,266,l),
(131,158,l),
(342,-19,l),
(425,89,l)
);
}
);
width = 482;
}
);
unicode = 43251;
},
{
category = Mark;
glyphname = u11301;
lastChange = "2020-03-17 13:07:53 +0000";
layers = (
{
anchors = (
{
name = _Anchor10;
pos = (-278,-264);
}
);
layerId = "DB7E4487-AAA8-4905-9B27-B72FA6056893";
shapes = (
{
closed = 1;
nodes = (
(-154,650,o),
(-100,709,o),
(-100,810,cs),
(-100,834,o),
(-104,855,o),
(-108,870,c),
(-202,861,l),
(-199,847,o),
(-198,828,o),
(-198,822,cs),
(-198,757,o),
(-236,737,o),
(-278,737,cs),
(-329,737,o),
(-359,759,o),
(-359,820,cs),
(-359,832,o),
(-357,847,o),
(-354,861,c),
(-449,870,l),
(-453,856,o),
(-457,832,o),
(-457,809,cs),
(-457,713,o),
(-401,650,o),
(-278,650,cs)
);
},
{
closed = 1;
nodes = (
(-244,761,o),
(-225,783,o),
(-225,815,cs),
(-225,846,o),
(-241,870,o),
(-279,870,cs),
(-315,870,o),
(-332,846,o),
(-332,816,cs),
(-332,783,o),
(-314,761,o),
(-279,761,cs)
);
}
);
width = 0;
}
);
subCategory = Nonspacing;
unicode = 70401;
},
{
glyphname = u11303;
lastChange = "2020-03-17 13:07:53 +0000";
layers = (
{
layerId = "DB7E4487-AAA8-4905-9B27-B72FA6056893";
shapes = (
{
closed = 1;
nodes = (
(33,38,o),
(81,-12,o),
(162,-12,cs),
(243,-12,o),
(293,38,o),
(293,128,cs),
(293,218,o),
(242,268,o),
(162,268,cs),
(82,268,o),
(33,219,o),
(33,128,cs)
);
},
{
closed = 1;
nodes = (
(130,159,o),
(143,176,o),
(162,176,cs),
(183,176,o),
(196,158,o),
(196,129,cs),
(196,97,o),
(184,80,o),
(162,80,cs),
(141,80,o),
(130,97,o),
(130,129,cs)
);
},
{
closed = 1;
nodes = (
(33,351,o),
(81,303,o),
(162,303,cs),
(243,303,o),
(293,351,o),
(293,441,cs),
(293,533,o),
(242,581,o),
(162,581,cs),
(82,581,o),
(33,531,o),
(33,441,cs)
);
},
{
closed = 1;
nodes = (
(130,474,o),
(143,489,o),
(162,489,cs),
(183,489,o),
(196,474,o),
(196,442,cs),
(196,412,o),
(184,395,o),
(162,395,cs),
(141,395,o),
(130,412,o),
(130,442,cs)
);
}
);
width = 326;
}
);
unicode = 70403;
},
{
category = Mark;
glyphname = u1133B;
lastChange = "2020-03-17 13:07:53 +0000";
layers = (
{
anchors = (
{
name = _Anchor12;
pos = (-279,-78);
}
);
layerId = "DB7E4487-AAA8-4905-9B27-B72FA6056893";
shapes = (
{
closed = 1;
nodes = (
(-227,-224,o),
(-196,-195,o),
(-196,-142,cs),
(-196,-89,o),
(-227,-60,o),
(-274,-60,cs),
(-320,-60,o),
(-351,-89,o),
(-351,-142,cs),
(-351,-195,o),
(-320,-224,o),
(-274,-224,cs)
);
}
);
width = 0;
}
);
subCategory = Nonspacing;
unicode = 70459;
},
{
category = Mark;
glyphname = u1133C;
lastChange = "2020-03-17 13:07:53 +0000";
layers = (
{
anchors = (
{
name = _Anchor12;
pos = (-279,-78);
}
);
layerId = "DB7E4487-AAA8-4905-9B27-B72FA6056893";
shapes = (
{
closed = 1;
nodes = (
(-402,-192,o),
(-378,-214,o),
(-346,-214,cs),
(-314,-214,o),
(-291,-192,o),
(-291,-142,cs),
(-291,-94,o),
(-314,-70,o),
(-346,-70,cs),
(-378,-70,o),
(-402,-93,o),
(-402,-142,cs)
);
},
{
closed = 1;
nodes = (
(-268,-192,o),
(-245,-214,o),
(-213,-214,cs),
(-180,-214,o),
(-157,-192,o),
(-157,-142,cs),
(-157,-93,o),
(-180,-70,o),
(-213,-70,cs),
(-245,-70,o),
(-268,-93,o),
(-268,-142,cs)
);
}
);
width = 0;
}
);
subCategory = Nonspacing;
unicode = 70460;
},
{
glyphname = uni00B2;
lastChange = "2020-03-17 13:07:53 +0000";
layers = (
{
layerId = "DB7E4487-AAA8-4905-9B27-B72FA6056893";
shapes = (
{
closed = 1;
nodes = (
(296,369,l),
(296,469,l),
(157,469,l),
(202,518,ls),
(278,601,o),
(295,633,o),
(295,692,cs),
(295,757,o),
(247,808,o),
(164,808,cs),
(107,808,o),
(62,789,o),
(21,761,c),
(66,680,l),
(90,698,o),
(113,709,o),
(135,709,cs),
(159,709,o),
(174,696,o),
(174,670,cs),
(174,641,o),
(154,611,o),
(93,543,cs),
(15,457,l),
(15,369,l)
);
}
);
width = 312;
}
);
unicode = 178;
},
{
glyphname = uni00B3;
lastChange = "2020-03-17 13:07:53 +0000";
layers = (
{
layerId = "DB7E4487-AAA8-4905-9B27-B72FA6056893";
shapes = (
{
closed = 1;
nodes = (
(242,361,o),
(299,408,o),
(299,486,cs),
(299,546,o),
(268,573,o),
(224,591,c),
(224,595,l),
(268,623,o),
(288,651,o),
(288,700,cs),
(288,768,o),
(229,807,o),
(150,807,cs),
(104,807,o),
(59,795,o),
(15,767,c),
(65,688,l),
(92,704,o),
(113,710,o),
(134,710,cs),
(164,710,o),
(179,696,o),
(179,674,cs),
(179,644,o),
(159,630,o),
(117,630,cs),
(78,630,l),
(78,541,l),
(127,541,ls),
(168,541,o),
(186,528,o),
(186,502,cs),
(186,478,o),
(169,460,o),
(129,460,cs),
(96,460,o),
(56,469,o),
(18,486,c),
(18,386,l),
(50,370,o),
(94,361,o),
(142,361,cs)
);
}
);
width = 312;
}
);
unicode = 179;
},
{
glyphname = uni2074;
lastChange = "2020-03-17 13:07:53 +0000";
layers = (
{
layerId = "DB7E4487-AAA8-4905-9B27-B72FA6056893";
shapes = (
{
closed = 1;
nodes = (
(294,369,l),
(294,440,l),
(347,440,l),
(347,533,l),
(294,533,l),
(294,800,l),
(160,800,l),
(15,527,l),
(15,440,l),
(179,440,l),
(179,369,l)
);
},
{
closed = 1;
nodes = (
(151,607,ls),
(162,628,o),
(172,650,o),
(182,682,c),
(180,661,o),
(179,639,o),
(179,616,cs),
(179,533,l),
(113,533,l)
);
}
);
width = 363;
}
);
unicode = 8308;
},
{
glyphname = uni200C;
lastChange = "2020-03-17 13:07:53 +0000";
layers = (
{
layerId = "DB7E4487-AAA8-4905-9B27-B72FA6056893";
shapes = (
{
closed = 1;
nodes = (
(29,-244,l),
(29,753,l),
(-29,753,l),
(-29,-244,l)
);
}
);
width = 0;
}
);
unicode = 8204;
},
{
glyphname = uni200D;
lastChange = "2020-03-17 13:07:53 +0000";
layers = (
{
layerId = "DB7E4487-AAA8-4905-9B27-B72FA6056893";
shapes = (
{
closed = 1;
nodes = (
(29,-244,l),
(29,565,l),
(121,474,l),
(161,514,l),
(40,631,l),
(161,748,l),
(121,788,l),
(0,669,l),
(-121,788,l),
(-161,748,l),
(-40,631,l),
(-161,514,l),
(-121,474,l),
(-29,565,l),
(-29,-244,l)
);
}
);
width = 0;
}
);
unicode = 8205;
},
{
glyphname = uni25CC;
lastChange = "2020-03-17 13:07:53 +0000";
layers = (
{
layerId = "DB7E4487-AAA8-4905-9B27-B72FA6056893";
shapes = (
{
closed = 1;
nodes = (
(110,231,o),
(121,242,o),
(121,264,cs),
(121,285,o),
(110,295,o),
(89,295,cs),
(68,295,o),
(57,285,o),
(57,264,cs),
(57,242,o),
(68,231,o),
(89,231,cs)
);
},
{
closed = 1;
nodes = (
(159,95,o),
(169,105,o),
(169,127,cs),
(169,148,o),
(159,158,o),
(138,158,cs),
(117,158,o),
(106,148,o),
(106,127,cs),
(106,105,o),
(117,95,o),
(138,95,cs)
);
},
{
closed = 1;
nodes = (
(302,40,o),
(312,51,o),
(312,72,cs),
(312,93,o),
(302,104,o),
(281,104,cs),
(259,104,o),
(249,93,o),
(249,72,cs),
(249,51,o),
(259,40,o),
(281,40,cs)
);
},
{
closed = 1;
nodes = (
(159,369,o),
(169,379,o),
(169,401,cs),
(169,422,o),
(159,432,o),
(138,432,cs),
(117,432,o),
(106,422,o),
(106,401,cs),
(106,379,o),
(117,369,o),
(138,369,cs)
);
},
{
closed = 1;
nodes = (
(444,95,o),
(455,105,o),
(455,127,cs),
(455,148,o),
(444,158,o),
(423,158,cs),
(402,158,o),
(391,148,o),
(391,127,cs),
(391,105,o),
(402,95,o),
(423,95,cs)
);
},
{
closed = 1;
nodes = (
(302,424,o),
(312,435,o),
(312,456,cs),
(312,477,o),
(302,487,o),
(281,487,cs),
(259,487,o),
(249,477,o),
(249,456,cs),
(249,435,o),
(259,424,o),
(281,424,cs)
);
},
{
closed = 1;
nodes = (
(493,231,o),
(504,242,o),
(504,264,cs),
(504,285,o),
(493,295,o),
(472,295,cs),
(451,295,o),
(441,285,o),
(441,264,cs),
(441,242,o),
(451,231,o),
(472,231,cs)
);
},
{
closed = 1;
nodes = (
(444,369,o),
(455,379,o),
(455,401,cs),
(455,422,o),
(444,432,o),
(423,432,cs),
(402,432,o),
(391,422,o),
(391,401,cs),
(391,379,o),
(402,369,o),
(423,369,cs)
);
}
);
width = 562;
}
);
unicode = 9676;
},
{
export = 0;
glyphname = _corner.obtuse;
lastChange = "2025-02-10 15:25:03 +0000";
layers = (
{
layerId = "DB7E4487-AAA8-4905-9B27-B72FA6056893";
shapes = (
{
closed = 1;
nodes = (
(111,500,o),
(125,502,o),
(141,487,c),
(138,478,l),
(100,478,l),
(100,500,l)
);
}
);
width = 200;
}
);
},
